%TF.GenerationSoftware,KiCad,Pcbnew,7.0.2-6a45011f42~172~ubuntu20.04.1*%
%TF.CreationDate,2023-04-23T13:30:35+07:00*%
%TF.ProjectId,EZ-USB-FX2LP-micro,455a2d55-5342-42d4-9658-324c502d6d69,rev?*%
%TF.SameCoordinates,Original*%
%TF.FileFunction,Copper,L2,Inr*%
%TF.FilePolarity,Positive*%
%FSLAX46Y46*%
G04 Gerber Fmt 4.6, Leading zero omitted, Abs format (unit mm)*
G04 Created by KiCad (PCBNEW 7.0.2-6a45011f42~172~ubuntu20.04.1) date 2023-04-23 13:30:35*
%MOMM*%
%LPD*%
G01*
G04 APERTURE LIST*
%TA.AperFunction,ComponentPad*%
%ADD10C,0.500000*%
%TD*%
%TA.AperFunction,ComponentPad*%
%ADD11R,1.700000X1.700000*%
%TD*%
%TA.AperFunction,ComponentPad*%
%ADD12O,1.700000X1.700000*%
%TD*%
%TA.AperFunction,ViaPad*%
%ADD13C,0.800000*%
%TD*%
G04 APERTURE END LIST*
D10*
%TO.N,GND*%
%TO.C,U1*%
X148412400Y-105486200D03*
X147237400Y-105486200D03*
X146062400Y-105486200D03*
X144887400Y-105486200D03*
X143712400Y-105486200D03*
X148412400Y-106486200D03*
X147237400Y-106486200D03*
X146062400Y-106486200D03*
X144887400Y-106486200D03*
X143712400Y-106486200D03*
X148412400Y-107486200D03*
X147237400Y-107486200D03*
X146062400Y-107486200D03*
X144887400Y-107486200D03*
X143712400Y-107486200D03*
X148412400Y-108486200D03*
X147237400Y-108486200D03*
X146062400Y-108486200D03*
X144887400Y-108486200D03*
X143712400Y-108486200D03*
X148412400Y-109486200D03*
X147237400Y-109486200D03*
X146062400Y-109486200D03*
X144887400Y-109486200D03*
X143712400Y-109486200D03*
%TD*%
D11*
%TO.N,Net-(J2-Pin_1)*%
%TO.C,J2*%
X144787400Y-118668800D03*
D12*
%TO.N,/SDA*%
X147327400Y-118668800D03*
%TD*%
D11*
%TO.N,GND*%
%TO.C,J3*%
X142169200Y-86842600D03*
D12*
%TO.N,Net-(D2-K)*%
X142169200Y-89382600D03*
%TD*%
D11*
%TO.N,+5V*%
%TO.C,J1*%
X137172400Y-80846600D03*
D12*
%TO.N,GND*%
X137172400Y-83386600D03*
%TO.N,+3V3*%
X137172400Y-85926600D03*
%TO.N,/IFCLK*%
X137172400Y-88466600D03*
%TO.N,/SCL*%
X137172400Y-91006600D03*
%TO.N,/SDA*%
X137172400Y-93546600D03*
%TO.N,/PB0*%
X137172400Y-96086600D03*
%TO.N,/PB1*%
X137172400Y-98626600D03*
%TO.N,/PB2*%
X137172400Y-101166600D03*
%TO.N,/PB3*%
X137172400Y-103706600D03*
%TO.N,/PB4*%
X137172400Y-106246600D03*
%TO.N,/PB5*%
X137172400Y-108786600D03*
%TO.N,/PB6*%
X137172400Y-111326600D03*
%TO.N,/PB7*%
X137172400Y-113866600D03*
%TO.N,/CTL0*%
X137172400Y-116406600D03*
%TO.N,/CTL1*%
X137172400Y-118946600D03*
%TO.N,/CTL2*%
X137172400Y-121486600D03*
%TO.N,/PA0*%
X137172400Y-124026600D03*
%TO.N,/PA1*%
X137172400Y-126566600D03*
%TO.N,/PA2*%
X137172400Y-129106600D03*
%TD*%
D11*
%TO.N,+5V*%
%TO.C,J7*%
X154952400Y-80846600D03*
D12*
%TO.N,GND*%
X154952400Y-83386600D03*
%TO.N,+3V3*%
X154952400Y-85926600D03*
%TO.N,/RDY1*%
X154952400Y-88466600D03*
%TO.N,/RDY0*%
X154952400Y-91006600D03*
%TO.N,/CLKOUT*%
X154952400Y-93546600D03*
%TO.N,/PD7*%
X154952400Y-96086600D03*
%TO.N,/PD6*%
X154952400Y-98626600D03*
%TO.N,/PD5*%
X154952400Y-101166600D03*
%TO.N,/PD4*%
X154952400Y-103706600D03*
%TO.N,/PD3*%
X154952400Y-106246600D03*
%TO.N,/PD2*%
X154952400Y-108786600D03*
%TO.N,/PD1*%
X154952400Y-111326600D03*
%TO.N,/PD0*%
X154952400Y-113866600D03*
%TO.N,/~{RESET}*%
X154952400Y-116406600D03*
%TO.N,/PA7*%
X154952400Y-118946600D03*
%TO.N,/PA6*%
X154952400Y-121486600D03*
%TO.N,/PA5*%
X154952400Y-124026600D03*
%TO.N,/PA4*%
X154952400Y-126566600D03*
%TO.N,/PA3*%
X154952400Y-129106600D03*
%TD*%
D13*
%TO.N,GND*%
X136296400Y-102438200D03*
X142417800Y-102108000D03*
X136296400Y-92278200D03*
X136296400Y-94818200D03*
X155829000Y-112598200D03*
X155829000Y-125298200D03*
X144653000Y-99441000D03*
X136296400Y-104978200D03*
X145999200Y-83947000D03*
X155829000Y-110058200D03*
X152019000Y-95199200D03*
X136296400Y-117678200D03*
X139928600Y-103200200D03*
X136296400Y-89738200D03*
X144653000Y-95825732D03*
X144653000Y-88595200D03*
X155829000Y-89738200D03*
X146481800Y-95825732D03*
X155829000Y-94818200D03*
X155829000Y-87198200D03*
X155829000Y-117678200D03*
X136296400Y-107518200D03*
X155829000Y-104978200D03*
X152450800Y-78994000D03*
X136296400Y-112598200D03*
X151282400Y-100660200D03*
X136296400Y-87198200D03*
X148564600Y-94081600D03*
X136296400Y-122758200D03*
X155829000Y-92278200D03*
X136296400Y-130378200D03*
X148793200Y-82067400D03*
X147650200Y-86563200D03*
X140639800Y-117678200D03*
X146913600Y-122555000D03*
X143078200Y-81254600D03*
X155829000Y-107518200D03*
X136296400Y-125298200D03*
X144653000Y-92210466D03*
X146481800Y-99441000D03*
X136296400Y-97358200D03*
X136296400Y-84658200D03*
X146075400Y-128752600D03*
X155829000Y-120218200D03*
X141884400Y-122174000D03*
X136296400Y-110058200D03*
X143992600Y-85725000D03*
X146481800Y-88595200D03*
X140233400Y-113207800D03*
X149275800Y-119303800D03*
X153238200Y-84226400D03*
X136296400Y-115138200D03*
X139471400Y-78994000D03*
X151079200Y-115976400D03*
X155829000Y-102438200D03*
X155829000Y-84658200D03*
X155829000Y-127838200D03*
X142824200Y-115544600D03*
X143002000Y-83108800D03*
X155829000Y-115138200D03*
X139471400Y-82067400D03*
X155829000Y-122758200D03*
X155829000Y-99898200D03*
X136296400Y-120218200D03*
X136296400Y-127838200D03*
X136296400Y-99898200D03*
X142163800Y-98882200D03*
X155829000Y-130378200D03*
X150495000Y-111836200D03*
X155829000Y-97358200D03*
X146481800Y-92210466D03*
X145211800Y-125095000D03*
%TO.N,+3V3*%
X140843000Y-123190000D03*
X144313482Y-110550920D03*
X152501600Y-113131600D03*
X144297400Y-104495600D03*
X151511000Y-126060200D03*
X151790400Y-89916000D03*
X151790400Y-90728800D03*
X149098000Y-104736200D03*
X150733001Y-114493799D03*
X150241000Y-120370600D03*
%TO.N,+5V*%
X150749000Y-83261200D03*
X150749000Y-82397600D03*
%TO.N,/~{RESET}*%
X146151600Y-130869000D03*
%TO.N,/SDA*%
X140491400Y-99339400D03*
%TO.N,/SCL*%
X147294600Y-117170200D03*
X141191400Y-100101400D03*
%TO.N,/PA0*%
X141655800Y-90982800D03*
%TO.N,/PA1*%
X140995400Y-96723200D03*
%TO.N,/RDY0*%
X149642232Y-101719553D03*
%TO.N,/RDY1*%
X148818600Y-102285800D03*
%TD*%
%TA.AperFunction,Conductor*%
%TO.N,GND*%
G36*
X155413794Y-77875571D02*
G01*
X155453953Y-77879085D01*
X155575717Y-77891078D01*
X155587732Y-77892860D01*
X155605946Y-77896483D01*
X155613786Y-77898311D01*
X155668751Y-77913038D01*
X155672497Y-77914108D01*
X155765793Y-77942408D01*
X155782173Y-77948677D01*
X155849120Y-77979894D01*
X155855140Y-77982904D01*
X155935923Y-78026084D01*
X155948577Y-78033856D01*
X156010764Y-78077400D01*
X156018299Y-78083118D01*
X156087698Y-78140073D01*
X156096714Y-78148245D01*
X156150752Y-78202283D01*
X156158918Y-78211292D01*
X156215893Y-78280715D01*
X156221603Y-78288241D01*
X156265133Y-78350408D01*
X156272916Y-78363079D01*
X156316094Y-78443860D01*
X156319118Y-78449908D01*
X156350315Y-78516809D01*
X156356594Y-78533219D01*
X156384875Y-78626451D01*
X156385989Y-78630354D01*
X156400676Y-78685169D01*
X156402517Y-78693062D01*
X156406134Y-78711240D01*
X156407921Y-78723285D01*
X156419923Y-78845147D01*
X156423431Y-78885240D01*
X156423900Y-78896003D01*
X156423900Y-131057185D01*
X156423428Y-131067994D01*
X156419923Y-131108050D01*
X156407921Y-131229912D01*
X156406135Y-131241947D01*
X156402516Y-131260137D01*
X156400675Y-131268035D01*
X156385984Y-131322861D01*
X156384870Y-131326761D01*
X156356595Y-131419975D01*
X156350316Y-131436386D01*
X156319118Y-131503290D01*
X156316094Y-131509339D01*
X156272915Y-131590120D01*
X156265133Y-131602788D01*
X156221609Y-131664948D01*
X156215886Y-131672492D01*
X156158920Y-131741904D01*
X156150748Y-131750919D01*
X156096719Y-131804948D01*
X156087704Y-131813120D01*
X156018292Y-131870086D01*
X156010748Y-131875809D01*
X155948588Y-131919333D01*
X155935920Y-131927115D01*
X155855139Y-131970294D01*
X155849090Y-131973318D01*
X155782186Y-132004516D01*
X155765775Y-132010795D01*
X155672561Y-132039070D01*
X155668661Y-132040184D01*
X155613835Y-132054875D01*
X155605936Y-132056717D01*
X155587750Y-132060335D01*
X155575709Y-132062121D01*
X155453850Y-132074123D01*
X155439626Y-132075368D01*
X155413760Y-132077631D01*
X155402995Y-132078100D01*
X136721814Y-132078100D01*
X136711006Y-132077628D01*
X136670947Y-132074123D01*
X136549080Y-132062120D01*
X136537047Y-132060335D01*
X136518866Y-132056718D01*
X136510969Y-132054876D01*
X136456154Y-132040189D01*
X136452251Y-132039075D01*
X136359019Y-132010794D01*
X136342609Y-132004515D01*
X136275708Y-131973318D01*
X136269660Y-131970294D01*
X136188879Y-131927116D01*
X136176208Y-131919333D01*
X136114041Y-131875803D01*
X136106522Y-131870098D01*
X136037091Y-131813117D01*
X136028083Y-131804952D01*
X135974045Y-131750914D01*
X135965873Y-131741898D01*
X135908918Y-131672499D01*
X135903196Y-131664958D01*
X135903189Y-131664948D01*
X135859656Y-131602777D01*
X135851884Y-131590123D01*
X135808704Y-131509339D01*
X135805694Y-131503320D01*
X135774477Y-131436373D01*
X135768208Y-131419993D01*
X135739908Y-131326697D01*
X135738838Y-131322951D01*
X135724111Y-131267986D01*
X135722284Y-131260151D01*
X135718659Y-131241925D01*
X135716879Y-131229925D01*
X135704876Y-131108050D01*
X135701368Y-131067958D01*
X135700900Y-131057199D01*
X135700900Y-130868999D01*
X145496321Y-130868999D01*
X145515363Y-131025818D01*
X145571380Y-131173523D01*
X145661115Y-131303528D01*
X145661116Y-131303529D01*
X145661117Y-131303530D01*
X145779360Y-131408283D01*
X145919235Y-131481696D01*
X146072615Y-131519500D01*
X146230585Y-131519500D01*
X146383965Y-131481696D01*
X146523840Y-131408283D01*
X146642083Y-131303530D01*
X146731820Y-131173523D01*
X146787837Y-131025818D01*
X146806878Y-130869000D01*
X146787837Y-130712182D01*
X146731820Y-130564477D01*
X146642083Y-130434470D01*
X146523840Y-130329717D01*
X146510594Y-130322764D01*
X146383964Y-130256303D01*
X146230585Y-130218500D01*
X146072615Y-130218500D01*
X145919235Y-130256303D01*
X145779361Y-130329716D01*
X145661115Y-130434471D01*
X145571380Y-130564476D01*
X145515363Y-130712181D01*
X145496321Y-130868999D01*
X135700900Y-130868999D01*
X135700900Y-129106600D01*
X136067185Y-129106600D01*
X136086002Y-129309683D01*
X136141818Y-129505851D01*
X136232724Y-129688418D01*
X136355636Y-129851180D01*
X136506358Y-129988581D01*
X136679761Y-130095947D01*
X136679763Y-130095948D01*
X136869944Y-130169624D01*
X137070424Y-130207100D01*
X137070426Y-130207100D01*
X137274374Y-130207100D01*
X137274376Y-130207100D01*
X137474856Y-130169624D01*
X137665037Y-130095948D01*
X137838441Y-129988581D01*
X137989164Y-129851179D01*
X138112073Y-129688421D01*
X138112073Y-129688419D01*
X138112075Y-129688418D01*
X138157713Y-129596761D01*
X138202982Y-129505850D01*
X138258797Y-129309683D01*
X138277615Y-129106600D01*
X153847185Y-129106600D01*
X153866002Y-129309683D01*
X153921818Y-129505851D01*
X154012724Y-129688418D01*
X154135636Y-129851180D01*
X154286358Y-129988581D01*
X154459761Y-130095947D01*
X154459763Y-130095948D01*
X154649944Y-130169624D01*
X154850424Y-130207100D01*
X154850426Y-130207100D01*
X155054374Y-130207100D01*
X155054376Y-130207100D01*
X155254856Y-130169624D01*
X155445037Y-130095948D01*
X155618441Y-129988581D01*
X155769164Y-129851179D01*
X155892073Y-129688421D01*
X155892073Y-129688419D01*
X155892075Y-129688418D01*
X155937713Y-129596761D01*
X155982982Y-129505850D01*
X156038797Y-129309683D01*
X156057615Y-129106600D01*
X156038797Y-128903517D01*
X155982982Y-128707350D01*
X155982609Y-128706601D01*
X155892075Y-128524781D01*
X155769163Y-128362019D01*
X155618441Y-128224618D01*
X155445038Y-128117252D01*
X155254857Y-128043576D01*
X155188029Y-128031083D01*
X155054376Y-128006100D01*
X154850424Y-128006100D01*
X154750183Y-128024837D01*
X154649942Y-128043576D01*
X154459761Y-128117252D01*
X154286358Y-128224618D01*
X154135636Y-128362019D01*
X154012724Y-128524781D01*
X153921818Y-128707348D01*
X153866002Y-128903516D01*
X153847185Y-129106600D01*
X138277615Y-129106600D01*
X138258797Y-128903517D01*
X138202982Y-128707350D01*
X138202609Y-128706601D01*
X138112075Y-128524781D01*
X137989163Y-128362019D01*
X137838441Y-128224618D01*
X137665038Y-128117252D01*
X137474857Y-128043576D01*
X137408029Y-128031083D01*
X137274376Y-128006100D01*
X137070424Y-128006100D01*
X136970183Y-128024837D01*
X136869942Y-128043576D01*
X136679761Y-128117252D01*
X136506358Y-128224618D01*
X136355636Y-128362019D01*
X136232724Y-128524781D01*
X136141818Y-128707348D01*
X136086002Y-128903516D01*
X136067185Y-129106600D01*
X135700900Y-129106600D01*
X135700900Y-126566599D01*
X136067185Y-126566599D01*
X136086002Y-126769683D01*
X136141818Y-126965851D01*
X136232724Y-127148418D01*
X136355636Y-127311180D01*
X136506358Y-127448581D01*
X136679761Y-127555947D01*
X136679763Y-127555948D01*
X136869944Y-127629624D01*
X137070424Y-127667100D01*
X137070426Y-127667100D01*
X137274374Y-127667100D01*
X137274376Y-127667100D01*
X137474856Y-127629624D01*
X137665037Y-127555948D01*
X137838441Y-127448581D01*
X137989164Y-127311179D01*
X138112073Y-127148421D01*
X138112073Y-127148419D01*
X138112075Y-127148418D01*
X138157713Y-127056761D01*
X138202982Y-126965850D01*
X138258797Y-126769683D01*
X138277615Y-126566600D01*
X138258797Y-126363517D01*
X138202982Y-126167350D01*
X138202609Y-126166601D01*
X138149628Y-126060199D01*
X150855721Y-126060199D01*
X150874763Y-126217018D01*
X150930780Y-126364723D01*
X151020515Y-126494728D01*
X151020516Y-126494729D01*
X151020517Y-126494730D01*
X151138760Y-126599483D01*
X151278635Y-126672896D01*
X151432015Y-126710700D01*
X151589985Y-126710700D01*
X151743365Y-126672896D01*
X151883240Y-126599483D01*
X151920359Y-126566599D01*
X153847185Y-126566599D01*
X153866002Y-126769683D01*
X153921818Y-126965851D01*
X154012724Y-127148418D01*
X154135636Y-127311180D01*
X154286358Y-127448581D01*
X154459761Y-127555947D01*
X154459763Y-127555948D01*
X154649944Y-127629624D01*
X154850424Y-127667100D01*
X154850426Y-127667100D01*
X155054374Y-127667100D01*
X155054376Y-127667100D01*
X155254856Y-127629624D01*
X155445037Y-127555948D01*
X155618441Y-127448581D01*
X155769164Y-127311179D01*
X155892073Y-127148421D01*
X155892073Y-127148419D01*
X155892075Y-127148418D01*
X155937713Y-127056761D01*
X155982982Y-126965850D01*
X156038797Y-126769683D01*
X156057615Y-126566600D01*
X156038797Y-126363517D01*
X155982982Y-126167350D01*
X155982609Y-126166601D01*
X155892075Y-125984781D01*
X155769163Y-125822019D01*
X155618441Y-125684618D01*
X155445038Y-125577252D01*
X155254857Y-125503576D01*
X155188029Y-125491083D01*
X155054376Y-125466100D01*
X154850424Y-125466100D01*
X154750183Y-125484837D01*
X154649942Y-125503576D01*
X154459761Y-125577252D01*
X154286358Y-125684618D01*
X154135636Y-125822019D01*
X154012724Y-125984781D01*
X153921818Y-126167348D01*
X153866002Y-126363516D01*
X153847185Y-126566599D01*
X151920359Y-126566599D01*
X152001483Y-126494730D01*
X152091220Y-126364723D01*
X152147237Y-126217018D01*
X152166278Y-126060200D01*
X152147237Y-125903382D01*
X152091220Y-125755677D01*
X152001483Y-125625670D01*
X151883240Y-125520917D01*
X151850200Y-125503576D01*
X151743364Y-125447503D01*
X151589985Y-125409700D01*
X151432015Y-125409700D01*
X151278635Y-125447503D01*
X151138761Y-125520916D01*
X151020515Y-125625671D01*
X150930780Y-125755676D01*
X150874763Y-125903381D01*
X150855721Y-126060199D01*
X138149628Y-126060199D01*
X138112075Y-125984781D01*
X137989163Y-125822019D01*
X137838441Y-125684618D01*
X137665038Y-125577252D01*
X137474857Y-125503576D01*
X137408029Y-125491083D01*
X137274376Y-125466100D01*
X137070424Y-125466100D01*
X136970183Y-125484838D01*
X136869942Y-125503576D01*
X136679761Y-125577252D01*
X136506358Y-125684618D01*
X136355636Y-125822019D01*
X136232724Y-125984781D01*
X136141818Y-126167348D01*
X136086002Y-126363516D01*
X136067185Y-126566599D01*
X135700900Y-126566599D01*
X135700900Y-124026600D01*
X136067185Y-124026600D01*
X136086002Y-124229683D01*
X136141818Y-124425851D01*
X136232724Y-124608418D01*
X136355636Y-124771180D01*
X136506358Y-124908581D01*
X136679761Y-125015947D01*
X136679763Y-125015948D01*
X136869944Y-125089624D01*
X137070424Y-125127100D01*
X137070426Y-125127100D01*
X137274374Y-125127100D01*
X137274376Y-125127100D01*
X137474856Y-125089624D01*
X137665037Y-125015948D01*
X137838441Y-124908581D01*
X137989164Y-124771179D01*
X138112073Y-124608421D01*
X138112073Y-124608419D01*
X138112075Y-124608418D01*
X138157713Y-124516761D01*
X138202982Y-124425850D01*
X138258797Y-124229683D01*
X138277615Y-124026600D01*
X153847185Y-124026600D01*
X153866002Y-124229683D01*
X153921818Y-124425851D01*
X154012724Y-124608418D01*
X154135636Y-124771180D01*
X154286358Y-124908581D01*
X154459761Y-125015947D01*
X154459763Y-125015948D01*
X154649944Y-125089624D01*
X154850424Y-125127100D01*
X154850426Y-125127100D01*
X155054374Y-125127100D01*
X155054376Y-125127100D01*
X155254856Y-125089624D01*
X155445037Y-125015948D01*
X155618441Y-124908581D01*
X155769164Y-124771179D01*
X155892073Y-124608421D01*
X155892073Y-124608419D01*
X155892075Y-124608418D01*
X155937713Y-124516761D01*
X155982982Y-124425850D01*
X156038797Y-124229683D01*
X156057615Y-124026600D01*
X156038797Y-123823517D01*
X155982982Y-123627350D01*
X155981577Y-123624528D01*
X155892075Y-123444781D01*
X155769163Y-123282019D01*
X155618441Y-123144618D01*
X155445038Y-123037252D01*
X155254857Y-122963576D01*
X155188029Y-122951083D01*
X155054376Y-122926100D01*
X154850424Y-122926100D01*
X154750183Y-122944838D01*
X154649942Y-122963576D01*
X154459761Y-123037252D01*
X154286358Y-123144618D01*
X154135636Y-123282019D01*
X154012724Y-123444781D01*
X153921818Y-123627348D01*
X153866002Y-123823516D01*
X153847185Y-124026600D01*
X138277615Y-124026600D01*
X138258797Y-123823517D01*
X138202982Y-123627350D01*
X138201577Y-123624528D01*
X138112075Y-123444781D01*
X137989163Y-123282019D01*
X137888223Y-123190000D01*
X140187721Y-123190000D01*
X140206763Y-123346818D01*
X140262780Y-123494523D01*
X140352515Y-123624528D01*
X140352516Y-123624529D01*
X140352517Y-123624530D01*
X140470760Y-123729283D01*
X140610635Y-123802696D01*
X140764015Y-123840500D01*
X140921985Y-123840500D01*
X141075365Y-123802696D01*
X141215240Y-123729283D01*
X141333483Y-123624530D01*
X141423220Y-123494523D01*
X141479237Y-123346818D01*
X141498278Y-123190000D01*
X141479237Y-123033182D01*
X141423220Y-122885477D01*
X141333483Y-122755470D01*
X141215240Y-122650717D01*
X141201994Y-122643764D01*
X141075364Y-122577303D01*
X140921985Y-122539500D01*
X140764015Y-122539500D01*
X140610635Y-122577303D01*
X140470761Y-122650716D01*
X140352515Y-122755471D01*
X140262780Y-122885476D01*
X140206763Y-123033181D01*
X140187721Y-123190000D01*
X137888223Y-123190000D01*
X137838441Y-123144618D01*
X137665038Y-123037252D01*
X137474857Y-122963576D01*
X137408029Y-122951083D01*
X137274376Y-122926100D01*
X137070424Y-122926100D01*
X136970183Y-122944838D01*
X136869942Y-122963576D01*
X136679761Y-123037252D01*
X136506358Y-123144618D01*
X136355636Y-123282019D01*
X136232724Y-123444781D01*
X136141818Y-123627348D01*
X136086002Y-123823516D01*
X136067185Y-124026600D01*
X135700900Y-124026600D01*
X135700900Y-121486599D01*
X136067185Y-121486599D01*
X136086002Y-121689683D01*
X136141818Y-121885851D01*
X136232724Y-122068418D01*
X136355636Y-122231180D01*
X136506358Y-122368581D01*
X136679761Y-122475947D01*
X136679763Y-122475948D01*
X136869944Y-122549624D01*
X137070424Y-122587100D01*
X137070426Y-122587100D01*
X137274374Y-122587100D01*
X137274376Y-122587100D01*
X137474856Y-122549624D01*
X137665037Y-122475948D01*
X137838441Y-122368581D01*
X137989164Y-122231179D01*
X138112073Y-122068421D01*
X138112073Y-122068419D01*
X138112075Y-122068418D01*
X138157713Y-121976761D01*
X138202982Y-121885850D01*
X138258797Y-121689683D01*
X138277615Y-121486600D01*
X138277615Y-121486599D01*
X153847185Y-121486599D01*
X153866002Y-121689683D01*
X153921818Y-121885851D01*
X154012724Y-122068418D01*
X154135636Y-122231180D01*
X154286358Y-122368581D01*
X154459761Y-122475947D01*
X154459763Y-122475948D01*
X154649944Y-122549624D01*
X154850424Y-122587100D01*
X154850426Y-122587100D01*
X155054374Y-122587100D01*
X155054376Y-122587100D01*
X155254856Y-122549624D01*
X155445037Y-122475948D01*
X155618441Y-122368581D01*
X155769164Y-122231179D01*
X155892073Y-122068421D01*
X155892073Y-122068419D01*
X155892075Y-122068418D01*
X155937713Y-121976761D01*
X155982982Y-121885850D01*
X156038797Y-121689683D01*
X156057615Y-121486600D01*
X156038797Y-121283517D01*
X155982982Y-121087350D01*
X155931170Y-120983296D01*
X155892075Y-120904781D01*
X155769163Y-120742019D01*
X155618441Y-120604618D01*
X155445038Y-120497252D01*
X155254857Y-120423576D01*
X155188029Y-120411083D01*
X155054376Y-120386100D01*
X154850424Y-120386100D01*
X154750183Y-120404838D01*
X154649942Y-120423576D01*
X154459761Y-120497252D01*
X154286358Y-120604618D01*
X154135636Y-120742019D01*
X154012724Y-120904781D01*
X153921818Y-121087348D01*
X153866002Y-121283516D01*
X153847185Y-121486599D01*
X138277615Y-121486599D01*
X138258797Y-121283517D01*
X138202982Y-121087350D01*
X138151170Y-120983296D01*
X138112075Y-120904781D01*
X137989163Y-120742019D01*
X137838441Y-120604618D01*
X137665038Y-120497252D01*
X137474857Y-120423576D01*
X137408029Y-120411083D01*
X137274376Y-120386100D01*
X137070424Y-120386100D01*
X136970183Y-120404838D01*
X136869942Y-120423576D01*
X136679761Y-120497252D01*
X136506358Y-120604618D01*
X136355636Y-120742019D01*
X136232724Y-120904781D01*
X136141818Y-121087348D01*
X136086002Y-121283516D01*
X136067185Y-121486599D01*
X135700900Y-121486599D01*
X135700900Y-120370600D01*
X149585721Y-120370600D01*
X149604763Y-120527418D01*
X149660780Y-120675123D01*
X149750515Y-120805128D01*
X149750516Y-120805129D01*
X149750517Y-120805130D01*
X149868760Y-120909883D01*
X150008635Y-120983296D01*
X150162015Y-121021100D01*
X150319985Y-121021100D01*
X150473365Y-120983296D01*
X150613240Y-120909883D01*
X150731483Y-120805130D01*
X150821220Y-120675123D01*
X150877237Y-120527418D01*
X150896278Y-120370600D01*
X150877237Y-120213782D01*
X150821220Y-120066077D01*
X150731483Y-119936070D01*
X150613240Y-119831317D01*
X150599994Y-119824365D01*
X150473364Y-119757903D01*
X150319985Y-119720100D01*
X150162015Y-119720100D01*
X150008635Y-119757903D01*
X149868761Y-119831316D01*
X149750515Y-119936071D01*
X149660780Y-120066076D01*
X149604763Y-120213781D01*
X149585721Y-120370600D01*
X135700900Y-120370600D01*
X135700900Y-118946599D01*
X136067185Y-118946599D01*
X136086002Y-119149683D01*
X136141818Y-119345851D01*
X136232724Y-119528418D01*
X136355636Y-119691180D01*
X136506358Y-119828581D01*
X136679761Y-119935947D01*
X136679763Y-119935948D01*
X136869944Y-120009624D01*
X137070424Y-120047100D01*
X137070426Y-120047100D01*
X137274374Y-120047100D01*
X137274376Y-120047100D01*
X137474856Y-120009624D01*
X137665037Y-119935948D01*
X137838441Y-119828581D01*
X137989164Y-119691179D01*
X138100706Y-119543474D01*
X143686900Y-119543474D01*
X143701433Y-119616538D01*
X143701433Y-119616539D01*
X143701434Y-119616540D01*
X143756799Y-119699401D01*
X143839660Y-119754766D01*
X143876192Y-119762033D01*
X143912725Y-119769300D01*
X143912726Y-119769300D01*
X145662075Y-119769300D01*
X145686429Y-119764455D01*
X145735140Y-119754766D01*
X145818001Y-119699401D01*
X145873366Y-119616540D01*
X145887900Y-119543474D01*
X145887900Y-118668800D01*
X146222185Y-118668800D01*
X146241002Y-118871883D01*
X146296818Y-119068051D01*
X146387724Y-119250618D01*
X146510636Y-119413380D01*
X146661358Y-119550781D01*
X146834761Y-119658147D01*
X146834763Y-119658148D01*
X147024944Y-119731824D01*
X147225424Y-119769300D01*
X147225426Y-119769300D01*
X147429374Y-119769300D01*
X147429376Y-119769300D01*
X147629856Y-119731824D01*
X147820037Y-119658148D01*
X147993441Y-119550781D01*
X148144164Y-119413379D01*
X148267073Y-119250621D01*
X148267073Y-119250619D01*
X148267075Y-119250618D01*
X148317334Y-119149683D01*
X148357982Y-119068050D01*
X148392538Y-118946600D01*
X153847185Y-118946600D01*
X153866002Y-119149683D01*
X153921818Y-119345851D01*
X154012724Y-119528418D01*
X154135636Y-119691180D01*
X154286358Y-119828581D01*
X154459761Y-119935947D01*
X154459763Y-119935948D01*
X154649944Y-120009624D01*
X154850424Y-120047100D01*
X154850426Y-120047100D01*
X155054374Y-120047100D01*
X155054376Y-120047100D01*
X155254856Y-120009624D01*
X155445037Y-119935948D01*
X155618441Y-119828581D01*
X155769164Y-119691179D01*
X155892073Y-119528421D01*
X155892073Y-119528419D01*
X155892075Y-119528418D01*
X155949357Y-119413379D01*
X155982982Y-119345850D01*
X156038797Y-119149683D01*
X156057615Y-118946600D01*
X156038797Y-118743517D01*
X155982982Y-118547350D01*
X155942334Y-118465717D01*
X155892075Y-118364781D01*
X155769163Y-118202019D01*
X155618441Y-118064618D01*
X155445038Y-117957252D01*
X155254857Y-117883576D01*
X155188029Y-117871083D01*
X155054376Y-117846100D01*
X154850424Y-117846100D01*
X154750183Y-117864838D01*
X154649942Y-117883576D01*
X154459761Y-117957252D01*
X154286358Y-118064618D01*
X154135636Y-118202019D01*
X154012724Y-118364781D01*
X153921818Y-118547348D01*
X153866002Y-118743516D01*
X153847185Y-118946600D01*
X148392538Y-118946600D01*
X148413797Y-118871883D01*
X148432615Y-118668800D01*
X148413797Y-118465717D01*
X148357982Y-118269550D01*
X148324356Y-118202019D01*
X148267075Y-118086981D01*
X148144163Y-117924219D01*
X147993443Y-117786820D01*
X147870221Y-117710524D01*
X147823586Y-117658496D01*
X147812482Y-117589514D01*
X147833447Y-117534661D01*
X147874820Y-117474723D01*
X147930837Y-117327018D01*
X147949878Y-117170200D01*
X147930837Y-117013382D01*
X147874820Y-116865677D01*
X147785083Y-116735670D01*
X147666840Y-116630917D01*
X147626383Y-116609683D01*
X147526964Y-116557503D01*
X147373585Y-116519700D01*
X147215615Y-116519700D01*
X147062235Y-116557503D01*
X146922361Y-116630916D01*
X146804115Y-116735671D01*
X146714380Y-116865676D01*
X146658363Y-117013381D01*
X146639321Y-117170199D01*
X146658363Y-117327018D01*
X146714380Y-117474725D01*
X146775391Y-117563115D01*
X146797274Y-117629469D01*
X146779808Y-117697121D01*
X146738619Y-117738980D01*
X146661360Y-117786817D01*
X146510636Y-117924219D01*
X146387724Y-118086981D01*
X146296818Y-118269548D01*
X146241002Y-118465716D01*
X146222185Y-118668800D01*
X145887900Y-118668800D01*
X145887900Y-117794126D01*
X145873366Y-117721060D01*
X145818001Y-117638199D01*
X145735140Y-117582834D01*
X145735139Y-117582833D01*
X145735138Y-117582833D01*
X145662075Y-117568300D01*
X145662074Y-117568300D01*
X143912726Y-117568300D01*
X143912725Y-117568300D01*
X143839661Y-117582833D01*
X143756799Y-117638199D01*
X143701433Y-117721061D01*
X143686900Y-117794125D01*
X143686900Y-119543474D01*
X138100706Y-119543474D01*
X138112073Y-119528421D01*
X138112073Y-119528419D01*
X138112075Y-119528418D01*
X138169357Y-119413379D01*
X138202982Y-119345850D01*
X138258797Y-119149683D01*
X138277615Y-118946600D01*
X138258797Y-118743517D01*
X138202982Y-118547350D01*
X138162334Y-118465717D01*
X138112075Y-118364781D01*
X137989163Y-118202019D01*
X137838441Y-118064618D01*
X137665038Y-117957252D01*
X137474857Y-117883576D01*
X137408029Y-117871083D01*
X137274376Y-117846100D01*
X137070424Y-117846100D01*
X136970183Y-117864838D01*
X136869942Y-117883576D01*
X136679761Y-117957252D01*
X136506358Y-118064618D01*
X136355636Y-118202019D01*
X136232724Y-118364781D01*
X136141818Y-118547348D01*
X136086002Y-118743516D01*
X136067185Y-118946599D01*
X135700900Y-118946599D01*
X135700900Y-116406600D01*
X136067185Y-116406600D01*
X136086002Y-116609683D01*
X136141818Y-116805851D01*
X136232724Y-116988418D01*
X136355636Y-117151180D01*
X136506358Y-117288581D01*
X136679761Y-117395947D01*
X136679763Y-117395948D01*
X136869944Y-117469624D01*
X137070424Y-117507100D01*
X137070426Y-117507100D01*
X137274374Y-117507100D01*
X137274376Y-117507100D01*
X137474856Y-117469624D01*
X137665037Y-117395948D01*
X137838441Y-117288581D01*
X137989164Y-117151179D01*
X138112073Y-116988421D01*
X138112073Y-116988419D01*
X138112075Y-116988418D01*
X138173192Y-116865676D01*
X138202982Y-116805850D01*
X138258797Y-116609683D01*
X138277615Y-116406600D01*
X153847185Y-116406600D01*
X153866002Y-116609683D01*
X153921818Y-116805851D01*
X154012724Y-116988418D01*
X154135636Y-117151180D01*
X154286358Y-117288581D01*
X154459761Y-117395947D01*
X154459763Y-117395948D01*
X154649944Y-117469624D01*
X154850424Y-117507100D01*
X154850426Y-117507100D01*
X155054374Y-117507100D01*
X155054376Y-117507100D01*
X155254856Y-117469624D01*
X155445037Y-117395948D01*
X155618441Y-117288581D01*
X155769164Y-117151179D01*
X155892073Y-116988421D01*
X155892073Y-116988419D01*
X155892075Y-116988418D01*
X155953192Y-116865676D01*
X155982982Y-116805850D01*
X156038797Y-116609683D01*
X156057615Y-116406600D01*
X156038797Y-116203517D01*
X155982982Y-116007350D01*
X155982609Y-116006601D01*
X155892075Y-115824781D01*
X155769163Y-115662019D01*
X155618441Y-115524618D01*
X155445038Y-115417252D01*
X155254857Y-115343576D01*
X155188029Y-115331083D01*
X155054376Y-115306100D01*
X154850424Y-115306100D01*
X154750183Y-115324838D01*
X154649942Y-115343576D01*
X154459761Y-115417252D01*
X154286358Y-115524618D01*
X154135636Y-115662019D01*
X154012724Y-115824781D01*
X153921818Y-116007348D01*
X153866002Y-116203516D01*
X153847185Y-116406600D01*
X138277615Y-116406600D01*
X138258797Y-116203517D01*
X138202982Y-116007350D01*
X138202609Y-116006601D01*
X138112075Y-115824781D01*
X137989163Y-115662019D01*
X137838441Y-115524618D01*
X137665038Y-115417252D01*
X137474857Y-115343576D01*
X137408029Y-115331083D01*
X137274376Y-115306100D01*
X137070424Y-115306100D01*
X136970183Y-115324838D01*
X136869942Y-115343576D01*
X136679761Y-115417252D01*
X136506358Y-115524618D01*
X136355636Y-115662019D01*
X136232724Y-115824781D01*
X136141818Y-116007348D01*
X136086002Y-116203516D01*
X136067185Y-116406600D01*
X135700900Y-116406600D01*
X135700900Y-113866599D01*
X136067185Y-113866599D01*
X136086002Y-114069683D01*
X136141818Y-114265851D01*
X136232724Y-114448418D01*
X136355636Y-114611180D01*
X136506358Y-114748581D01*
X136679761Y-114855947D01*
X136679763Y-114855948D01*
X136869944Y-114929624D01*
X137070424Y-114967100D01*
X137070426Y-114967100D01*
X137274374Y-114967100D01*
X137274376Y-114967100D01*
X137474856Y-114929624D01*
X137665037Y-114855948D01*
X137838441Y-114748581D01*
X137989164Y-114611179D01*
X138077806Y-114493798D01*
X150077722Y-114493798D01*
X150096764Y-114650617D01*
X150152781Y-114798322D01*
X150242516Y-114928327D01*
X150242517Y-114928328D01*
X150242518Y-114928329D01*
X150360761Y-115033082D01*
X150500636Y-115106495D01*
X150654016Y-115144299D01*
X150811986Y-115144299D01*
X150965366Y-115106495D01*
X151105241Y-115033082D01*
X151223484Y-114928329D01*
X151313221Y-114798322D01*
X151369238Y-114650617D01*
X151388279Y-114493799D01*
X151369238Y-114336981D01*
X151313221Y-114189276D01*
X151223484Y-114059269D01*
X151105241Y-113954516D01*
X151091995Y-113947564D01*
X150965365Y-113881102D01*
X150906522Y-113866599D01*
X153847185Y-113866599D01*
X153866002Y-114069683D01*
X153921818Y-114265851D01*
X154012724Y-114448418D01*
X154135636Y-114611180D01*
X154286358Y-114748581D01*
X154459761Y-114855947D01*
X154459763Y-114855948D01*
X154649944Y-114929624D01*
X154850424Y-114967100D01*
X154850426Y-114967100D01*
X155054374Y-114967100D01*
X155054376Y-114967100D01*
X155254856Y-114929624D01*
X155445037Y-114855948D01*
X155618441Y-114748581D01*
X155769164Y-114611179D01*
X155892073Y-114448421D01*
X155892073Y-114448419D01*
X155892075Y-114448418D01*
X155947564Y-114336980D01*
X155982982Y-114265850D01*
X156038797Y-114069683D01*
X156057615Y-113866600D01*
X156038797Y-113663517D01*
X155982982Y-113467350D01*
X155967433Y-113436123D01*
X155892075Y-113284781D01*
X155769163Y-113122019D01*
X155618441Y-112984618D01*
X155445038Y-112877252D01*
X155254857Y-112803576D01*
X155188029Y-112791083D01*
X155054376Y-112766100D01*
X154850424Y-112766100D01*
X154750183Y-112784838D01*
X154649942Y-112803576D01*
X154459761Y-112877252D01*
X154286358Y-112984618D01*
X154135636Y-113122019D01*
X154012724Y-113284781D01*
X153921818Y-113467348D01*
X153866002Y-113663516D01*
X153847185Y-113866599D01*
X150906522Y-113866599D01*
X150811986Y-113843299D01*
X150654016Y-113843299D01*
X150500636Y-113881102D01*
X150360762Y-113954515D01*
X150242516Y-114059270D01*
X150152781Y-114189275D01*
X150096764Y-114336980D01*
X150077722Y-114493798D01*
X138077806Y-114493798D01*
X138112073Y-114448421D01*
X138112073Y-114448419D01*
X138112075Y-114448418D01*
X138167564Y-114336980D01*
X138202982Y-114265850D01*
X138258797Y-114069683D01*
X138277615Y-113866600D01*
X138258797Y-113663517D01*
X138202982Y-113467350D01*
X138187433Y-113436123D01*
X138112075Y-113284781D01*
X137996398Y-113131600D01*
X151846321Y-113131600D01*
X151865363Y-113288418D01*
X151921380Y-113436123D01*
X152011115Y-113566128D01*
X152011116Y-113566129D01*
X152011117Y-113566130D01*
X152129360Y-113670883D01*
X152269235Y-113744296D01*
X152422615Y-113782100D01*
X152580585Y-113782100D01*
X152733965Y-113744296D01*
X152873840Y-113670883D01*
X152992083Y-113566130D01*
X153081820Y-113436123D01*
X153137837Y-113288418D01*
X153156878Y-113131600D01*
X153137837Y-112974782D01*
X153081820Y-112827077D01*
X152992083Y-112697070D01*
X152873840Y-112592317D01*
X152860594Y-112585365D01*
X152733964Y-112518903D01*
X152580585Y-112481100D01*
X152422615Y-112481100D01*
X152269235Y-112518903D01*
X152129361Y-112592316D01*
X152011115Y-112697071D01*
X151921380Y-112827076D01*
X151865363Y-112974781D01*
X151846321Y-113131600D01*
X137996398Y-113131600D01*
X137989163Y-113122019D01*
X137838441Y-112984618D01*
X137665038Y-112877252D01*
X137474857Y-112803576D01*
X137408029Y-112791083D01*
X137274376Y-112766100D01*
X137070424Y-112766100D01*
X136970183Y-112784838D01*
X136869942Y-112803576D01*
X136679761Y-112877252D01*
X136506358Y-112984618D01*
X136355636Y-113122019D01*
X136232724Y-113284781D01*
X136141818Y-113467348D01*
X136086002Y-113663516D01*
X136067185Y-113866599D01*
X135700900Y-113866599D01*
X135700900Y-111326600D01*
X136067185Y-111326600D01*
X136086002Y-111529683D01*
X136141818Y-111725851D01*
X136232724Y-111908418D01*
X136355636Y-112071180D01*
X136506358Y-112208581D01*
X136679761Y-112315947D01*
X136679763Y-112315948D01*
X136869944Y-112389624D01*
X137070424Y-112427100D01*
X137070426Y-112427100D01*
X137274374Y-112427100D01*
X137274376Y-112427100D01*
X137474856Y-112389624D01*
X137665037Y-112315948D01*
X137838441Y-112208581D01*
X137989164Y-112071179D01*
X138112073Y-111908421D01*
X138112073Y-111908419D01*
X138112075Y-111908418D01*
X138157713Y-111816761D01*
X138202982Y-111725850D01*
X138258797Y-111529683D01*
X138277615Y-111326600D01*
X138277615Y-111326599D01*
X153847185Y-111326599D01*
X153866002Y-111529683D01*
X153921818Y-111725851D01*
X154012724Y-111908418D01*
X154135636Y-112071180D01*
X154286358Y-112208581D01*
X154459761Y-112315947D01*
X154459763Y-112315948D01*
X154649944Y-112389624D01*
X154850424Y-112427100D01*
X154850426Y-112427100D01*
X155054374Y-112427100D01*
X155054376Y-112427100D01*
X155254856Y-112389624D01*
X155445037Y-112315948D01*
X155618441Y-112208581D01*
X155769164Y-112071179D01*
X155892073Y-111908421D01*
X155892073Y-111908419D01*
X155892075Y-111908418D01*
X155937713Y-111816761D01*
X155982982Y-111725850D01*
X156038797Y-111529683D01*
X156057615Y-111326600D01*
X156038797Y-111123517D01*
X155982982Y-110927350D01*
X155947177Y-110855443D01*
X155892075Y-110744781D01*
X155769163Y-110582019D01*
X155618441Y-110444618D01*
X155445038Y-110337252D01*
X155254857Y-110263576D01*
X155162956Y-110246397D01*
X155054376Y-110226100D01*
X154850424Y-110226100D01*
X154750183Y-110244838D01*
X154649942Y-110263576D01*
X154459761Y-110337252D01*
X154286358Y-110444618D01*
X154135636Y-110582019D01*
X154012724Y-110744781D01*
X153921818Y-110927348D01*
X153866002Y-111123516D01*
X153847185Y-111326599D01*
X138277615Y-111326599D01*
X138258797Y-111123517D01*
X138202982Y-110927350D01*
X138167177Y-110855443D01*
X138112075Y-110744781D01*
X137989163Y-110582019D01*
X137955049Y-110550920D01*
X143658203Y-110550920D01*
X143677245Y-110707738D01*
X143733262Y-110855443D01*
X143822997Y-110985448D01*
X143822998Y-110985449D01*
X143822999Y-110985450D01*
X143941242Y-111090203D01*
X144081117Y-111163616D01*
X144234497Y-111201420D01*
X144392467Y-111201420D01*
X144545847Y-111163616D01*
X144685722Y-111090203D01*
X144803965Y-110985450D01*
X144893702Y-110855443D01*
X144949719Y-110707738D01*
X144968760Y-110550920D01*
X144949719Y-110394102D01*
X144893702Y-110246397D01*
X144803965Y-110116390D01*
X144685722Y-110011637D01*
X144672476Y-110004684D01*
X144545846Y-109938223D01*
X144392467Y-109900420D01*
X144234497Y-109900420D01*
X144081117Y-109938223D01*
X143941243Y-110011636D01*
X143822997Y-110116391D01*
X143733262Y-110246396D01*
X143677245Y-110394101D01*
X143658203Y-110550920D01*
X137955049Y-110550920D01*
X137838441Y-110444618D01*
X137665038Y-110337252D01*
X137474857Y-110263576D01*
X137382956Y-110246397D01*
X137274376Y-110226100D01*
X137070424Y-110226100D01*
X136970183Y-110244838D01*
X136869942Y-110263576D01*
X136679761Y-110337252D01*
X136506358Y-110444618D01*
X136355636Y-110582019D01*
X136232724Y-110744781D01*
X136141818Y-110927348D01*
X136086002Y-111123516D01*
X136067185Y-111326600D01*
X135700900Y-111326600D01*
X135700900Y-108786600D01*
X136067185Y-108786600D01*
X136086002Y-108989683D01*
X136141818Y-109185851D01*
X136232724Y-109368418D01*
X136355636Y-109531180D01*
X136506358Y-109668581D01*
X136679761Y-109775947D01*
X136679763Y-109775948D01*
X136869944Y-109849624D01*
X137070424Y-109887100D01*
X137070426Y-109887100D01*
X137274374Y-109887100D01*
X137274376Y-109887100D01*
X137474856Y-109849624D01*
X137665037Y-109775948D01*
X137838441Y-109668581D01*
X137989164Y-109531179D01*
X138112073Y-109368421D01*
X138112073Y-109368419D01*
X138112075Y-109368418D01*
X138157713Y-109276761D01*
X138202982Y-109185850D01*
X138258797Y-108989683D01*
X138277615Y-108786600D01*
X153847185Y-108786600D01*
X153866002Y-108989683D01*
X153921818Y-109185851D01*
X154012724Y-109368418D01*
X154135636Y-109531180D01*
X154286358Y-109668581D01*
X154459761Y-109775947D01*
X154459763Y-109775948D01*
X154649944Y-109849624D01*
X154850424Y-109887100D01*
X154850426Y-109887100D01*
X155054374Y-109887100D01*
X155054376Y-109887100D01*
X155254856Y-109849624D01*
X155445037Y-109775948D01*
X155618441Y-109668581D01*
X155769164Y-109531179D01*
X155892073Y-109368421D01*
X155892073Y-109368419D01*
X155892075Y-109368418D01*
X155937713Y-109276761D01*
X155982982Y-109185850D01*
X156038797Y-108989683D01*
X156057615Y-108786600D01*
X156038797Y-108583517D01*
X155982982Y-108387350D01*
X155982609Y-108386601D01*
X155892075Y-108204781D01*
X155769163Y-108042019D01*
X155618441Y-107904618D01*
X155445038Y-107797252D01*
X155254857Y-107723576D01*
X155188029Y-107711083D01*
X155054376Y-107686100D01*
X154850424Y-107686100D01*
X154750183Y-107704838D01*
X154649942Y-107723576D01*
X154459761Y-107797252D01*
X154286358Y-107904618D01*
X154135636Y-108042019D01*
X154012724Y-108204781D01*
X153921818Y-108387348D01*
X153866002Y-108583516D01*
X153847185Y-108786600D01*
X138277615Y-108786600D01*
X138258797Y-108583517D01*
X138202982Y-108387350D01*
X138202609Y-108386601D01*
X138112075Y-108204781D01*
X137989163Y-108042019D01*
X137838441Y-107904618D01*
X137665038Y-107797252D01*
X137474857Y-107723576D01*
X137408029Y-107711083D01*
X137274376Y-107686100D01*
X137070424Y-107686100D01*
X136970183Y-107704838D01*
X136869942Y-107723576D01*
X136679761Y-107797252D01*
X136506358Y-107904618D01*
X136355636Y-108042019D01*
X136232724Y-108204781D01*
X136141818Y-108387348D01*
X136086002Y-108583516D01*
X136067185Y-108786600D01*
X135700900Y-108786600D01*
X135700900Y-106246599D01*
X136067185Y-106246599D01*
X136086002Y-106449683D01*
X136141818Y-106645851D01*
X136232724Y-106828418D01*
X136355636Y-106991180D01*
X136506358Y-107128581D01*
X136679761Y-107235947D01*
X136679763Y-107235948D01*
X136869944Y-107309624D01*
X137070424Y-107347100D01*
X137070426Y-107347100D01*
X137274374Y-107347100D01*
X137274376Y-107347100D01*
X137474856Y-107309624D01*
X137665037Y-107235948D01*
X137838441Y-107128581D01*
X137989164Y-106991179D01*
X138112073Y-106828421D01*
X138112073Y-106828419D01*
X138112075Y-106828418D01*
X138157713Y-106736761D01*
X138202982Y-106645850D01*
X138258797Y-106449683D01*
X138277615Y-106246600D01*
X138277615Y-106246599D01*
X153847185Y-106246599D01*
X153866002Y-106449683D01*
X153921818Y-106645851D01*
X154012724Y-106828418D01*
X154135636Y-106991180D01*
X154286358Y-107128581D01*
X154459761Y-107235947D01*
X154459763Y-107235948D01*
X154649944Y-107309624D01*
X154850424Y-107347100D01*
X154850426Y-107347100D01*
X155054374Y-107347100D01*
X155054376Y-107347100D01*
X155254856Y-107309624D01*
X155445037Y-107235948D01*
X155618441Y-107128581D01*
X155769164Y-106991179D01*
X155892073Y-106828421D01*
X155892073Y-106828419D01*
X155892075Y-106828418D01*
X155937713Y-106736761D01*
X155982982Y-106645850D01*
X156038797Y-106449683D01*
X156057615Y-106246600D01*
X156038797Y-106043517D01*
X155982982Y-105847350D01*
X155982609Y-105846601D01*
X155892075Y-105664781D01*
X155769163Y-105502019D01*
X155618441Y-105364618D01*
X155445038Y-105257252D01*
X155254857Y-105183576D01*
X155186125Y-105170728D01*
X155054376Y-105146100D01*
X154850424Y-105146100D01*
X154750183Y-105164838D01*
X154649942Y-105183576D01*
X154459761Y-105257252D01*
X154286358Y-105364618D01*
X154135636Y-105502019D01*
X154012724Y-105664781D01*
X153921818Y-105847348D01*
X153866002Y-106043516D01*
X153847185Y-106246599D01*
X138277615Y-106246599D01*
X138258797Y-106043517D01*
X138202982Y-105847350D01*
X138202609Y-105846601D01*
X138112075Y-105664781D01*
X137989163Y-105502019D01*
X137838441Y-105364618D01*
X137665038Y-105257252D01*
X137474857Y-105183576D01*
X137406125Y-105170728D01*
X137274376Y-105146100D01*
X137070424Y-105146100D01*
X136970183Y-105164838D01*
X136869942Y-105183576D01*
X136679761Y-105257252D01*
X136506358Y-105364618D01*
X136355636Y-105502019D01*
X136232724Y-105664781D01*
X136141818Y-105847348D01*
X136086002Y-106043516D01*
X136067185Y-106246599D01*
X135700900Y-106246599D01*
X135700900Y-103706600D01*
X136067185Y-103706600D01*
X136086002Y-103909683D01*
X136141818Y-104105851D01*
X136232724Y-104288418D01*
X136355636Y-104451180D01*
X136506358Y-104588581D01*
X136609459Y-104652418D01*
X136679763Y-104695948D01*
X136869944Y-104769624D01*
X137070424Y-104807100D01*
X137070426Y-104807100D01*
X137274374Y-104807100D01*
X137274376Y-104807100D01*
X137474856Y-104769624D01*
X137665037Y-104695948D01*
X137838441Y-104588581D01*
X137940436Y-104495600D01*
X143642121Y-104495600D01*
X143661163Y-104652418D01*
X143717180Y-104800123D01*
X143806915Y-104930128D01*
X143806916Y-104930129D01*
X143806917Y-104930130D01*
X143925160Y-105034883D01*
X144065035Y-105108296D01*
X144218415Y-105146100D01*
X144376385Y-105146100D01*
X144529765Y-105108296D01*
X144669640Y-105034883D01*
X144787883Y-104930130D01*
X144877620Y-104800123D01*
X144901863Y-104736199D01*
X148442721Y-104736199D01*
X148461763Y-104893018D01*
X148517780Y-105040723D01*
X148607515Y-105170728D01*
X148607516Y-105170729D01*
X148607517Y-105170730D01*
X148725760Y-105275483D01*
X148865635Y-105348896D01*
X149019015Y-105386700D01*
X149176985Y-105386700D01*
X149330365Y-105348896D01*
X149470240Y-105275483D01*
X149588483Y-105170730D01*
X149678220Y-105040723D01*
X149734237Y-104893018D01*
X149753278Y-104736200D01*
X149734237Y-104579382D01*
X149678220Y-104431677D01*
X149633351Y-104366673D01*
X149588484Y-104301671D01*
X149573524Y-104288418D01*
X149470240Y-104196917D01*
X149456994Y-104189964D01*
X149330364Y-104123503D01*
X149176985Y-104085700D01*
X149019015Y-104085700D01*
X148865635Y-104123503D01*
X148725761Y-104196916D01*
X148607515Y-104301671D01*
X148517780Y-104431676D01*
X148461763Y-104579381D01*
X148442721Y-104736199D01*
X144901863Y-104736199D01*
X144933637Y-104652418D01*
X144952678Y-104495600D01*
X144933637Y-104338782D01*
X144877620Y-104191077D01*
X144787883Y-104061070D01*
X144669640Y-103956317D01*
X144656394Y-103949364D01*
X144529764Y-103882903D01*
X144376385Y-103845100D01*
X144218415Y-103845100D01*
X144065035Y-103882903D01*
X143925161Y-103956316D01*
X143806915Y-104061071D01*
X143717180Y-104191076D01*
X143661163Y-104338781D01*
X143642121Y-104495600D01*
X137940436Y-104495600D01*
X137989164Y-104451179D01*
X138112073Y-104288421D01*
X138112073Y-104288419D01*
X138112075Y-104288418D01*
X138194191Y-104123504D01*
X138202982Y-104105850D01*
X138258797Y-103909683D01*
X138277615Y-103706600D01*
X153847185Y-103706600D01*
X153866002Y-103909683D01*
X153921818Y-104105851D01*
X154012724Y-104288418D01*
X154135636Y-104451180D01*
X154286358Y-104588581D01*
X154389459Y-104652418D01*
X154459763Y-104695948D01*
X154649944Y-104769624D01*
X154850424Y-104807100D01*
X154850426Y-104807100D01*
X155054374Y-104807100D01*
X155054376Y-104807100D01*
X155254856Y-104769624D01*
X155445037Y-104695948D01*
X155618441Y-104588581D01*
X155769164Y-104451179D01*
X155892073Y-104288421D01*
X155892073Y-104288419D01*
X155892075Y-104288418D01*
X155974191Y-104123504D01*
X155982982Y-104105850D01*
X156038797Y-103909683D01*
X156057615Y-103706600D01*
X156038797Y-103503517D01*
X155982982Y-103307350D01*
X155982609Y-103306601D01*
X155892075Y-103124781D01*
X155769163Y-102962019D01*
X155618441Y-102824618D01*
X155445038Y-102717252D01*
X155254857Y-102643576D01*
X155188029Y-102631083D01*
X155054376Y-102606100D01*
X154850424Y-102606100D01*
X154750183Y-102624838D01*
X154649942Y-102643576D01*
X154459761Y-102717252D01*
X154286358Y-102824618D01*
X154135636Y-102962019D01*
X154012724Y-103124781D01*
X153921818Y-103307348D01*
X153866002Y-103503516D01*
X153847185Y-103706600D01*
X138277615Y-103706600D01*
X138258797Y-103503517D01*
X138202982Y-103307350D01*
X138202609Y-103306601D01*
X138112075Y-103124781D01*
X137989163Y-102962019D01*
X137838441Y-102824618D01*
X137665038Y-102717252D01*
X137474857Y-102643576D01*
X137408029Y-102631083D01*
X137274376Y-102606100D01*
X137070424Y-102606100D01*
X136970183Y-102624838D01*
X136869942Y-102643576D01*
X136679761Y-102717252D01*
X136506358Y-102824618D01*
X136355636Y-102962019D01*
X136232724Y-103124781D01*
X136141818Y-103307348D01*
X136086002Y-103503516D01*
X136067185Y-103706600D01*
X135700900Y-103706600D01*
X135700900Y-102285800D01*
X148163321Y-102285800D01*
X148182363Y-102442618D01*
X148238380Y-102590323D01*
X148328115Y-102720328D01*
X148328116Y-102720329D01*
X148328117Y-102720330D01*
X148446360Y-102825083D01*
X148586235Y-102898496D01*
X148739615Y-102936300D01*
X148897585Y-102936300D01*
X149050965Y-102898496D01*
X149190840Y-102825083D01*
X149309083Y-102720330D01*
X149398820Y-102590323D01*
X149452006Y-102450081D01*
X149494184Y-102394379D01*
X149559781Y-102370322D01*
X149567948Y-102370053D01*
X149721217Y-102370053D01*
X149874597Y-102332249D01*
X150014472Y-102258836D01*
X150132715Y-102154083D01*
X150222452Y-102024076D01*
X150278469Y-101876371D01*
X150297510Y-101719553D01*
X150278469Y-101562735D01*
X150222452Y-101415030D01*
X150132715Y-101285023D01*
X150014472Y-101180270D01*
X149988426Y-101166600D01*
X149988424Y-101166599D01*
X153847185Y-101166599D01*
X153866002Y-101369683D01*
X153921818Y-101565851D01*
X154012724Y-101748418D01*
X154135636Y-101911180D01*
X154286358Y-102048581D01*
X154456751Y-102154083D01*
X154459763Y-102155948D01*
X154649944Y-102229624D01*
X154850424Y-102267100D01*
X154850426Y-102267100D01*
X155054374Y-102267100D01*
X155054376Y-102267100D01*
X155254856Y-102229624D01*
X155445037Y-102155948D01*
X155618441Y-102048581D01*
X155769164Y-101911179D01*
X155892073Y-101748421D01*
X155892073Y-101748419D01*
X155892075Y-101748418D01*
X155960513Y-101610974D01*
X155982982Y-101565850D01*
X156038797Y-101369683D01*
X156057615Y-101166600D01*
X156038797Y-100963517D01*
X155982982Y-100767350D01*
X155919910Y-100640683D01*
X155892075Y-100584781D01*
X155769163Y-100422019D01*
X155618441Y-100284618D01*
X155445038Y-100177252D01*
X155254857Y-100103576D01*
X155188029Y-100091083D01*
X155054376Y-100066100D01*
X154850424Y-100066100D01*
X154750183Y-100084838D01*
X154649942Y-100103576D01*
X154459761Y-100177252D01*
X154286358Y-100284618D01*
X154135636Y-100422019D01*
X154012724Y-100584781D01*
X153921818Y-100767348D01*
X153866002Y-100963516D01*
X153847185Y-101166599D01*
X149988424Y-101166599D01*
X149874596Y-101106856D01*
X149721217Y-101069053D01*
X149563247Y-101069053D01*
X149409867Y-101106856D01*
X149269993Y-101180269D01*
X149151747Y-101285024D01*
X149062011Y-101415030D01*
X149008825Y-101555271D01*
X148966647Y-101610974D01*
X148901049Y-101635031D01*
X148892883Y-101635300D01*
X148739615Y-101635300D01*
X148586235Y-101673103D01*
X148446361Y-101746516D01*
X148328115Y-101851271D01*
X148238380Y-101981276D01*
X148182363Y-102128981D01*
X148163321Y-102285800D01*
X135700900Y-102285800D01*
X135700900Y-101166599D01*
X136067185Y-101166599D01*
X136086002Y-101369683D01*
X136141818Y-101565851D01*
X136232724Y-101748418D01*
X136355636Y-101911180D01*
X136506358Y-102048581D01*
X136676751Y-102154083D01*
X136679763Y-102155948D01*
X136869944Y-102229624D01*
X137070424Y-102267100D01*
X137070426Y-102267100D01*
X137274374Y-102267100D01*
X137274376Y-102267100D01*
X137474856Y-102229624D01*
X137665037Y-102155948D01*
X137838441Y-102048581D01*
X137989164Y-101911179D01*
X138112073Y-101748421D01*
X138112073Y-101748419D01*
X138112075Y-101748418D01*
X138180513Y-101610974D01*
X138202982Y-101565850D01*
X138258797Y-101369683D01*
X138277615Y-101166600D01*
X138258797Y-100963517D01*
X138202982Y-100767350D01*
X138139910Y-100640683D01*
X138112075Y-100584781D01*
X137989163Y-100422019D01*
X137838441Y-100284618D01*
X137665038Y-100177252D01*
X137474857Y-100103576D01*
X137408029Y-100091083D01*
X137274376Y-100066100D01*
X137070424Y-100066100D01*
X136970183Y-100084838D01*
X136869942Y-100103576D01*
X136679761Y-100177252D01*
X136506358Y-100284618D01*
X136355636Y-100422019D01*
X136232724Y-100584781D01*
X136141818Y-100767348D01*
X136086002Y-100963516D01*
X136067185Y-101166599D01*
X135700900Y-101166599D01*
X135700900Y-98626599D01*
X136067185Y-98626599D01*
X136086002Y-98829683D01*
X136141818Y-99025851D01*
X136232724Y-99208418D01*
X136355636Y-99371180D01*
X136506358Y-99508581D01*
X136679761Y-99615947D01*
X136679763Y-99615948D01*
X136869944Y-99689624D01*
X137070424Y-99727100D01*
X137070426Y-99727100D01*
X137274374Y-99727100D01*
X137274376Y-99727100D01*
X137474856Y-99689624D01*
X137665037Y-99615948D01*
X137838441Y-99508581D01*
X137989164Y-99371179D01*
X138013163Y-99339399D01*
X139836121Y-99339399D01*
X139855163Y-99496218D01*
X139911180Y-99643923D01*
X140000915Y-99773928D01*
X140000916Y-99773929D01*
X140000917Y-99773930D01*
X140119160Y-99878683D01*
X140259035Y-99952096D01*
X140412415Y-99989900D01*
X140412729Y-99989900D01*
X140414371Y-99990382D01*
X140427033Y-99993503D01*
X140426895Y-99994059D01*
X140479768Y-100009585D01*
X140525523Y-100062389D01*
X140535825Y-100098953D01*
X140555163Y-100258218D01*
X140611180Y-100405923D01*
X140700915Y-100535928D01*
X140700916Y-100535929D01*
X140700917Y-100535930D01*
X140819160Y-100640683D01*
X140959035Y-100714096D01*
X141112415Y-100751900D01*
X141270385Y-100751900D01*
X141423765Y-100714096D01*
X141563640Y-100640683D01*
X141681883Y-100535930D01*
X141771620Y-100405923D01*
X141827637Y-100258218D01*
X141846678Y-100101400D01*
X141827637Y-99944582D01*
X141771620Y-99796877D01*
X141681883Y-99666870D01*
X141563640Y-99562117D01*
X141550394Y-99555165D01*
X141423764Y-99488703D01*
X141270385Y-99450900D01*
X141270071Y-99450900D01*
X141268428Y-99450417D01*
X141255767Y-99447297D01*
X141255904Y-99446740D01*
X141203032Y-99431215D01*
X141157277Y-99378411D01*
X141146975Y-99341847D01*
X141130774Y-99208421D01*
X141127637Y-99182582D01*
X141071620Y-99034877D01*
X140981883Y-98904870D01*
X140863640Y-98800117D01*
X140850394Y-98793164D01*
X140723764Y-98726703D01*
X140570385Y-98688900D01*
X140412415Y-98688900D01*
X140259035Y-98726703D01*
X140119161Y-98800116D01*
X140000915Y-98904871D01*
X139911180Y-99034876D01*
X139855163Y-99182581D01*
X139836121Y-99339399D01*
X138013163Y-99339399D01*
X138112073Y-99208421D01*
X138112073Y-99208419D01*
X138112075Y-99208418D01*
X138198487Y-99034877D01*
X138202982Y-99025850D01*
X138258797Y-98829683D01*
X138277615Y-98626600D01*
X153847185Y-98626600D01*
X153866002Y-98829683D01*
X153921818Y-99025851D01*
X154012724Y-99208418D01*
X154135636Y-99371180D01*
X154286358Y-99508581D01*
X154459761Y-99615947D01*
X154459763Y-99615948D01*
X154649944Y-99689624D01*
X154850424Y-99727100D01*
X154850426Y-99727100D01*
X155054374Y-99727100D01*
X155054376Y-99727100D01*
X155254856Y-99689624D01*
X155445037Y-99615948D01*
X155618441Y-99508581D01*
X155769164Y-99371179D01*
X155892073Y-99208421D01*
X155892073Y-99208419D01*
X155892075Y-99208418D01*
X155978487Y-99034877D01*
X155982982Y-99025850D01*
X156038797Y-98829683D01*
X156057615Y-98626600D01*
X156038797Y-98423517D01*
X155982982Y-98227350D01*
X155982609Y-98226601D01*
X155892075Y-98044781D01*
X155769163Y-97882019D01*
X155618441Y-97744618D01*
X155445038Y-97637252D01*
X155254857Y-97563576D01*
X155188029Y-97551083D01*
X155054376Y-97526100D01*
X154850424Y-97526100D01*
X154750183Y-97544838D01*
X154649942Y-97563576D01*
X154459761Y-97637252D01*
X154286358Y-97744618D01*
X154135636Y-97882019D01*
X154012724Y-98044781D01*
X153921818Y-98227348D01*
X153866002Y-98423516D01*
X153847185Y-98626600D01*
X138277615Y-98626600D01*
X138258797Y-98423517D01*
X138202982Y-98227350D01*
X138202609Y-98226601D01*
X138112075Y-98044781D01*
X137989163Y-97882019D01*
X137838441Y-97744618D01*
X137665038Y-97637252D01*
X137474857Y-97563576D01*
X137408029Y-97551083D01*
X137274376Y-97526100D01*
X137070424Y-97526100D01*
X136970183Y-97544838D01*
X136869942Y-97563576D01*
X136679761Y-97637252D01*
X136506358Y-97744618D01*
X136355636Y-97882019D01*
X136232724Y-98044781D01*
X136141818Y-98227348D01*
X136086002Y-98423516D01*
X136067185Y-98626599D01*
X135700900Y-98626599D01*
X135700900Y-96086600D01*
X136067185Y-96086600D01*
X136086002Y-96289683D01*
X136141818Y-96485851D01*
X136232724Y-96668418D01*
X136355636Y-96831180D01*
X136506358Y-96968581D01*
X136679761Y-97075947D01*
X136679763Y-97075948D01*
X136869944Y-97149624D01*
X137070424Y-97187100D01*
X137070426Y-97187100D01*
X137274374Y-97187100D01*
X137274376Y-97187100D01*
X137474856Y-97149624D01*
X137665037Y-97075948D01*
X137838441Y-96968581D01*
X137989164Y-96831179D01*
X138070706Y-96723200D01*
X140340121Y-96723200D01*
X140359163Y-96880018D01*
X140415180Y-97027723D01*
X140504915Y-97157728D01*
X140504916Y-97157729D01*
X140504917Y-97157730D01*
X140623160Y-97262483D01*
X140763035Y-97335896D01*
X140916415Y-97373700D01*
X141074385Y-97373700D01*
X141227765Y-97335896D01*
X141367640Y-97262483D01*
X141485883Y-97157730D01*
X141575620Y-97027723D01*
X141631637Y-96880018D01*
X141650678Y-96723200D01*
X141631637Y-96566382D01*
X141575620Y-96418677D01*
X141530751Y-96353673D01*
X141485884Y-96288671D01*
X141485883Y-96288670D01*
X141367640Y-96183917D01*
X141354394Y-96176964D01*
X141227764Y-96110503D01*
X141130782Y-96086600D01*
X153847185Y-96086600D01*
X153866002Y-96289683D01*
X153921818Y-96485851D01*
X154012724Y-96668418D01*
X154135636Y-96831180D01*
X154286358Y-96968581D01*
X154459761Y-97075947D01*
X154459763Y-97075948D01*
X154649944Y-97149624D01*
X154850424Y-97187100D01*
X154850426Y-97187100D01*
X155054374Y-97187100D01*
X155054376Y-97187100D01*
X155254856Y-97149624D01*
X155445037Y-97075948D01*
X155618441Y-96968581D01*
X155769164Y-96831179D01*
X155892073Y-96668421D01*
X155892073Y-96668419D01*
X155892075Y-96668418D01*
X155942883Y-96566381D01*
X155982982Y-96485850D01*
X156038797Y-96289683D01*
X156057615Y-96086600D01*
X156038797Y-95883517D01*
X155982982Y-95687350D01*
X155982609Y-95686601D01*
X155892075Y-95504781D01*
X155769163Y-95342019D01*
X155618441Y-95204618D01*
X155445038Y-95097252D01*
X155254857Y-95023576D01*
X155188029Y-95011083D01*
X155054376Y-94986100D01*
X154850424Y-94986100D01*
X154750183Y-95004838D01*
X154649942Y-95023576D01*
X154459761Y-95097252D01*
X154286358Y-95204618D01*
X154135636Y-95342019D01*
X154012724Y-95504781D01*
X153921818Y-95687348D01*
X153866002Y-95883516D01*
X153847185Y-96086600D01*
X141130782Y-96086600D01*
X141074385Y-96072700D01*
X140916415Y-96072700D01*
X140763035Y-96110503D01*
X140623161Y-96183916D01*
X140504915Y-96288671D01*
X140415180Y-96418676D01*
X140359163Y-96566381D01*
X140340121Y-96723200D01*
X138070706Y-96723200D01*
X138112073Y-96668421D01*
X138112073Y-96668419D01*
X138112075Y-96668418D01*
X138162883Y-96566381D01*
X138202982Y-96485850D01*
X138258797Y-96289683D01*
X138277615Y-96086600D01*
X138258797Y-95883517D01*
X138202982Y-95687350D01*
X138202609Y-95686601D01*
X138112075Y-95504781D01*
X137989163Y-95342019D01*
X137838441Y-95204618D01*
X137665038Y-95097252D01*
X137474857Y-95023576D01*
X137408029Y-95011083D01*
X137274376Y-94986100D01*
X137070424Y-94986100D01*
X136970183Y-95004838D01*
X136869942Y-95023576D01*
X136679761Y-95097252D01*
X136506358Y-95204618D01*
X136355636Y-95342019D01*
X136232724Y-95504781D01*
X136141818Y-95687348D01*
X136086002Y-95883516D01*
X136067185Y-96086600D01*
X135700900Y-96086600D01*
X135700900Y-93546599D01*
X136067185Y-93546599D01*
X136086002Y-93749683D01*
X136141818Y-93945851D01*
X136232724Y-94128418D01*
X136355636Y-94291180D01*
X136506358Y-94428581D01*
X136679761Y-94535947D01*
X136679763Y-94535948D01*
X136869944Y-94609624D01*
X137070424Y-94647100D01*
X137070426Y-94647100D01*
X137274374Y-94647100D01*
X137274376Y-94647100D01*
X137474856Y-94609624D01*
X137665037Y-94535948D01*
X137838441Y-94428581D01*
X137989164Y-94291179D01*
X138112073Y-94128421D01*
X138112073Y-94128419D01*
X138112075Y-94128418D01*
X138157713Y-94036761D01*
X138202982Y-93945850D01*
X138258797Y-93749683D01*
X138277615Y-93546600D01*
X138277615Y-93546599D01*
X153847185Y-93546599D01*
X153866002Y-93749683D01*
X153921818Y-93945851D01*
X154012724Y-94128418D01*
X154135636Y-94291180D01*
X154286358Y-94428581D01*
X154459761Y-94535947D01*
X154459763Y-94535948D01*
X154649944Y-94609624D01*
X154850424Y-94647100D01*
X154850426Y-94647100D01*
X155054374Y-94647100D01*
X155054376Y-94647100D01*
X155254856Y-94609624D01*
X155445037Y-94535948D01*
X155618441Y-94428581D01*
X155769164Y-94291179D01*
X155892073Y-94128421D01*
X155892073Y-94128419D01*
X155892075Y-94128418D01*
X155937713Y-94036761D01*
X155982982Y-93945850D01*
X156038797Y-93749683D01*
X156057615Y-93546600D01*
X156038797Y-93343517D01*
X155982982Y-93147350D01*
X155982609Y-93146601D01*
X155892075Y-92964781D01*
X155769163Y-92802019D01*
X155618441Y-92664618D01*
X155445038Y-92557252D01*
X155254857Y-92483576D01*
X155188029Y-92471083D01*
X155054376Y-92446100D01*
X154850424Y-92446100D01*
X154750183Y-92464838D01*
X154649942Y-92483576D01*
X154459761Y-92557252D01*
X154286358Y-92664618D01*
X154135636Y-92802019D01*
X154012724Y-92964781D01*
X153921818Y-93147348D01*
X153866002Y-93343516D01*
X153847185Y-93546599D01*
X138277615Y-93546599D01*
X138258797Y-93343517D01*
X138202982Y-93147350D01*
X138202609Y-93146601D01*
X138112075Y-92964781D01*
X137989163Y-92802019D01*
X137838441Y-92664618D01*
X137665038Y-92557252D01*
X137474857Y-92483576D01*
X137408029Y-92471083D01*
X137274376Y-92446100D01*
X137070424Y-92446100D01*
X136970183Y-92464838D01*
X136869942Y-92483576D01*
X136679761Y-92557252D01*
X136506358Y-92664618D01*
X136355636Y-92802019D01*
X136232724Y-92964781D01*
X136141818Y-93147348D01*
X136086002Y-93343516D01*
X136067185Y-93546599D01*
X135700900Y-93546599D01*
X135700900Y-91006600D01*
X136067185Y-91006600D01*
X136086002Y-91209683D01*
X136141818Y-91405851D01*
X136232724Y-91588418D01*
X136355636Y-91751180D01*
X136506358Y-91888581D01*
X136679761Y-91995947D01*
X136679763Y-91995948D01*
X136869944Y-92069624D01*
X137070424Y-92107100D01*
X137070426Y-92107100D01*
X137274374Y-92107100D01*
X137274376Y-92107100D01*
X137474856Y-92069624D01*
X137665037Y-91995948D01*
X137838441Y-91888581D01*
X137989164Y-91751179D01*
X138112073Y-91588421D01*
X138112073Y-91588419D01*
X138112075Y-91588418D01*
X138157713Y-91496761D01*
X138202982Y-91405850D01*
X138258797Y-91209683D01*
X138277615Y-91006600D01*
X138275410Y-90982800D01*
X141000521Y-90982800D01*
X141019563Y-91139618D01*
X141075580Y-91287323D01*
X141165315Y-91417328D01*
X141165316Y-91417329D01*
X141165317Y-91417330D01*
X141283560Y-91522083D01*
X141423435Y-91595496D01*
X141576815Y-91633300D01*
X141734785Y-91633300D01*
X141888165Y-91595496D01*
X142028040Y-91522083D01*
X142146283Y-91417330D01*
X142236020Y-91287323D01*
X142292037Y-91139618D01*
X142311078Y-90982800D01*
X142292037Y-90825982D01*
X142255180Y-90728799D01*
X151135121Y-90728799D01*
X151154163Y-90885618D01*
X151210180Y-91033323D01*
X151299915Y-91163328D01*
X151299916Y-91163329D01*
X151299917Y-91163330D01*
X151418160Y-91268083D01*
X151558035Y-91341496D01*
X151711415Y-91379300D01*
X151869385Y-91379300D01*
X152022765Y-91341496D01*
X152162640Y-91268083D01*
X152280883Y-91163330D01*
X152370620Y-91033323D01*
X152380755Y-91006599D01*
X153847185Y-91006599D01*
X153866002Y-91209683D01*
X153921818Y-91405851D01*
X154012724Y-91588418D01*
X154135636Y-91751180D01*
X154286358Y-91888581D01*
X154459761Y-91995947D01*
X154459763Y-91995948D01*
X154649944Y-92069624D01*
X154850424Y-92107100D01*
X154850426Y-92107100D01*
X155054374Y-92107100D01*
X155054376Y-92107100D01*
X155254856Y-92069624D01*
X155445037Y-91995948D01*
X155618441Y-91888581D01*
X155769164Y-91751179D01*
X155892073Y-91588421D01*
X155892073Y-91588419D01*
X155892075Y-91588418D01*
X155937713Y-91496761D01*
X155982982Y-91405850D01*
X156038797Y-91209683D01*
X156057615Y-91006600D01*
X156038797Y-90803517D01*
X155982982Y-90607350D01*
X155965371Y-90571982D01*
X155892075Y-90424781D01*
X155769163Y-90262019D01*
X155618441Y-90124618D01*
X155445038Y-90017252D01*
X155254857Y-89943576D01*
X155188029Y-89931083D01*
X155054376Y-89906100D01*
X154850424Y-89906100D01*
X154750183Y-89924838D01*
X154649942Y-89943576D01*
X154459761Y-90017252D01*
X154286358Y-90124618D01*
X154135636Y-90262019D01*
X154012724Y-90424781D01*
X153921818Y-90607348D01*
X153866002Y-90803516D01*
X153847185Y-91006599D01*
X152380755Y-91006599D01*
X152426637Y-90885618D01*
X152445678Y-90728800D01*
X152426637Y-90571982D01*
X152378716Y-90445624D01*
X152370620Y-90424276D01*
X152348920Y-90392839D01*
X152327037Y-90326485D01*
X152344502Y-90258833D01*
X152348920Y-90251960D01*
X152370620Y-90220523D01*
X152426637Y-90072818D01*
X152445678Y-89916000D01*
X152426637Y-89759182D01*
X152370620Y-89611477D01*
X152314121Y-89529624D01*
X152280884Y-89481471D01*
X152252073Y-89455947D01*
X152162640Y-89376717D01*
X152109032Y-89348581D01*
X152022764Y-89303303D01*
X151869385Y-89265500D01*
X151711415Y-89265500D01*
X151558035Y-89303303D01*
X151418161Y-89376716D01*
X151299915Y-89481471D01*
X151210180Y-89611476D01*
X151154163Y-89759181D01*
X151135121Y-89916000D01*
X151154163Y-90072818D01*
X151210180Y-90220523D01*
X151231879Y-90251960D01*
X151253762Y-90318315D01*
X151236296Y-90385967D01*
X151231879Y-90392840D01*
X151210180Y-90424276D01*
X151154163Y-90571981D01*
X151135121Y-90728799D01*
X142255180Y-90728799D01*
X142236020Y-90678277D01*
X142236020Y-90678276D01*
X142229237Y-90668450D01*
X142207354Y-90602096D01*
X142224819Y-90534444D01*
X142276087Y-90486974D01*
X142308493Y-90476124D01*
X142471656Y-90445624D01*
X142661837Y-90371948D01*
X142835241Y-90264581D01*
X142985964Y-90127179D01*
X143108873Y-89964421D01*
X143108873Y-89964419D01*
X143108875Y-89964418D01*
X143154513Y-89872761D01*
X143199782Y-89781850D01*
X143255597Y-89585683D01*
X143274415Y-89382600D01*
X143255597Y-89179517D01*
X143199782Y-88983350D01*
X143141275Y-88865851D01*
X143108875Y-88800781D01*
X142985963Y-88638019D01*
X142835241Y-88500618D01*
X142780300Y-88466600D01*
X153847185Y-88466600D01*
X153866002Y-88669683D01*
X153921818Y-88865851D01*
X154012724Y-89048418D01*
X154135636Y-89211180D01*
X154286358Y-89348581D01*
X154459761Y-89455947D01*
X154459763Y-89455948D01*
X154649944Y-89529624D01*
X154850424Y-89567100D01*
X154850426Y-89567100D01*
X155054374Y-89567100D01*
X155054376Y-89567100D01*
X155254856Y-89529624D01*
X155445037Y-89455948D01*
X155618441Y-89348581D01*
X155769164Y-89211179D01*
X155892073Y-89048421D01*
X155892073Y-89048419D01*
X155892075Y-89048418D01*
X155937713Y-88956761D01*
X155982982Y-88865850D01*
X156038797Y-88669683D01*
X156057615Y-88466600D01*
X156038797Y-88263517D01*
X155982982Y-88067350D01*
X155982609Y-88066601D01*
X155892075Y-87884781D01*
X155769163Y-87722019D01*
X155618441Y-87584618D01*
X155445038Y-87477252D01*
X155254857Y-87403576D01*
X155188029Y-87391083D01*
X155054376Y-87366100D01*
X154850424Y-87366100D01*
X154750183Y-87384838D01*
X154649942Y-87403576D01*
X154459761Y-87477252D01*
X154286358Y-87584618D01*
X154135636Y-87722019D01*
X154012724Y-87884781D01*
X153921818Y-88067348D01*
X153866002Y-88263516D01*
X153847185Y-88466600D01*
X142780300Y-88466600D01*
X142661838Y-88393252D01*
X142471657Y-88319576D01*
X142404829Y-88307083D01*
X142271176Y-88282100D01*
X142067224Y-88282100D01*
X141966983Y-88300838D01*
X141866742Y-88319576D01*
X141676561Y-88393252D01*
X141503158Y-88500618D01*
X141352436Y-88638019D01*
X141229524Y-88800781D01*
X141138618Y-88983348D01*
X141082802Y-89179516D01*
X141063985Y-89382600D01*
X141082802Y-89585683D01*
X141138618Y-89781851D01*
X141229524Y-89964418D01*
X141352434Y-90127177D01*
X141416729Y-90185790D01*
X141453010Y-90245502D01*
X141451249Y-90315349D01*
X141412005Y-90373157D01*
X141390817Y-90387223D01*
X141283561Y-90443516D01*
X141165315Y-90548271D01*
X141075580Y-90678276D01*
X141019563Y-90825981D01*
X141000521Y-90982800D01*
X138275410Y-90982800D01*
X138258797Y-90803517D01*
X138202982Y-90607350D01*
X138185371Y-90571982D01*
X138112075Y-90424781D01*
X137989163Y-90262019D01*
X137838441Y-90124618D01*
X137665038Y-90017252D01*
X137474857Y-89943576D01*
X137408029Y-89931083D01*
X137274376Y-89906100D01*
X137070424Y-89906100D01*
X136970183Y-89924838D01*
X136869942Y-89943576D01*
X136679761Y-90017252D01*
X136506358Y-90124618D01*
X136355636Y-90262019D01*
X136232724Y-90424781D01*
X136141818Y-90607348D01*
X136086002Y-90803516D01*
X136067185Y-91006600D01*
X135700900Y-91006600D01*
X135700900Y-88466600D01*
X136067185Y-88466600D01*
X136086002Y-88669683D01*
X136141818Y-88865851D01*
X136232724Y-89048418D01*
X136355636Y-89211180D01*
X136506358Y-89348581D01*
X136679761Y-89455947D01*
X136679763Y-89455948D01*
X136869944Y-89529624D01*
X137070424Y-89567100D01*
X137070426Y-89567100D01*
X137274374Y-89567100D01*
X137274376Y-89567100D01*
X137474856Y-89529624D01*
X137665037Y-89455948D01*
X137838441Y-89348581D01*
X137989164Y-89211179D01*
X138112073Y-89048421D01*
X138112073Y-89048419D01*
X138112075Y-89048418D01*
X138157713Y-88956761D01*
X138202982Y-88865850D01*
X138258797Y-88669683D01*
X138277615Y-88466600D01*
X138258797Y-88263517D01*
X138202982Y-88067350D01*
X138202609Y-88066601D01*
X138112075Y-87884781D01*
X137989163Y-87722019D01*
X137838441Y-87584618D01*
X137665038Y-87477252D01*
X137474857Y-87403576D01*
X137408029Y-87391083D01*
X137274376Y-87366100D01*
X137070424Y-87366100D01*
X136970183Y-87384838D01*
X136869942Y-87403576D01*
X136679761Y-87477252D01*
X136506358Y-87584618D01*
X136355636Y-87722019D01*
X136232724Y-87884781D01*
X136141818Y-88067348D01*
X136086002Y-88263516D01*
X136067185Y-88466600D01*
X135700900Y-88466600D01*
X135700900Y-85926599D01*
X136067185Y-85926599D01*
X136086002Y-86129683D01*
X136141818Y-86325851D01*
X136232724Y-86508418D01*
X136355636Y-86671180D01*
X136506358Y-86808581D01*
X136679761Y-86915947D01*
X136679763Y-86915948D01*
X136869944Y-86989624D01*
X137070424Y-87027100D01*
X137070426Y-87027100D01*
X137274374Y-87027100D01*
X137274376Y-87027100D01*
X137474856Y-86989624D01*
X137665037Y-86915948D01*
X137838441Y-86808581D01*
X137989164Y-86671179D01*
X138112073Y-86508421D01*
X138112073Y-86508419D01*
X138112075Y-86508418D01*
X138157713Y-86416761D01*
X138202982Y-86325850D01*
X138258797Y-86129683D01*
X138277615Y-85926600D01*
X138277615Y-85926599D01*
X153847185Y-85926599D01*
X153866002Y-86129683D01*
X153921818Y-86325851D01*
X154012724Y-86508418D01*
X154135636Y-86671180D01*
X154286358Y-86808581D01*
X154459761Y-86915947D01*
X154459763Y-86915948D01*
X154649944Y-86989624D01*
X154850424Y-87027100D01*
X154850426Y-87027100D01*
X155054374Y-87027100D01*
X155054376Y-87027100D01*
X155254856Y-86989624D01*
X155445037Y-86915948D01*
X155618441Y-86808581D01*
X155769164Y-86671179D01*
X155892073Y-86508421D01*
X155892073Y-86508419D01*
X155892075Y-86508418D01*
X155937713Y-86416761D01*
X155982982Y-86325850D01*
X156038797Y-86129683D01*
X156057615Y-85926600D01*
X156038797Y-85723517D01*
X155982982Y-85527350D01*
X155982609Y-85526601D01*
X155892075Y-85344781D01*
X155769163Y-85182019D01*
X155618441Y-85044618D01*
X155445038Y-84937252D01*
X155254857Y-84863576D01*
X155188029Y-84851083D01*
X155054376Y-84826100D01*
X154850424Y-84826100D01*
X154750183Y-84844838D01*
X154649942Y-84863576D01*
X154459761Y-84937252D01*
X154286358Y-85044618D01*
X154135636Y-85182019D01*
X154012724Y-85344781D01*
X153921818Y-85527348D01*
X153866002Y-85723516D01*
X153847185Y-85926599D01*
X138277615Y-85926599D01*
X138258797Y-85723517D01*
X138202982Y-85527350D01*
X138202609Y-85526601D01*
X138112075Y-85344781D01*
X137989163Y-85182019D01*
X137838441Y-85044618D01*
X137665038Y-84937252D01*
X137474857Y-84863576D01*
X137408029Y-84851083D01*
X137274376Y-84826100D01*
X137070424Y-84826100D01*
X136970183Y-84844838D01*
X136869942Y-84863576D01*
X136679761Y-84937252D01*
X136506358Y-85044618D01*
X136355636Y-85182019D01*
X136232724Y-85344781D01*
X136141818Y-85527348D01*
X136086002Y-85723516D01*
X136067185Y-85926599D01*
X135700900Y-85926599D01*
X135700900Y-83261199D01*
X150093721Y-83261199D01*
X150112763Y-83418018D01*
X150168780Y-83565723D01*
X150258515Y-83695728D01*
X150258516Y-83695729D01*
X150258517Y-83695730D01*
X150376760Y-83800483D01*
X150516635Y-83873896D01*
X150670015Y-83911700D01*
X150827985Y-83911700D01*
X150981365Y-83873896D01*
X151121240Y-83800483D01*
X151239483Y-83695730D01*
X151329220Y-83565723D01*
X151385237Y-83418018D01*
X151404278Y-83261200D01*
X151385237Y-83104382D01*
X151329220Y-82956677D01*
X151289987Y-82899839D01*
X151268105Y-82833486D01*
X151285570Y-82765834D01*
X151289984Y-82758965D01*
X151329220Y-82702123D01*
X151385237Y-82554418D01*
X151404278Y-82397600D01*
X151385237Y-82240782D01*
X151329220Y-82093077D01*
X151239483Y-81963070D01*
X151121240Y-81858317D01*
X150999344Y-81794340D01*
X150981364Y-81784903D01*
X150827985Y-81747100D01*
X150670015Y-81747100D01*
X150516635Y-81784903D01*
X150376761Y-81858316D01*
X150258515Y-81963071D01*
X150168780Y-82093076D01*
X150112763Y-82240781D01*
X150093721Y-82397599D01*
X150112763Y-82554418D01*
X150168780Y-82702125D01*
X150208011Y-82758961D01*
X150229894Y-82825315D01*
X150212428Y-82892967D01*
X150208011Y-82899839D01*
X150168780Y-82956674D01*
X150112763Y-83104381D01*
X150093721Y-83261199D01*
X135700900Y-83261199D01*
X135700900Y-81721274D01*
X136071900Y-81721274D01*
X136086433Y-81794338D01*
X136086433Y-81794339D01*
X136086434Y-81794340D01*
X136141799Y-81877201D01*
X136224660Y-81932566D01*
X136261192Y-81939832D01*
X136297725Y-81947100D01*
X136297726Y-81947100D01*
X138047075Y-81947100D01*
X138071429Y-81942255D01*
X138120140Y-81932566D01*
X138203001Y-81877201D01*
X138258366Y-81794340D01*
X138272900Y-81721274D01*
X153851900Y-81721274D01*
X153866433Y-81794338D01*
X153866433Y-81794339D01*
X153866434Y-81794340D01*
X153921799Y-81877201D01*
X154004660Y-81932566D01*
X154041192Y-81939832D01*
X154077725Y-81947100D01*
X154077726Y-81947100D01*
X155827075Y-81947100D01*
X155851429Y-81942255D01*
X155900140Y-81932566D01*
X155983001Y-81877201D01*
X156038366Y-81794340D01*
X156052900Y-81721274D01*
X156052900Y-79971926D01*
X156038366Y-79898860D01*
X155983001Y-79815999D01*
X155900140Y-79760634D01*
X155900139Y-79760633D01*
X155900138Y-79760633D01*
X155827075Y-79746100D01*
X155827074Y-79746100D01*
X154077726Y-79746100D01*
X154077725Y-79746100D01*
X154004661Y-79760633D01*
X153921799Y-79815999D01*
X153866433Y-79898861D01*
X153851900Y-79971925D01*
X153851900Y-81721274D01*
X138272900Y-81721274D01*
X138272900Y-79971926D01*
X138258366Y-79898860D01*
X138203001Y-79815999D01*
X138120140Y-79760634D01*
X138120139Y-79760633D01*
X138120138Y-79760633D01*
X138047075Y-79746100D01*
X138047074Y-79746100D01*
X136297726Y-79746100D01*
X136297725Y-79746100D01*
X136224661Y-79760633D01*
X136141799Y-79815999D01*
X136086433Y-79898861D01*
X136071900Y-79971925D01*
X136071900Y-81721274D01*
X135700900Y-81721274D01*
X135700900Y-78896009D01*
X135701372Y-78885204D01*
X135704882Y-78845084D01*
X135716878Y-78723279D01*
X135718661Y-78711258D01*
X135722281Y-78693062D01*
X135724112Y-78685208D01*
X135738832Y-78630272D01*
X135739931Y-78626424D01*
X135768209Y-78533205D01*
X135774470Y-78516840D01*
X135805715Y-78449835D01*
X135808711Y-78443845D01*
X135851881Y-78363080D01*
X135859651Y-78350430D01*
X135903215Y-78288215D01*
X135908913Y-78280705D01*
X135965872Y-78211301D01*
X135974024Y-78202306D01*
X136028106Y-78148224D01*
X136037101Y-78140072D01*
X136106505Y-78083113D01*
X136114015Y-78077415D01*
X136176230Y-78033851D01*
X136188880Y-78026081D01*
X136269645Y-77982911D01*
X136275635Y-77979915D01*
X136342640Y-77948670D01*
X136359016Y-77942405D01*
X136452224Y-77914131D01*
X136456072Y-77913032D01*
X136511008Y-77898312D01*
X136518876Y-77896478D01*
X136537047Y-77892863D01*
X136549082Y-77891078D01*
X136618546Y-77884236D01*
X136670826Y-77879087D01*
X136711042Y-77875568D01*
X136721799Y-77875100D01*
X155402989Y-77875100D01*
X155413794Y-77875571D01*
G37*
%TD.AperFunction*%
%TD*%
M02*
