M48
; DRILL file {KiCad 7.0.2-6a45011f42~172~ubuntu20.04.1} date Sun 23 Apr 2023 01:30:32 PM WIB
; FORMAT={-:-/ absolute / inch / decimal}
; #@! TF.CreationDate,2023-04-23T13:30:32+07:00
; #@! TF.GenerationSoftware,Kicad,Pcbnew,7.0.2-6a45011f42~172~ubuntu20.04.1
; #@! TF.FileFunction,Plated,1,4,PTH
FMAT,2
INCH
; #@! TA.AperFunction,Plated,PTH,ComponentDrill
T1C0.0118
; #@! TA.AperFunction,Plated,PTH,ViaDrill
T2C0.0157
; #@! TA.AperFunction,Plated,PTH,ComponentDrill
T3C0.0394
%
G90
G05
T1
X5.658Y-4.153
X5.658Y-4.1924
X5.658Y-4.2317
X5.658Y-4.2711
X5.658Y-4.3105
X5.7042Y-4.153
X5.7042Y-4.1924
X5.7042Y-4.2317
X5.7042Y-4.2711
X5.7042Y-4.3105
X5.7505Y-4.153
X5.7505Y-4.1924
X5.7505Y-4.2317
X5.7505Y-4.2711
X5.7505Y-4.3105
X5.7967Y-4.153
X5.7967Y-4.1924
X5.7967Y-4.2317
X5.7967Y-4.2711
X5.7967Y-4.3105
X5.843Y-4.153
X5.843Y-4.1924
X5.843Y-4.2317
X5.843Y-4.2711
X5.843Y-4.3105
T2
X5.366Y-3.333
X5.366Y-3.433
X5.366Y-3.533
X5.366Y-3.633
X5.366Y-3.733
X5.366Y-3.833
X5.366Y-3.933
X5.366Y-4.033
X5.366Y-4.133
X5.366Y-4.233
X5.366Y-4.333
X5.366Y-4.433
X5.366Y-4.533
X5.366Y-4.633
X5.366Y-4.733
X5.366Y-4.833
X5.366Y-4.933
X5.366Y-5.033
X5.366Y-5.133
X5.491Y-3.11
X5.491Y-3.231
X5.509Y-4.063
X5.521Y-4.457
X5.5312Y-3.911
X5.537Y-4.633
X5.545Y-4.85
X5.551Y-3.808
X5.5587Y-3.941
X5.577Y-3.582
X5.586Y-4.81
X5.597Y-3.893
X5.607Y-4.02
X5.623Y-4.549
X5.63Y-3.272
X5.633Y-3.199
X5.669Y-3.375
X5.681Y-4.114
X5.6816Y-4.3524
X5.695Y-3.488
X5.695Y-3.6303
X5.695Y-3.7727
X5.695Y-3.915
X5.717Y-4.925
X5.748Y-3.305
X5.751Y-5.069
X5.754Y-5.1523
X5.767Y-3.488
X5.767Y-3.6303
X5.767Y-3.7727
X5.767Y-3.915
X5.784Y-4.825
X5.799Y-4.613
X5.813Y-3.408
X5.849Y-3.704
X5.858Y-3.231
X5.859Y-4.027
X5.87Y-4.1235
X5.877Y-4.697
X5.8914Y-4.0047
X5.915Y-4.739
X5.925Y-4.403
X5.9344Y-4.5076
X5.935Y-3.244
X5.935Y-3.278
X5.948Y-4.566
X5.956Y-3.963
X5.965Y-4.963
X5.976Y-3.54
X5.976Y-3.572
X5.985Y-3.748
X6.002Y-3.11
X6.004Y-4.454
X6.033Y-3.316
X6.135Y-3.333
X6.135Y-3.433
X6.135Y-3.533
X6.135Y-3.633
X6.135Y-3.733
X6.135Y-3.833
X6.135Y-3.933
X6.135Y-4.033
X6.135Y-4.133
X6.135Y-4.233
X6.135Y-4.333
X6.135Y-4.433
X6.135Y-4.533
X6.135Y-4.633
X6.135Y-4.733
X6.135Y-4.833
X6.135Y-4.933
X6.135Y-5.033
X6.135Y-5.133
T3
X5.4005Y-3.1829
X5.4005Y-3.2829
X5.4005Y-3.3829
X5.4005Y-3.4829
X5.4005Y-3.5829
X5.4005Y-3.6829
X5.4005Y-3.7829
X5.4005Y-3.8829
X5.4005Y-3.9829
X5.4005Y-4.0829
X5.4005Y-4.1829
X5.4005Y-4.2829
X5.4005Y-4.3829
X5.4005Y-4.4829
X5.4005Y-4.5829
X5.4005Y-4.6829
X5.4005Y-4.7829
X5.4005Y-4.8829
X5.4005Y-4.9829
X5.4005Y-5.0829
X5.5972Y-3.419
X5.5972Y-3.519
X5.7003Y-4.672
X5.8003Y-4.672
X6.1005Y-3.1829
X6.1005Y-3.2829
X6.1005Y-3.3829
X6.1005Y-3.4829
X6.1005Y-3.5829
X6.1005Y-3.6829
X6.1005Y-3.7829
X6.1005Y-3.8829
X6.1005Y-3.9829
X6.1005Y-4.0829
X6.1005Y-4.1829
X6.1005Y-4.2829
X6.1005Y-4.3829
X6.1005Y-4.4829
X6.1005Y-4.5829
X6.1005Y-4.6829
X6.1005Y-4.7829
X6.1005Y-4.8829
X6.1005Y-4.9829
X6.1005Y-5.0829
T0
M30
