%TF.GenerationSoftware,KiCad,Pcbnew,7.0.2-6a45011f42~172~ubuntu20.04.1*%
%TF.CreationDate,2023-04-23T13:30:34+07:00*%
%TF.ProjectId,EZ-USB-FX2LP-micro,455a2d55-5342-42d4-9658-324c502d6d69,rev?*%
%TF.SameCoordinates,Original*%
%TF.FileFunction,Copper,L1,Top*%
%TF.FilePolarity,Positive*%
%FSLAX46Y46*%
G04 Gerber Fmt 4.6, Leading zero omitted, Abs format (unit mm)*
G04 Created by KiCad (PCBNEW 7.0.2-6a45011f42~172~ubuntu20.04.1) date 2023-04-23 13:30:34*
%MOMM*%
%LPD*%
G01*
G04 APERTURE LIST*
G04 Aperture macros list*
%AMRoundRect*
0 Rectangle with rounded corners*
0 $1 Rounding radius*
0 $2 $3 $4 $5 $6 $7 $8 $9 X,Y pos of 4 corners*
0 Add a 4 corners polygon primitive as box body*
4,1,4,$2,$3,$4,$5,$6,$7,$8,$9,$2,$3,0*
0 Add four circle primitives for the rounded corners*
1,1,$1+$1,$2,$3*
1,1,$1+$1,$4,$5*
1,1,$1+$1,$6,$7*
1,1,$1+$1,$8,$9*
0 Add four rect primitives between the rounded corners*
20,1,$1+$1,$2,$3,$4,$5,0*
20,1,$1+$1,$4,$5,$6,$7,0*
20,1,$1+$1,$6,$7,$8,$9,0*
20,1,$1+$1,$8,$9,$2,$3,0*%
G04 Aperture macros list end*
%TA.AperFunction,SMDPad,CuDef*%
%ADD10RoundRect,0.150000X-0.150000X0.512500X-0.150000X-0.512500X0.150000X-0.512500X0.150000X0.512500X0*%
%TD*%
%TA.AperFunction,SMDPad,CuDef*%
%ADD11RoundRect,0.140000X0.140000X0.170000X-0.140000X0.170000X-0.140000X-0.170000X0.140000X-0.170000X0*%
%TD*%
%TA.AperFunction,SMDPad,CuDef*%
%ADD12RoundRect,0.135000X0.135000X0.185000X-0.135000X0.185000X-0.135000X-0.185000X0.135000X-0.185000X0*%
%TD*%
%TA.AperFunction,SMDPad,CuDef*%
%ADD13RoundRect,0.150000X-0.825000X-0.150000X0.825000X-0.150000X0.825000X0.150000X-0.825000X0.150000X0*%
%TD*%
%TA.AperFunction,SMDPad,CuDef*%
%ADD14RoundRect,0.243750X-0.243750X-0.456250X0.243750X-0.456250X0.243750X0.456250X-0.243750X0.456250X0*%
%TD*%
%TA.AperFunction,SMDPad,CuDef*%
%ADD15RoundRect,0.140000X-0.021213X0.219203X-0.219203X0.021213X0.021213X-0.219203X0.219203X-0.021213X0*%
%TD*%
%TA.AperFunction,SMDPad,CuDef*%
%ADD16RoundRect,0.140000X-0.170000X0.140000X-0.170000X-0.140000X0.170000X-0.140000X0.170000X0.140000X0*%
%TD*%
%TA.AperFunction,SMDPad,CuDef*%
%ADD17RoundRect,0.243750X0.243750X0.456250X-0.243750X0.456250X-0.243750X-0.456250X0.243750X-0.456250X0*%
%TD*%
%TA.AperFunction,SMDPad,CuDef*%
%ADD18RoundRect,0.140000X0.170000X-0.140000X0.170000X0.140000X-0.170000X0.140000X-0.170000X-0.140000X0*%
%TD*%
%TA.AperFunction,SMDPad,CuDef*%
%ADD19RoundRect,0.135000X0.185000X-0.135000X0.185000X0.135000X-0.185000X0.135000X-0.185000X-0.135000X0*%
%TD*%
%TA.AperFunction,SMDPad,CuDef*%
%ADD20R,1.050000X0.650000*%
%TD*%
%TA.AperFunction,SMDPad,CuDef*%
%ADD21RoundRect,0.062500X-0.062500X0.375000X-0.062500X-0.375000X0.062500X-0.375000X0.062500X0.375000X0*%
%TD*%
%TA.AperFunction,SMDPad,CuDef*%
%ADD22RoundRect,0.062500X-0.375000X0.062500X-0.375000X-0.062500X0.375000X-0.062500X0.375000X0.062500X0*%
%TD*%
%TA.AperFunction,ComponentPad*%
%ADD23C,0.500000*%
%TD*%
%TA.AperFunction,SMDPad,CuDef*%
%ADD24RoundRect,0.252000X-2.348000X1.998000X-2.348000X-1.998000X2.348000X-1.998000X2.348000X1.998000X0*%
%TD*%
%TA.AperFunction,SMDPad,CuDef*%
%ADD25RoundRect,0.225000X0.250000X-0.225000X0.250000X0.225000X-0.250000X0.225000X-0.250000X-0.225000X0*%
%TD*%
%TA.AperFunction,SMDPad,CuDef*%
%ADD26R,0.400000X1.400000*%
%TD*%
%TA.AperFunction,SMDPad,CuDef*%
%ADD27R,2.300000X1.900000*%
%TD*%
%TA.AperFunction,SMDPad,CuDef*%
%ADD28R,1.800000X1.900000*%
%TD*%
%TA.AperFunction,SMDPad,CuDef*%
%ADD29RoundRect,0.237500X0.300000X0.237500X-0.300000X0.237500X-0.300000X-0.237500X0.300000X-0.237500X0*%
%TD*%
%TA.AperFunction,SMDPad,CuDef*%
%ADD30RoundRect,0.140000X-0.140000X-0.170000X0.140000X-0.170000X0.140000X0.170000X-0.140000X0.170000X0*%
%TD*%
%TA.AperFunction,ComponentPad*%
%ADD31R,1.700000X1.700000*%
%TD*%
%TA.AperFunction,ComponentPad*%
%ADD32O,1.700000X1.700000*%
%TD*%
%TA.AperFunction,SMDPad,CuDef*%
%ADD33RoundRect,0.140000X0.219203X0.021213X0.021213X0.219203X-0.219203X-0.021213X-0.021213X-0.219203X0*%
%TD*%
%TA.AperFunction,SMDPad,CuDef*%
%ADD34R,1.400000X1.200000*%
%TD*%
%TA.AperFunction,ViaPad*%
%ADD35C,0.800000*%
%TD*%
%TA.AperFunction,Conductor*%
%ADD36C,0.250000*%
%TD*%
%TA.AperFunction,Conductor*%
%ADD37C,0.600000*%
%TD*%
%TA.AperFunction,Conductor*%
%ADD38C,0.500000*%
%TD*%
%TA.AperFunction,Conductor*%
%ADD39C,0.400000*%
%TD*%
%TA.AperFunction,Conductor*%
%ADD40C,0.800000*%
%TD*%
%TA.AperFunction,Conductor*%
%ADD41C,0.150000*%
%TD*%
%TA.AperFunction,Conductor*%
%ADD42C,0.200000*%
%TD*%
G04 APERTURE END LIST*
D10*
%TO.P,U4,1,IN*%
%TO.N,+5V*%
X150762300Y-88016500D03*
%TO.P,U4,2,GND*%
%TO.N,GND*%
X149812300Y-88016500D03*
%TO.P,U4,3,EN*%
%TO.N,+5V*%
X148862300Y-88016500D03*
%TO.P,U4,4,BP*%
%TO.N,unconnected-(U4-BP-Pad4)*%
X148862300Y-90291500D03*
%TO.P,U4,5,OUT*%
%TO.N,+3V3*%
X150762300Y-90291500D03*
%TD*%
D11*
%TO.P,C1,1*%
%TO.N,GND*%
X150210400Y-100609400D03*
%TO.P,C1,2*%
%TO.N,Net-(U1-XTALOUT)*%
X149250400Y-100609400D03*
%TD*%
D12*
%TO.P,R2,1*%
%TO.N,+3V3*%
X151513000Y-125120400D03*
%TO.P,R2,2*%
%TO.N,Net-(J2-Pin_1)*%
X150493000Y-125120400D03*
%TD*%
D13*
%TO.P,U2,1,A0*%
%TO.N,Net-(U2-A0)*%
X143587400Y-121310400D03*
%TO.P,U2,2,A1*%
%TO.N,GND*%
X143587400Y-122580400D03*
%TO.P,U2,3,A2*%
X143587400Y-123850400D03*
%TO.P,U2,4,GND*%
X143587400Y-125120400D03*
%TO.P,U2,5,SDA*%
%TO.N,Net-(J2-Pin_1)*%
X148537400Y-125120400D03*
%TO.P,U2,6,SCL*%
%TO.N,/SCL*%
X148537400Y-123850400D03*
%TO.P,U2,7,WP*%
%TO.N,GND*%
X148537400Y-122580400D03*
%TO.P,U2,8,VCC*%
%TO.N,+3V3*%
X148537400Y-121310400D03*
%TD*%
D12*
%TO.P,R4,1*%
%TO.N,+3V3*%
X150762300Y-94132400D03*
%TO.P,R4,2*%
%TO.N,Net-(D1-A)*%
X149742300Y-94132400D03*
%TD*%
%TO.P,R9,1*%
%TO.N,Net-(U1-IFCLK)*%
X142673800Y-97891600D03*
%TO.P,R9,2*%
%TO.N,/IFCLK*%
X141653800Y-97891600D03*
%TD*%
D14*
%TO.P,D2,1,K*%
%TO.N,Net-(D2-K)*%
X141251700Y-93200600D03*
%TO.P,D2,2,A*%
%TO.N,Net-(D2-A)*%
X143126700Y-93200600D03*
%TD*%
D15*
%TO.P,C9,1*%
%TO.N,+3V3*%
X140665200Y-110236000D03*
%TO.P,C9,2*%
%TO.N,GND*%
X139986378Y-110914822D03*
%TD*%
D11*
%TO.P,C18,1*%
%TO.N,+3V3*%
X150762300Y-91694000D03*
%TO.P,C18,2*%
%TO.N,GND*%
X149802300Y-91694000D03*
%TD*%
D16*
%TO.P,C6,1*%
%TO.N,+3V3*%
X144312400Y-112804000D03*
%TO.P,C6,2*%
%TO.N,GND*%
X144312400Y-113764000D03*
%TD*%
D17*
%TO.P,F1,1*%
%TO.N,+5V*%
X150744400Y-84632800D03*
%TO.P,F1,2*%
%TO.N,VBUS*%
X148869400Y-84632800D03*
%TD*%
D18*
%TO.P,C4,1*%
%TO.N,+3V3*%
X144312400Y-102207000D03*
%TO.P,C4,2*%
%TO.N,GND*%
X144312400Y-101247000D03*
%TD*%
D19*
%TO.P,R10,1*%
%TO.N,+3V3*%
X152501600Y-112295400D03*
%TO.P,R10,2*%
%TO.N,/WAKEUP*%
X152501600Y-111275400D03*
%TD*%
D20*
%TO.P,SW1,1,1*%
%TO.N,GND*%
X143987400Y-128719000D03*
X148137400Y-128719000D03*
%TO.P,SW1,2,2*%
%TO.N,/~{RESET}*%
X143987400Y-130869000D03*
X148112400Y-130869000D03*
%TD*%
D21*
%TO.P,U1,1,RDY0/SLRD*%
%TO.N,/RDY0*%
X149312400Y-103548700D03*
%TO.P,U1,2,RDY1/SLWR*%
%TO.N,/RDY1*%
X148812400Y-103548700D03*
%TO.P,U1,3,AVCC*%
%TO.N,+3V3*%
X148312400Y-103548700D03*
%TO.P,U1,4,XTALOUT*%
%TO.N,Net-(U1-XTALOUT)*%
X147812400Y-103548700D03*
%TO.P,U1,5,XTALIN*%
%TO.N,Net-(U1-XTALIN)*%
X147312400Y-103548700D03*
%TO.P,U1,6,AGND*%
%TO.N,GND*%
X146812400Y-103548700D03*
%TO.P,U1,7,AVCC*%
%TO.N,+3V3*%
X146312400Y-103548700D03*
%TO.P,U1,8,D+*%
%TO.N,/D+*%
X145812400Y-103548700D03*
%TO.P,U1,9,D-*%
%TO.N,/D-*%
X145312400Y-103548700D03*
%TO.P,U1,10,AGND*%
%TO.N,GND*%
X144812400Y-103548700D03*
%TO.P,U1,11,VCC*%
%TO.N,+3V3*%
X144312400Y-103548700D03*
%TO.P,U1,12,GND*%
%TO.N,GND*%
X143812400Y-103548700D03*
%TO.P,U1,13,IFCLK*%
%TO.N,Net-(U1-IFCLK)*%
X143312400Y-103548700D03*
%TO.P,U1,14,RESERVED*%
%TO.N,GND*%
X142812400Y-103548700D03*
D22*
%TO.P,U1,15,SCL*%
%TO.N,/SCL*%
X142124900Y-104236200D03*
%TO.P,U1,16,SDA*%
%TO.N,/SDA*%
X142124900Y-104736200D03*
%TO.P,U1,17,VCC*%
%TO.N,+3V3*%
X142124900Y-105236200D03*
%TO.P,U1,18,PB0/FD0*%
%TO.N,/PB0*%
X142124900Y-105736200D03*
%TO.P,U1,19,PB1/FD1*%
%TO.N,/PB1*%
X142124900Y-106236200D03*
%TO.P,U1,20,PB2/FD2*%
%TO.N,/PB2*%
X142124900Y-106736200D03*
%TO.P,U1,21,PB3/FD3*%
%TO.N,/PB3*%
X142124900Y-107236200D03*
%TO.P,U1,22,PB4/FD4*%
%TO.N,/PB4*%
X142124900Y-107736200D03*
%TO.P,U1,23,PB5/FD5*%
%TO.N,/PB5*%
X142124900Y-108236200D03*
%TO.P,U1,24,PB6/FD6*%
%TO.N,/PB6*%
X142124900Y-108736200D03*
%TO.P,U1,25,PB7/FD7*%
%TO.N,/PB7*%
X142124900Y-109236200D03*
%TO.P,U1,26,GND*%
%TO.N,GND*%
X142124900Y-109736200D03*
%TO.P,U1,27,VCC*%
%TO.N,+3V3*%
X142124900Y-110236200D03*
%TO.P,U1,28,GND*%
%TO.N,GND*%
X142124900Y-110736200D03*
D21*
%TO.P,U1,29,CTL0/FLAGA*%
%TO.N,/CTL0*%
X142812400Y-111423700D03*
%TO.P,U1,30,CTL1/FLAGB*%
%TO.N,/CTL1*%
X143312400Y-111423700D03*
%TO.P,U1,31,CTL2/FLAGC*%
%TO.N,/CTL2*%
X143812400Y-111423700D03*
%TO.P,U1,32,VCC*%
%TO.N,+3V3*%
X144312400Y-111423700D03*
%TO.P,U1,33,PA0/~{INT0}*%
%TO.N,/PA0*%
X144812400Y-111423700D03*
%TO.P,U1,34,PA1/~{INT1}*%
%TO.N,/PA1*%
X145312400Y-111423700D03*
%TO.P,U1,35,PA2/SLOE*%
%TO.N,/PA2*%
X145812400Y-111423700D03*
%TO.P,U1,36,PA3/WU2*%
%TO.N,/PA3*%
X146312400Y-111423700D03*
%TO.P,U1,37,PA4/FIOADDR0*%
%TO.N,/PA4*%
X146812400Y-111423700D03*
%TO.P,U1,38,PA5/FIOADDR1*%
%TO.N,/PA5*%
X147312400Y-111423700D03*
%TO.P,U1,39,PA6/PKTEND*%
%TO.N,/PA6*%
X147812400Y-111423700D03*
%TO.P,U1,40,PA7/FLAGD/~{SLCS}*%
%TO.N,/PA7*%
X148312400Y-111423700D03*
%TO.P,U1,41,GND*%
%TO.N,GND*%
X148812400Y-111423700D03*
%TO.P,U1,42,~{RESET}*%
%TO.N,/~{RESET}*%
X149312400Y-111423700D03*
D22*
%TO.P,U1,43,VCC*%
%TO.N,+3V3*%
X149999900Y-110736200D03*
%TO.P,U1,44,WAKEUP*%
%TO.N,/WAKEUP*%
X149999900Y-110236200D03*
%TO.P,U1,45,PD0/FD8*%
%TO.N,/PD0*%
X149999900Y-109736200D03*
%TO.P,U1,46,PD1/FD9*%
%TO.N,/PD1*%
X149999900Y-109236200D03*
%TO.P,U1,47,PD2/FD10*%
%TO.N,/PD2*%
X149999900Y-108736200D03*
%TO.P,U1,48,PD3/FD11*%
%TO.N,/PD3*%
X149999900Y-108236200D03*
%TO.P,U1,49,PD4/FD12*%
%TO.N,/PD4*%
X149999900Y-107736200D03*
%TO.P,U1,50,PD5/FD13*%
%TO.N,/PD5*%
X149999900Y-107236200D03*
%TO.P,U1,51,PD6/FD14*%
%TO.N,/PD6*%
X149999900Y-106736200D03*
%TO.P,U1,52,PD7/FD15*%
%TO.N,/PD7*%
X149999900Y-106236200D03*
%TO.P,U1,53,GND*%
%TO.N,GND*%
X149999900Y-105736200D03*
%TO.P,U1,54,CLKOUT*%
%TO.N,Net-(U1-CLKOUT)*%
X149999900Y-105236200D03*
%TO.P,U1,55,VCC*%
%TO.N,+3V3*%
X149999900Y-104736200D03*
%TO.P,U1,56,GND*%
%TO.N,GND*%
X149999900Y-104236200D03*
D23*
%TO.P,U1,57,EP*%
X148412400Y-105486200D03*
X147237400Y-105486200D03*
X146062400Y-105486200D03*
X144887400Y-105486200D03*
X143712400Y-105486200D03*
X148412400Y-106486200D03*
X147237400Y-106486200D03*
X146062400Y-106486200D03*
X144887400Y-106486200D03*
X143712400Y-106486200D03*
X148412400Y-107486200D03*
X147237400Y-107486200D03*
X146062400Y-107486200D03*
D24*
X146062400Y-107486200D03*
D23*
X144887400Y-107486200D03*
X143712400Y-107486200D03*
X148412400Y-108486200D03*
X147237400Y-108486200D03*
X146062400Y-108486200D03*
X144887400Y-108486200D03*
X143712400Y-108486200D03*
X148412400Y-109486200D03*
X147237400Y-109486200D03*
X146062400Y-109486200D03*
X144887400Y-109486200D03*
X143712400Y-109486200D03*
%TD*%
D19*
%TO.P,R1,1*%
%TO.N,+3V3*%
X140843000Y-122330400D03*
%TO.P,R1,2*%
%TO.N,Net-(U2-A0)*%
X140843000Y-121310400D03*
%TD*%
D16*
%TO.P,C13,1*%
%TO.N,/~{RESET}*%
X148971000Y-112804000D03*
%TO.P,C13,2*%
%TO.N,GND*%
X148971000Y-113764000D03*
%TD*%
D25*
%TO.P,C15,1*%
%TO.N,+3V3*%
X151434800Y-103518000D03*
%TO.P,C15,2*%
%TO.N,GND*%
X151434800Y-101968000D03*
%TD*%
D26*
%TO.P,J5,1,VBUS*%
%TO.N,VBUS*%
X147362400Y-82479000D03*
%TO.P,J5,2,D-*%
%TO.N,/D-*%
X146712400Y-82479000D03*
%TO.P,J5,3,D+*%
%TO.N,/D+*%
X146062400Y-82479000D03*
%TO.P,J5,4,ID*%
%TO.N,GND*%
X145412400Y-82479000D03*
%TO.P,J5,5,GND*%
X144762400Y-82479000D03*
D27*
%TO.P,J5,6,Shield*%
X149812400Y-79629000D03*
D28*
X147212400Y-79629000D03*
X144912400Y-79629000D03*
D27*
X142312400Y-79629000D03*
%TD*%
D29*
%TO.P,C17,1*%
%TO.N,+5V*%
X150674800Y-86334600D03*
%TO.P,C17,2*%
%TO.N,GND*%
X148949800Y-86334600D03*
%TD*%
D12*
%TO.P,R6,1*%
%TO.N,Net-(D3-A)*%
X142679200Y-96723200D03*
%TO.P,R6,2*%
%TO.N,/PA1*%
X141659200Y-96723200D03*
%TD*%
D19*
%TO.P,R8,1*%
%TO.N,+3V3*%
X150037800Y-113794000D03*
%TO.P,R8,2*%
%TO.N,/~{RESET}*%
X150037800Y-112774000D03*
%TD*%
%TO.P,R7,1*%
%TO.N,Net-(U1-CLKOUT)*%
X152323800Y-100789200D03*
%TO.P,R7,2*%
%TO.N,/CLKOUT*%
X152323800Y-99769200D03*
%TD*%
D12*
%TO.P,R3,1*%
%TO.N,+3V3*%
X151513000Y-123850400D03*
%TO.P,R3,2*%
%TO.N,/SCL*%
X150493000Y-123850400D03*
%TD*%
D30*
%TO.P,C2,1*%
%TO.N,GND*%
X147190400Y-100609400D03*
%TO.P,C2,2*%
%TO.N,Net-(U1-XTALIN)*%
X148150400Y-100609400D03*
%TD*%
D31*
%TO.P,J2,1,Pin_1*%
%TO.N,Net-(J2-Pin_1)*%
X144787400Y-118668800D03*
D32*
%TO.P,J2,2,Pin_2*%
%TO.N,/SDA*%
X147327400Y-118668800D03*
%TD*%
D31*
%TO.P,J3,1,Pin_1*%
%TO.N,GND*%
X142169200Y-86842600D03*
D32*
%TO.P,J3,2,Pin_2*%
%TO.N,Net-(D2-K)*%
X142169200Y-89382600D03*
%TD*%
D33*
%TO.P,C7,1*%
%TO.N,+3V3*%
X140716000Y-104902000D03*
%TO.P,C7,2*%
%TO.N,GND*%
X140037178Y-104223178D03*
%TD*%
D16*
%TO.P,C8,1*%
%TO.N,+3V3*%
X151434800Y-111305400D03*
%TO.P,C8,2*%
%TO.N,GND*%
X151434800Y-112265400D03*
%TD*%
D14*
%TO.P,D3,1,K*%
%TO.N,Net-(D2-K)*%
X141251700Y-95250000D03*
%TO.P,D3,2,A*%
%TO.N,Net-(D3-A)*%
X143126700Y-95250000D03*
%TD*%
D12*
%TO.P,R5,1*%
%TO.N,Net-(D2-A)*%
X142679200Y-91694000D03*
%TO.P,R5,2*%
%TO.N,/PA0*%
X141659200Y-91694000D03*
%TD*%
D34*
%TO.P,Y1,1,1*%
%TO.N,Net-(U1-XTALIN)*%
X148150400Y-99275000D03*
%TO.P,Y1,2,2*%
%TO.N,GND*%
X150350400Y-99275000D03*
%TO.P,Y1,3,3*%
%TO.N,Net-(U1-XTALOUT)*%
X150350400Y-97575000D03*
%TO.P,Y1,4,4*%
%TO.N,GND*%
X148150400Y-97575000D03*
%TD*%
D16*
%TO.P,C14,1*%
%TO.N,VBUS*%
X147396200Y-84632800D03*
%TO.P,C14,2*%
%TO.N,GND*%
X147396200Y-85592800D03*
%TD*%
D29*
%TO.P,C19,1*%
%TO.N,+3V3*%
X150762300Y-92913200D03*
%TO.P,C19,2*%
%TO.N,GND*%
X149037300Y-92913200D03*
%TD*%
D16*
%TO.P,C3,1*%
%TO.N,+3V3*%
X150698200Y-121310400D03*
%TO.P,C3,2*%
%TO.N,GND*%
X150698200Y-122270400D03*
%TD*%
D14*
%TO.P,D1,1,K*%
%TO.N,GND*%
X148894800Y-95605600D03*
%TO.P,D1,2,A*%
%TO.N,Net-(D1-A)*%
X150769800Y-95605600D03*
%TD*%
D31*
%TO.P,J1,1,Pin_1*%
%TO.N,+5V*%
X137172400Y-80846600D03*
D32*
%TO.P,J1,2,Pin_2*%
%TO.N,GND*%
X137172400Y-83386600D03*
%TO.P,J1,3,Pin_3*%
%TO.N,+3V3*%
X137172400Y-85926600D03*
%TO.P,J1,4,Pin_4*%
%TO.N,/IFCLK*%
X137172400Y-88466600D03*
%TO.P,J1,5,Pin_5*%
%TO.N,/SCL*%
X137172400Y-91006600D03*
%TO.P,J1,6,Pin_6*%
%TO.N,/SDA*%
X137172400Y-93546600D03*
%TO.P,J1,7,Pin_7*%
%TO.N,/PB0*%
X137172400Y-96086600D03*
%TO.P,J1,8,Pin_8*%
%TO.N,/PB1*%
X137172400Y-98626600D03*
%TO.P,J1,9,Pin_9*%
%TO.N,/PB2*%
X137172400Y-101166600D03*
%TO.P,J1,10,Pin_10*%
%TO.N,/PB3*%
X137172400Y-103706600D03*
%TO.P,J1,11,Pin_11*%
%TO.N,/PB4*%
X137172400Y-106246600D03*
%TO.P,J1,12,Pin_12*%
%TO.N,/PB5*%
X137172400Y-108786600D03*
%TO.P,J1,13,Pin_13*%
%TO.N,/PB6*%
X137172400Y-111326600D03*
%TO.P,J1,14,Pin_14*%
%TO.N,/PB7*%
X137172400Y-113866600D03*
%TO.P,J1,15,Pin_15*%
%TO.N,/CTL0*%
X137172400Y-116406600D03*
%TO.P,J1,16,Pin_16*%
%TO.N,/CTL1*%
X137172400Y-118946600D03*
%TO.P,J1,17,Pin_17*%
%TO.N,/CTL2*%
X137172400Y-121486600D03*
%TO.P,J1,18,Pin_18*%
%TO.N,/PA0*%
X137172400Y-124026600D03*
%TO.P,J1,19,Pin_19*%
%TO.N,/PA1*%
X137172400Y-126566600D03*
%TO.P,J1,20,Pin_20*%
%TO.N,/PA2*%
X137172400Y-129106600D03*
%TD*%
D31*
%TO.P,J7,1,Pin_1*%
%TO.N,+5V*%
X154952400Y-80846600D03*
D32*
%TO.P,J7,2,Pin_2*%
%TO.N,GND*%
X154952400Y-83386600D03*
%TO.P,J7,3,Pin_3*%
%TO.N,+3V3*%
X154952400Y-85926600D03*
%TO.P,J7,4,Pin_4*%
%TO.N,/RDY1*%
X154952400Y-88466600D03*
%TO.P,J7,5,Pin_5*%
%TO.N,/RDY0*%
X154952400Y-91006600D03*
%TO.P,J7,6,Pin_6*%
%TO.N,/CLKOUT*%
X154952400Y-93546600D03*
%TO.P,J7,7,Pin_7*%
%TO.N,/PD7*%
X154952400Y-96086600D03*
%TO.P,J7,8,Pin_8*%
%TO.N,/PD6*%
X154952400Y-98626600D03*
%TO.P,J7,9,Pin_9*%
%TO.N,/PD5*%
X154952400Y-101166600D03*
%TO.P,J7,10,Pin_10*%
%TO.N,/PD4*%
X154952400Y-103706600D03*
%TO.P,J7,11,Pin_11*%
%TO.N,/PD3*%
X154952400Y-106246600D03*
%TO.P,J7,12,Pin_12*%
%TO.N,/PD2*%
X154952400Y-108786600D03*
%TO.P,J7,13,Pin_13*%
%TO.N,/PD1*%
X154952400Y-111326600D03*
%TO.P,J7,14,Pin_14*%
%TO.N,/PD0*%
X154952400Y-113866600D03*
%TO.P,J7,15,Pin_15*%
%TO.N,/~{RESET}*%
X154952400Y-116406600D03*
%TO.P,J7,16,Pin_16*%
%TO.N,/PA7*%
X154952400Y-118946600D03*
%TO.P,J7,17,Pin_17*%
%TO.N,/PA6*%
X154952400Y-121486600D03*
%TO.P,J7,18,Pin_18*%
%TO.N,/PA5*%
X154952400Y-124026600D03*
%TO.P,J7,19,Pin_19*%
%TO.N,/PA4*%
X154952400Y-126566600D03*
%TO.P,J7,20,Pin_20*%
%TO.N,/PA3*%
X154952400Y-129106600D03*
%TD*%
D35*
%TO.N,GND*%
X136296400Y-102438200D03*
X142417800Y-102108000D03*
X136296400Y-92278200D03*
X136296400Y-94818200D03*
X155829000Y-112598200D03*
X155829000Y-125298200D03*
X144653000Y-99441000D03*
X136296400Y-104978200D03*
X145999200Y-83947000D03*
X155829000Y-110058200D03*
X152019000Y-95199200D03*
X136296400Y-117678200D03*
X139928600Y-103200200D03*
X136296400Y-89738200D03*
X144653000Y-95825732D03*
X144653000Y-88595200D03*
X155829000Y-89738200D03*
X146481800Y-95825732D03*
X155829000Y-94818200D03*
X155829000Y-87198200D03*
X155829000Y-117678200D03*
X136296400Y-107518200D03*
X155829000Y-104978200D03*
X152450800Y-78994000D03*
X136296400Y-112598200D03*
X151282400Y-100660200D03*
X136296400Y-87198200D03*
X148564600Y-94081600D03*
X136296400Y-122758200D03*
X155829000Y-92278200D03*
X136296400Y-130378200D03*
X148793200Y-82067400D03*
X147650200Y-86563200D03*
X140639800Y-117678200D03*
X146913600Y-122555000D03*
X143078200Y-81254600D03*
X155829000Y-107518200D03*
X136296400Y-125298200D03*
X144653000Y-92210466D03*
X146481800Y-99441000D03*
X136296400Y-97358200D03*
X136296400Y-84658200D03*
X146075400Y-128752600D03*
X155829000Y-120218200D03*
X141884400Y-122174000D03*
X136296400Y-110058200D03*
X143992600Y-85725000D03*
X146481800Y-88595200D03*
X140233400Y-113207800D03*
X149275800Y-119303800D03*
X153238200Y-84226400D03*
X136296400Y-115138200D03*
X139471400Y-78994000D03*
X151079200Y-115976400D03*
X155829000Y-102438200D03*
X155829000Y-84658200D03*
X155829000Y-127838200D03*
X142824200Y-115544600D03*
X143002000Y-83108800D03*
X155829000Y-115138200D03*
X139471400Y-82067400D03*
X155829000Y-122758200D03*
X155829000Y-99898200D03*
X136296400Y-120218200D03*
X136296400Y-127838200D03*
X136296400Y-99898200D03*
X142163800Y-98882200D03*
X155829000Y-130378200D03*
X150495000Y-111836200D03*
X155829000Y-97358200D03*
X146481800Y-92210466D03*
X145211800Y-125095000D03*
%TO.N,+3V3*%
X140843000Y-123190000D03*
X144313482Y-110550920D03*
X152501600Y-113131600D03*
X144297400Y-104495600D03*
X151511000Y-126060200D03*
X151790400Y-89916000D03*
X151790400Y-90728800D03*
X149098000Y-104736200D03*
X150733001Y-114493799D03*
X150241000Y-120370600D03*
%TO.N,+5V*%
X150749000Y-83261200D03*
X150749000Y-82397600D03*
%TO.N,/~{RESET}*%
X146151600Y-130869000D03*
%TO.N,/SDA*%
X140491400Y-99339400D03*
%TO.N,/SCL*%
X147294600Y-117170200D03*
X141191400Y-100101400D03*
%TO.N,/PA0*%
X141655800Y-90982800D03*
%TO.N,/PA1*%
X140995400Y-96723200D03*
%TO.N,/RDY0*%
X149642232Y-101719553D03*
%TO.N,/RDY1*%
X148818600Y-102285800D03*
%TD*%
D36*
%TO.N,GND*%
X146481800Y-101523800D02*
X146481800Y-99441000D01*
D37*
X149812300Y-88016500D02*
X149812300Y-87197100D01*
D36*
X148812400Y-109886200D02*
X148412400Y-109486200D01*
X144812400Y-103548700D02*
X144812400Y-102736000D01*
X146812400Y-103548700D02*
X146812400Y-101854400D01*
X142812400Y-103548700D02*
X142812400Y-102909000D01*
X149999900Y-105736200D02*
X147812400Y-105736200D01*
X142124900Y-109736200D02*
X143462400Y-109736200D01*
X143462400Y-109736200D02*
X143712400Y-109486200D01*
X142812400Y-102909000D02*
X142417800Y-102514400D01*
X143812200Y-101247000D02*
X144312400Y-101247000D01*
X144808000Y-101247000D02*
X144312400Y-101247000D01*
D38*
X140037178Y-104223178D02*
X139928600Y-104114600D01*
D36*
X142417800Y-102514400D02*
X142417800Y-102108000D01*
X148812400Y-111423700D02*
X148812400Y-109886200D01*
X143812400Y-103548700D02*
X143812400Y-102689800D01*
X143611600Y-102489000D02*
X143611600Y-101447600D01*
X144987400Y-102561000D02*
X144987400Y-101426400D01*
X142124900Y-110736200D02*
X142124900Y-111316300D01*
D37*
X149812300Y-87197100D02*
X148949800Y-86334600D01*
D36*
X146812400Y-101854400D02*
X146481800Y-101523800D01*
X144812400Y-102736000D02*
X144987400Y-102561000D01*
X144987400Y-101426400D02*
X144808000Y-101247000D01*
X143812400Y-102689800D02*
X143611600Y-102489000D01*
X147812400Y-105736200D02*
X146062400Y-107486200D01*
D38*
X139928600Y-104114600D02*
X139928600Y-103200200D01*
D36*
X142124900Y-111316300D02*
X140233400Y-113207800D01*
X143611600Y-101447600D02*
X143812200Y-101247000D01*
%TO.N,Net-(U1-XTALOUT)*%
X150100400Y-97575000D02*
X150350400Y-97575000D01*
X147812400Y-102047400D02*
X149250400Y-100609400D01*
X147812400Y-103548700D02*
X147812400Y-102047400D01*
X149250400Y-100609400D02*
X149250400Y-98425000D01*
X149250400Y-98425000D02*
X150100400Y-97575000D01*
%TO.N,Net-(U1-XTALIN)*%
X147312400Y-101455009D02*
X148150400Y-100617009D01*
X148150400Y-100609400D02*
X148150400Y-99275000D01*
X148150400Y-100617009D02*
X148150400Y-100609400D01*
X147312400Y-103548700D02*
X147312400Y-101455009D01*
%TO.N,+3V3*%
X148312400Y-104134208D02*
X148312400Y-104544600D01*
X140843000Y-122330400D02*
X140843000Y-123190000D01*
X148496408Y-104736200D02*
X148308604Y-104548396D01*
X150698200Y-120827800D02*
X150241000Y-120370600D01*
X144312400Y-111423700D02*
X144312400Y-110552002D01*
X152501600Y-112295400D02*
X151511600Y-111305400D01*
X150865600Y-110736200D02*
X151434800Y-111305400D01*
X149999900Y-104736200D02*
X148496408Y-104736200D01*
X141050200Y-105236200D02*
X140716000Y-104902000D01*
X142769400Y-105236200D02*
X143510000Y-104495600D01*
D37*
X150762300Y-91694000D02*
X150762300Y-92913200D01*
D36*
X149999900Y-110736200D02*
X150865600Y-110736200D01*
X148312400Y-104134208D02*
X148312400Y-103548700D01*
X143510000Y-104495600D02*
X144297400Y-104495600D01*
X148103408Y-104343200D02*
X148312400Y-104134208D01*
X150698200Y-121310400D02*
X150698200Y-120827800D01*
X144312400Y-103548700D02*
X144312400Y-104480600D01*
D37*
X150762300Y-90291500D02*
X150762300Y-91694000D01*
D36*
X152501600Y-112295400D02*
X152501600Y-113131600D01*
X148308604Y-104548396D02*
X148103408Y-104343200D01*
X142124900Y-105236200D02*
X142769400Y-105236200D01*
X150762300Y-94132400D02*
X150762300Y-92913200D01*
X151513000Y-126058200D02*
X151511000Y-126060200D01*
X149999900Y-104736200D02*
X150991000Y-104736200D01*
X142124900Y-110236200D02*
X140665400Y-110236200D01*
X142124900Y-105236200D02*
X141050200Y-105236200D01*
X151511600Y-111305400D02*
X151434800Y-111305400D01*
X150037800Y-113794000D02*
X150037800Y-113798598D01*
X151513000Y-123850400D02*
X151513000Y-125120400D01*
X144312400Y-104480600D02*
X144297400Y-104495600D01*
X140665400Y-110236200D02*
X140665200Y-110236000D01*
X150991000Y-104736200D02*
X151434800Y-104292400D01*
X144312400Y-110552002D02*
X144313482Y-110550920D01*
X151434800Y-104292400D02*
X151434800Y-103518000D01*
X150698200Y-121310400D02*
X148537400Y-121310400D01*
X148312400Y-104544600D02*
X148308604Y-104548396D01*
X144312400Y-112804000D02*
X144312400Y-111423700D01*
X144312400Y-102207000D02*
X144312400Y-103548700D01*
X146621392Y-104343200D02*
X148103408Y-104343200D01*
X142124900Y-110236200D02*
X143998762Y-110236200D01*
X143998762Y-110236200D02*
X144313482Y-110550920D01*
X146312400Y-104034208D02*
X146621392Y-104343200D01*
X146312400Y-103548700D02*
X146312400Y-104034208D01*
X150037800Y-113798598D02*
X150733001Y-114493799D01*
X151513000Y-125120400D02*
X151513000Y-126058200D01*
D39*
%TO.N,+5V*%
X150744400Y-85568000D02*
X150749000Y-85572600D01*
D40*
X152300000Y-80846600D02*
X154952400Y-80846600D01*
X150749000Y-84628200D02*
X150744400Y-84632800D01*
D36*
X150136051Y-89027000D02*
X150762300Y-88400751D01*
X150762300Y-88400751D02*
X150762300Y-88016500D01*
X149488549Y-89027000D02*
X150136051Y-89027000D01*
D39*
X150744400Y-86265000D02*
X150674800Y-86334600D01*
D37*
X150762300Y-88016500D02*
X150762300Y-86422100D01*
D40*
X150749000Y-82397600D02*
X150749000Y-84628200D01*
D37*
X150762300Y-86422100D02*
X150674800Y-86334600D01*
D36*
X148862300Y-88016500D02*
X148862300Y-88400751D01*
D40*
X150749000Y-82397600D02*
X152300000Y-80846600D01*
D39*
X150749000Y-85572600D02*
X150744400Y-85577200D01*
X150744400Y-85577200D02*
X150744400Y-86265000D01*
D36*
X148862300Y-88400751D02*
X149488549Y-89027000D01*
D39*
X150744400Y-84632800D02*
X150744400Y-85568000D01*
D36*
%TO.N,/~{RESET}*%
X150007800Y-112804000D02*
X150037800Y-112774000D01*
X148971000Y-112395000D02*
X148971000Y-112804000D01*
X150037800Y-112774000D02*
X153670400Y-116406600D01*
X148971000Y-112804000D02*
X150007800Y-112804000D01*
X149312400Y-111423700D02*
X149312400Y-112053600D01*
X153670400Y-116406600D02*
X154952400Y-116406600D01*
X149312400Y-112053600D02*
X148971000Y-112395000D01*
X143987400Y-130869000D02*
X148112400Y-130869000D01*
%TO.N,Net-(D1-A)*%
X149742300Y-94578100D02*
X150769800Y-95605600D01*
X149742300Y-94132400D02*
X149742300Y-94578100D01*
%TO.N,Net-(D2-K)*%
X141251700Y-93200600D02*
X140930800Y-92879700D01*
X141251700Y-95250000D02*
X141251700Y-93200600D01*
X141251700Y-93200600D02*
X141251700Y-93294200D01*
X140930800Y-92879700D02*
X140930800Y-90621000D01*
X140930800Y-90621000D02*
X142169200Y-89382600D01*
%TO.N,Net-(D2-A)*%
X143126700Y-92141500D02*
X142679200Y-91694000D01*
X143126700Y-93200600D02*
X143126700Y-92141500D01*
%TO.N,Net-(D3-A)*%
X143126700Y-96275700D02*
X142679200Y-96723200D01*
X143126700Y-95250000D02*
X143126700Y-96275700D01*
D39*
%TO.N,VBUS*%
X147362400Y-84599000D02*
X147396200Y-84632800D01*
X147362400Y-82479000D02*
X147362400Y-84599000D01*
X147396200Y-84632800D02*
X148869400Y-84632800D01*
D41*
%TO.N,/D-*%
X145387400Y-102817449D02*
X145312400Y-102892449D01*
X145929616Y-80992235D02*
X144443184Y-80992235D01*
X144034293Y-84718781D02*
X145153086Y-85837574D01*
X144089630Y-81138682D02*
X143887846Y-81340466D01*
X146712400Y-82479000D02*
X146712400Y-81979000D01*
X146415953Y-81271465D02*
X146283169Y-81138681D01*
X146712400Y-81979000D02*
X146562400Y-81829000D01*
X145387400Y-86403259D02*
X145387400Y-102817449D01*
X146562400Y-81829000D02*
X146562400Y-81625019D01*
X143741400Y-81694019D02*
X143741400Y-84011674D01*
X145312400Y-102892449D02*
X145312400Y-103548700D01*
X143741419Y-84011674D02*
G75*
G03*
X144034294Y-84718780I999981J-26D01*
G01*
X143887837Y-81340457D02*
G75*
G03*
X143741400Y-81694019I353563J-353543D01*
G01*
X146283154Y-81138696D02*
G75*
G03*
X145929616Y-80992235I-353554J-353504D01*
G01*
X145387429Y-86403259D02*
G75*
G03*
X145153086Y-85837574I-800029J-41D01*
G01*
X146562386Y-81625019D02*
G75*
G03*
X146415952Y-81271466I-499986J19D01*
G01*
X144443184Y-80992214D02*
G75*
G03*
X144089631Y-81138683I16J-499986D01*
G01*
%TO.N,/D+*%
X145425375Y-84879218D02*
X145269671Y-85034919D01*
X144293185Y-81430103D02*
X144179268Y-81544020D01*
X145269672Y-85459184D02*
X145444507Y-85634019D01*
X145867483Y-81342235D02*
X144505317Y-81342235D01*
X145737400Y-102817449D02*
X145812400Y-102892449D01*
X144325715Y-84515227D02*
X144421144Y-84610656D01*
X144845409Y-84610655D02*
X144845408Y-84610656D01*
X144091400Y-81756152D02*
X144091400Y-83949541D01*
X145812400Y-102892449D02*
X145812400Y-103548700D01*
X146212400Y-81829000D02*
X146212400Y-81687152D01*
X146062400Y-81979000D02*
X146212400Y-81829000D01*
X146124532Y-81475020D02*
X146079615Y-81430103D01*
X145737400Y-86341126D02*
X145737400Y-102817449D01*
X144845408Y-84610656D02*
X145001111Y-84454954D01*
X146062400Y-82479000D02*
X146062400Y-81979000D01*
X145425374Y-84879219D02*
X145425375Y-84879218D01*
X145269671Y-85459183D02*
X145269672Y-85459184D01*
X144505317Y-81342237D02*
G75*
G03*
X144293185Y-81430103I-17J-299963D01*
G01*
X145737381Y-86341126D02*
G75*
G03*
X145444506Y-85634020I-999981J26D01*
G01*
X145269720Y-85034968D02*
G75*
G03*
X145269671Y-85459183I212080J-212132D01*
G01*
X144421169Y-84610631D02*
G75*
G03*
X144845408Y-84610654I212131J212131D01*
G01*
X146079616Y-81430102D02*
G75*
G03*
X145867483Y-81342235I-212116J-212098D01*
G01*
X144179292Y-81544044D02*
G75*
G03*
X144091400Y-81756152I212108J-212156D01*
G01*
X145425374Y-84454955D02*
G75*
G03*
X145001112Y-84454955I-212131J-212131D01*
G01*
X145425388Y-84879233D02*
G75*
G03*
X145425375Y-84454954I-212188J212133D01*
G01*
X144091371Y-83949541D02*
G75*
G03*
X144325715Y-84515227I800029J41D01*
G01*
X146212433Y-81687152D02*
G75*
G03*
X146124531Y-81475021I-300033J-48D01*
G01*
D36*
%TO.N,Net-(J2-Pin_1)*%
X144787400Y-118668800D02*
X144787400Y-120301800D01*
X150493000Y-125120400D02*
X148537400Y-125120400D01*
X147243800Y-125120400D02*
X148537400Y-125120400D01*
X145625400Y-121139800D02*
X145625400Y-123502000D01*
X144787400Y-120301800D02*
X145625400Y-121139800D01*
X145625400Y-123502000D02*
X147243800Y-125120400D01*
D42*
%TO.N,/SDA*%
X140491400Y-99339400D02*
X140491400Y-98784600D01*
X140491400Y-98784600D02*
X139351600Y-97644800D01*
X140741400Y-100812600D02*
X140741400Y-104039796D01*
X140741400Y-104039796D02*
X141437804Y-104736200D01*
X139351600Y-95725800D02*
X137172400Y-93546600D01*
X140491400Y-99339400D02*
X140491400Y-100562600D01*
X141437804Y-104736200D02*
X142124900Y-104736200D01*
X139351600Y-97644800D02*
X139351600Y-95725800D01*
X140491400Y-100562600D02*
X140741400Y-100812600D01*
D36*
%TO.N,Net-(U2-A0)*%
X140843000Y-121310400D02*
X143587400Y-121310400D01*
%TO.N,/SCL*%
X146075400Y-117754400D02*
X146659600Y-117170200D01*
X146075400Y-123315604D02*
X146075400Y-117754400D01*
D42*
X142124900Y-104236200D02*
X141574200Y-104236200D01*
X141191400Y-98918914D02*
X139801600Y-97529114D01*
X139801600Y-97529114D02*
X139801600Y-93635800D01*
D36*
X150493000Y-123850400D02*
X148537400Y-123850400D01*
X146659600Y-117170200D02*
X147294600Y-117170200D01*
D42*
X141574200Y-104236200D02*
X141191400Y-103853400D01*
D36*
X146610196Y-123850400D02*
X146075400Y-123315604D01*
D42*
X141191400Y-103853400D02*
X141191400Y-98918914D01*
D36*
X148537400Y-123850400D02*
X146610196Y-123850400D01*
D42*
X139801600Y-93635800D02*
X137172400Y-91006600D01*
%TO.N,/PA0*%
X145084800Y-112644146D02*
X144812400Y-112371746D01*
X138912600Y-120980200D02*
X145084800Y-114808000D01*
D36*
X141659200Y-90986200D02*
X141655800Y-90982800D01*
D42*
X145084800Y-114808000D02*
X145084800Y-112644146D01*
X138912600Y-122286400D02*
X138912600Y-120980200D01*
X137172400Y-124026600D02*
X138912600Y-122286400D01*
X144812400Y-112371746D02*
X144812400Y-111423700D01*
D36*
X141659200Y-91694000D02*
X141659200Y-90986200D01*
D42*
%TO.N,/PA1*%
X137172400Y-126566600D02*
X139312600Y-124426400D01*
D36*
X141659200Y-96723200D02*
X140995400Y-96723200D01*
D42*
X139312600Y-121145885D02*
X145484800Y-114973685D01*
X145484800Y-112464800D02*
X145312400Y-112292400D01*
X145484800Y-114973685D02*
X145484800Y-112464800D01*
X139312600Y-124426400D02*
X139312600Y-121145885D01*
X145312400Y-112292400D02*
X145312400Y-111423700D01*
%TO.N,/PA2*%
X139877800Y-126401200D02*
X137172400Y-129106600D01*
X139877800Y-121183400D02*
X139877800Y-126401200D01*
X145812400Y-111423700D02*
X145812400Y-112208200D01*
X145884800Y-115176400D02*
X139877800Y-121183400D01*
X145884800Y-112280600D02*
X145884800Y-115176400D01*
X145812400Y-112208200D02*
X145884800Y-112280600D01*
%TO.N,/WAKEUP*%
X149999900Y-110236200D02*
X151462400Y-110236200D01*
X151462400Y-110236200D02*
X152501600Y-111275400D01*
D36*
%TO.N,/RDY0*%
X149432853Y-102696852D02*
X149642232Y-102487473D01*
X149312400Y-102817305D02*
X149432853Y-102696852D01*
X149642232Y-102487473D02*
X149642232Y-101719553D01*
X149312400Y-103548700D02*
X149312400Y-102817305D01*
%TO.N,/RDY1*%
X148812400Y-102292000D02*
X148818600Y-102285800D01*
X148812400Y-103548700D02*
X148812400Y-102292000D01*
D42*
%TO.N,/IFCLK*%
X140258800Y-97282000D02*
X140868400Y-97891600D01*
X137172400Y-88466600D02*
X140258800Y-91553000D01*
X140868400Y-97891600D02*
X141653800Y-97891600D01*
X140258800Y-91553000D02*
X140258800Y-97282000D01*
%TO.N,/PB0*%
X139128400Y-104228800D02*
X139128400Y-98042600D01*
X142124900Y-105736200D02*
X140635800Y-105736200D01*
X139128400Y-98042600D02*
X137172400Y-96086600D01*
X140635800Y-105736200D02*
X139128400Y-104228800D01*
%TO.N,/PB1*%
X142124900Y-106236200D02*
X142114900Y-106246200D01*
X140580114Y-106246200D02*
X138728400Y-104394486D01*
X138728400Y-100182600D02*
X137172400Y-98626600D01*
X138728400Y-104394486D02*
X138728400Y-100182600D01*
X142114900Y-106246200D02*
X140580114Y-106246200D01*
%TO.N,/PB2*%
X142124900Y-106736200D02*
X140504428Y-106736200D01*
X138328400Y-102322600D02*
X137172400Y-101166600D01*
X140504428Y-106736200D02*
X138328400Y-104560172D01*
X138328400Y-104560172D02*
X138328400Y-102322600D01*
%TO.N,/PB3*%
X140357800Y-107236200D02*
X137172400Y-104050800D01*
X142124900Y-107236200D02*
X140357800Y-107236200D01*
X137172400Y-104050800D02*
X137172400Y-103706600D01*
%TO.N,/PB4*%
X137172400Y-106246600D02*
X138662000Y-107736200D01*
X138662000Y-107736200D02*
X142124900Y-107736200D01*
%TO.N,/PB5*%
X137722800Y-108236200D02*
X137172400Y-108786600D01*
X142124900Y-108236200D02*
X137722800Y-108236200D01*
%TO.N,/PB6*%
X142124900Y-108736200D02*
X139762800Y-108736200D01*
X139762800Y-108736200D02*
X137172400Y-111326600D01*
%TO.N,/PB7*%
X142124900Y-109236200D02*
X139828486Y-109236200D01*
X138353800Y-110710886D02*
X138353800Y-112685200D01*
X138353800Y-112685200D02*
X137172400Y-113866600D01*
X139828486Y-109236200D02*
X138353800Y-110710886D01*
%TO.N,/CTL0*%
X139146714Y-116406600D02*
X142760800Y-112792514D01*
X137172400Y-116406600D02*
X139146714Y-116406600D01*
X142760800Y-112280602D02*
X142812400Y-112229002D01*
X142812400Y-112229002D02*
X142812400Y-111423700D01*
X142760800Y-112792514D02*
X142760800Y-112280602D01*
%TO.N,/CTL1*%
X143160800Y-112958200D02*
X143160800Y-112446287D01*
X143160800Y-112446287D02*
X143312400Y-112294687D01*
X143312400Y-112294687D02*
X143312400Y-111423700D01*
X137172400Y-118946600D02*
X143160800Y-112958200D01*
%TO.N,/CTL2*%
X137172400Y-121486600D02*
X138404600Y-120254400D01*
X143560800Y-112611972D02*
X143812400Y-112360372D01*
X143812400Y-112360372D02*
X143812400Y-111423700D01*
X143560800Y-113123885D02*
X143560800Y-112611972D01*
X138404600Y-120254400D02*
X138404600Y-118280085D01*
X138404600Y-118280085D02*
X143560800Y-113123885D01*
%TO.N,/PA3*%
X153339800Y-125519686D02*
X153295400Y-125475285D01*
X153295400Y-125475285D02*
X153295400Y-123500972D01*
X146312400Y-115197400D02*
X146312400Y-111423700D01*
X154952400Y-129106600D02*
X153339800Y-127494000D01*
X153339800Y-127494000D02*
X153339800Y-125519686D01*
X152247600Y-121132600D02*
X146312400Y-115197400D01*
X152247600Y-122453172D02*
X152247600Y-121132600D01*
X153295400Y-123500972D02*
X152247600Y-122453172D01*
%TO.N,/PA4*%
X146812400Y-115131714D02*
X146812400Y-111423700D01*
X153695400Y-123335286D02*
X152647600Y-122287486D01*
X153695400Y-125309600D02*
X153695400Y-123335286D01*
X152647600Y-120966915D02*
X146812400Y-115131714D01*
X152647600Y-122287486D02*
X152647600Y-120966915D01*
X154952400Y-126566600D02*
X153695400Y-125309600D01*
%TO.N,/PA5*%
X153047600Y-120801229D02*
X147312400Y-115066028D01*
X154952400Y-124026600D02*
X153047600Y-122121800D01*
X147312400Y-115066028D02*
X147312400Y-111423700D01*
X153047600Y-122121800D02*
X153047600Y-120801229D01*
%TO.N,/PA6*%
X147812400Y-115000342D02*
X154298657Y-121486600D01*
X154298657Y-121486600D02*
X154952400Y-121486600D01*
X147812400Y-111423700D02*
X147812400Y-115000342D01*
%TO.N,/PA7*%
X148312400Y-111423700D02*
X148312400Y-114934656D01*
X148312400Y-114934656D02*
X152324344Y-118946600D01*
X152324344Y-118946600D02*
X154952400Y-118946600D01*
%TO.N,/CLKOUT*%
X152323800Y-99769200D02*
X152323800Y-96175200D01*
X152323800Y-96175200D02*
X154952400Y-93546600D01*
%TO.N,/PD0*%
X151897583Y-109736200D02*
X153162000Y-111000617D01*
X153162000Y-111000617D02*
X153162000Y-112076200D01*
X153162000Y-112076200D02*
X154952400Y-113866600D01*
X149999900Y-109736200D02*
X151897583Y-109736200D01*
%TO.N,/PD1*%
X149999900Y-109236200D02*
X152862000Y-109236200D01*
X152862000Y-109236200D02*
X154952400Y-111326600D01*
%TO.N,/PD2*%
X149999900Y-108736200D02*
X154902000Y-108736200D01*
X154902000Y-108736200D02*
X154952400Y-108786600D01*
%TO.N,/PD3*%
X152962800Y-108236200D02*
X154952400Y-106246600D01*
X149999900Y-108236200D02*
X152962800Y-108236200D01*
%TO.N,/PD4*%
X152228058Y-107736200D02*
X153746200Y-106218058D01*
X153746200Y-106218058D02*
X153746200Y-104912800D01*
X153746200Y-104912800D02*
X154952400Y-103706600D01*
X149999900Y-107736200D02*
X152228058Y-107736200D01*
%TO.N,/PD5*%
X152162372Y-107236200D02*
X153346200Y-106052372D01*
X153346200Y-104717800D02*
X153771600Y-104292400D01*
X153771600Y-104292400D02*
X153771600Y-102347400D01*
X153346200Y-106052372D02*
X153346200Y-104717800D01*
X153771600Y-102347400D02*
X154952400Y-101166600D01*
X149999900Y-107236200D02*
X152162372Y-107236200D01*
%TO.N,/PD6*%
X153365200Y-100213800D02*
X154952400Y-98626600D01*
X153365200Y-104114600D02*
X153365200Y-100213800D01*
X149999900Y-106736200D02*
X152096686Y-106736200D01*
X152946200Y-105886686D02*
X152946200Y-104533600D01*
X152946200Y-104533600D02*
X153365200Y-104114600D01*
X152096686Y-106736200D02*
X152946200Y-105886686D01*
%TO.N,/PD7*%
X152965200Y-98073800D02*
X154952400Y-96086600D01*
X149999900Y-106236200D02*
X152031000Y-106236200D01*
X152546200Y-104367914D02*
X152965200Y-103948914D01*
X152031000Y-106236200D02*
X152546200Y-105721000D01*
X152546200Y-105721000D02*
X152546200Y-104367914D01*
X152965200Y-103948914D02*
X152965200Y-98073800D01*
%TO.N,Net-(U1-CLKOUT)*%
X149999900Y-105236200D02*
X151112228Y-105236200D01*
X151112228Y-105236200D02*
X152323800Y-104024628D01*
X152323800Y-104024628D02*
X152323800Y-100789200D01*
%TO.N,Net-(U1-IFCLK)*%
X143186600Y-102665041D02*
X143186600Y-98404400D01*
X143312400Y-102790841D02*
X143186600Y-102665041D01*
X143312400Y-103548700D02*
X143312400Y-102790841D01*
X143186600Y-98404400D02*
X142673800Y-97891600D01*
%TD*%
%TA.AperFunction,Conductor*%
%TO.N,+3V3*%
G36*
X152190639Y-89453085D02*
G01*
X152236394Y-89505889D01*
X152247600Y-89557400D01*
X152247600Y-91011200D01*
X152227915Y-91078239D01*
X152175111Y-91123994D01*
X152123600Y-91135200D01*
X150390400Y-91135200D01*
X150323361Y-91115515D01*
X150277606Y-91062711D01*
X150266400Y-91011200D01*
X150266400Y-89557400D01*
X150286085Y-89490361D01*
X150338889Y-89444606D01*
X150390400Y-89433400D01*
X152123600Y-89433400D01*
X152190639Y-89453085D01*
G37*
%TD.AperFunction*%
%TD*%
%TA.AperFunction,Conductor*%
%TO.N,GND*%
G36*
X144505439Y-113533685D02*
G01*
X144551194Y-113586489D01*
X144562400Y-113638000D01*
X144562400Y-114286188D01*
X144590905Y-114281675D01*
X144660199Y-114290632D01*
X144713649Y-114335630D01*
X144734287Y-114402382D01*
X144734300Y-114404149D01*
X144734300Y-114611455D01*
X144714615Y-114678494D01*
X144697981Y-114699136D01*
X138962037Y-120435079D01*
X138900714Y-120468564D01*
X138831022Y-120463580D01*
X138775089Y-120421708D01*
X138750672Y-120356244D01*
X138757076Y-120307131D01*
X138757525Y-120305821D01*
X138757216Y-120298356D01*
X138757217Y-120298354D01*
X138755205Y-120249730D01*
X138755100Y-120244607D01*
X138755100Y-118476628D01*
X138774785Y-118409589D01*
X138791414Y-118388952D01*
X143166365Y-114014000D01*
X143764962Y-114014000D01*
X143766864Y-114026017D01*
X143822952Y-114136094D01*
X143910306Y-114223448D01*
X144020381Y-114279535D01*
X144062400Y-114286190D01*
X144062400Y-114014000D01*
X143764962Y-114014000D01*
X143166365Y-114014000D01*
X143630047Y-113550318D01*
X143691370Y-113516834D01*
X143717728Y-113514000D01*
X144438400Y-113514000D01*
X144505439Y-113533685D01*
G37*
%TD.AperFunction*%
%TA.AperFunction,Conductor*%
G36*
X145114212Y-104205786D02*
G01*
X145167638Y-104230699D01*
X145180136Y-104232344D01*
X145213221Y-104236700D01*
X145411578Y-104236699D01*
X145415611Y-104236168D01*
X145415613Y-104236168D01*
X145457156Y-104230700D01*
X145457157Y-104230699D01*
X145457160Y-104230699D01*
X145509997Y-104206060D01*
X145579071Y-104195569D01*
X145614799Y-104206059D01*
X145667640Y-104230699D01*
X145713221Y-104236700D01*
X145911578Y-104236699D01*
X145915598Y-104236169D01*
X145919656Y-104235904D01*
X145912055Y-104236657D01*
X145981029Y-104247322D01*
X146012308Y-104268335D01*
X146050482Y-104303477D01*
X146054180Y-104307025D01*
X146319242Y-104572087D01*
X146335369Y-104591946D01*
X146341307Y-104601036D01*
X146366285Y-104620477D01*
X146377802Y-104630648D01*
X146377873Y-104630719D01*
X146394789Y-104642797D01*
X146398897Y-104645860D01*
X146446432Y-104682858D01*
X146446624Y-104682957D01*
X146480993Y-104693188D01*
X146504347Y-104700141D01*
X146509184Y-104701690D01*
X146558732Y-104718700D01*
X146566189Y-104721260D01*
X146566422Y-104721293D01*
X146574301Y-104720967D01*
X146574304Y-104720968D01*
X146626585Y-104718805D01*
X146631708Y-104718700D01*
X147896508Y-104718700D01*
X147963547Y-104738385D01*
X147984189Y-104755019D01*
X148003689Y-104774519D01*
X148037174Y-104835842D01*
X148032190Y-104905534D01*
X147990318Y-104961467D01*
X147924854Y-104985884D01*
X147916008Y-104986200D01*
X146312400Y-104986200D01*
X146312400Y-107236200D01*
X148912399Y-107236200D01*
X148912399Y-106530838D01*
X148913661Y-106513191D01*
X148917541Y-106486199D01*
X148913661Y-106459206D01*
X148912399Y-106441560D01*
X148912399Y-105530839D01*
X148913662Y-105513189D01*
X148916558Y-105493050D01*
X148945584Y-105429495D01*
X149004363Y-105391722D01*
X149039295Y-105386700D01*
X149176985Y-105386700D01*
X149193144Y-105382717D01*
X149262947Y-105385785D01*
X149320009Y-105426104D01*
X149346215Y-105490873D01*
X149335203Y-105555518D01*
X149318390Y-105591571D01*
X149315807Y-105611198D01*
X149315808Y-105611200D01*
X149580594Y-105611200D01*
X149585693Y-105611367D01*
X149588221Y-105611700D01*
X150411578Y-105611699D01*
X150414104Y-105611366D01*
X150419196Y-105611200D01*
X150696404Y-105611200D01*
X150727436Y-105591517D01*
X150761662Y-105586700D01*
X151063016Y-105586700D01*
X151088462Y-105589339D01*
X151089784Y-105589616D01*
X151097543Y-105591243D01*
X151123592Y-105587995D01*
X151126351Y-105587652D01*
X151141023Y-105586741D01*
X151160241Y-105583534D01*
X151165297Y-105582796D01*
X151213621Y-105576773D01*
X151213622Y-105576772D01*
X151221036Y-105575848D01*
X151227606Y-105572292D01*
X151227609Y-105572292D01*
X151270429Y-105549118D01*
X151274975Y-105546777D01*
X151318712Y-105525398D01*
X151318714Y-105525395D01*
X151325423Y-105522116D01*
X151330482Y-105516619D01*
X151330486Y-105516618D01*
X151363482Y-105480772D01*
X151366984Y-105477124D01*
X151984020Y-104860089D01*
X152045342Y-104826605D01*
X152115034Y-104831589D01*
X152170967Y-104873461D01*
X152195384Y-104938925D01*
X152195700Y-104947771D01*
X152195700Y-105524456D01*
X152176015Y-105591495D01*
X152159381Y-105612137D01*
X151922137Y-105849381D01*
X151860814Y-105882866D01*
X151834456Y-105885700D01*
X150761662Y-105885700D01*
X150694623Y-105866015D01*
X150689032Y-105861200D01*
X150419206Y-105861200D01*
X150414106Y-105861032D01*
X150411579Y-105860700D01*
X150407524Y-105860700D01*
X149592281Y-105860700D01*
X149592265Y-105860700D01*
X149588222Y-105860701D01*
X149585695Y-105861033D01*
X149580604Y-105861200D01*
X149315808Y-105861200D01*
X149315807Y-105861201D01*
X149318390Y-105880827D01*
X149342814Y-105933203D01*
X149353306Y-106002280D01*
X149342814Y-106038012D01*
X149317900Y-106091438D01*
X149312431Y-106132986D01*
X149311900Y-106137021D01*
X149311900Y-106141072D01*
X149311900Y-106141073D01*
X149311900Y-106331319D01*
X149311900Y-106331333D01*
X149311901Y-106335378D01*
X149312429Y-106339395D01*
X149312431Y-106339413D01*
X149317899Y-106380958D01*
X149342538Y-106433795D01*
X149353030Y-106502873D01*
X149342538Y-106538605D01*
X149317900Y-106591439D01*
X149312431Y-106632986D01*
X149311900Y-106637021D01*
X149311900Y-106641072D01*
X149311900Y-106641073D01*
X149311900Y-106831319D01*
X149311900Y-106831333D01*
X149311901Y-106835378D01*
X149312429Y-106839395D01*
X149312431Y-106839413D01*
X149317899Y-106880958D01*
X149342538Y-106933795D01*
X149353030Y-107002873D01*
X149342538Y-107038605D01*
X149317900Y-107091439D01*
X149313011Y-107128581D01*
X149311900Y-107137021D01*
X149311900Y-107141072D01*
X149311900Y-107141073D01*
X149311900Y-107331319D01*
X149311900Y-107331333D01*
X149311901Y-107335378D01*
X149312429Y-107339395D01*
X149312431Y-107339413D01*
X149317899Y-107380958D01*
X149342538Y-107433795D01*
X149353030Y-107502873D01*
X149342538Y-107538605D01*
X149317900Y-107591439D01*
X149312431Y-107632986D01*
X149311900Y-107637021D01*
X149311900Y-107641072D01*
X149311900Y-107641073D01*
X149311900Y-107831319D01*
X149311900Y-107831333D01*
X149311901Y-107835378D01*
X149312429Y-107839395D01*
X149312431Y-107839413D01*
X149317899Y-107880958D01*
X149342538Y-107933795D01*
X149353030Y-108002873D01*
X149342538Y-108038605D01*
X149317900Y-108091439D01*
X149312431Y-108132986D01*
X149311900Y-108137021D01*
X149311900Y-108141072D01*
X149311900Y-108141073D01*
X149311900Y-108331319D01*
X149311900Y-108331333D01*
X149311901Y-108335378D01*
X149312429Y-108339395D01*
X149312431Y-108339413D01*
X149317899Y-108380958D01*
X149342538Y-108433795D01*
X149353030Y-108502873D01*
X149342538Y-108538605D01*
X149317900Y-108591439D01*
X149312431Y-108632986D01*
X149311900Y-108637021D01*
X149311900Y-108641072D01*
X149311900Y-108641073D01*
X149311900Y-108831319D01*
X149311900Y-108831333D01*
X149311901Y-108835378D01*
X149312429Y-108839395D01*
X149312431Y-108839413D01*
X149317899Y-108880958D01*
X149342538Y-108933795D01*
X149353030Y-109002873D01*
X149342538Y-109038605D01*
X149317900Y-109091439D01*
X149312431Y-109132986D01*
X149311900Y-109137021D01*
X149311900Y-109141072D01*
X149311900Y-109141073D01*
X149311900Y-109331319D01*
X149311900Y-109331333D01*
X149311901Y-109335378D01*
X149312429Y-109339395D01*
X149312431Y-109339413D01*
X149317899Y-109380958D01*
X149342538Y-109433795D01*
X149353030Y-109502873D01*
X149342538Y-109538605D01*
X149317900Y-109591439D01*
X149312429Y-109633000D01*
X149311900Y-109637021D01*
X149311900Y-109641072D01*
X149311900Y-109641073D01*
X149311900Y-109831319D01*
X149311900Y-109831333D01*
X149311901Y-109835378D01*
X149312429Y-109839395D01*
X149312431Y-109839413D01*
X149317899Y-109880958D01*
X149342538Y-109933795D01*
X149353030Y-110002873D01*
X149342538Y-110038605D01*
X149317900Y-110091439D01*
X149314616Y-110116390D01*
X149311900Y-110137021D01*
X149311900Y-110141072D01*
X149311900Y-110141073D01*
X149311900Y-110331319D01*
X149311900Y-110331333D01*
X149311901Y-110335378D01*
X149312429Y-110339395D01*
X149312431Y-110339413D01*
X149317899Y-110380958D01*
X149342538Y-110433795D01*
X149353030Y-110502873D01*
X149342538Y-110538605D01*
X149317900Y-110591439D01*
X149312839Y-110629886D01*
X149284572Y-110693782D01*
X149226247Y-110732253D01*
X149206084Y-110736639D01*
X149167643Y-110741699D01*
X149114213Y-110766614D01*
X149045135Y-110777105D01*
X149009405Y-110766614D01*
X148957029Y-110742191D01*
X148937400Y-110739606D01*
X148937400Y-111004393D01*
X148937232Y-111009493D01*
X148936900Y-111012021D01*
X148936900Y-111016072D01*
X148936900Y-111016073D01*
X148936900Y-111424700D01*
X148917215Y-111491739D01*
X148864411Y-111537494D01*
X148812900Y-111548700D01*
X148811900Y-111548700D01*
X148744861Y-111529015D01*
X148699106Y-111476211D01*
X148687900Y-111424700D01*
X148687899Y-111016081D01*
X148687899Y-111012022D01*
X148687566Y-111009495D01*
X148687400Y-111004404D01*
X148687400Y-110739607D01*
X148687398Y-110739607D01*
X148667771Y-110742190D01*
X148615396Y-110766614D01*
X148546318Y-110777106D01*
X148510586Y-110766614D01*
X148457159Y-110741700D01*
X148415599Y-110736229D01*
X148415595Y-110736228D01*
X148411579Y-110735700D01*
X148407526Y-110735700D01*
X148217280Y-110735700D01*
X148217265Y-110735700D01*
X148213222Y-110735701D01*
X148209205Y-110736229D01*
X148209186Y-110736231D01*
X148167639Y-110741700D01*
X148114803Y-110766338D01*
X148045726Y-110776830D01*
X148009994Y-110766338D01*
X147957159Y-110741700D01*
X147915599Y-110736229D01*
X147915595Y-110736228D01*
X147911579Y-110735700D01*
X147907526Y-110735700D01*
X147717280Y-110735700D01*
X147717265Y-110735700D01*
X147713222Y-110735701D01*
X147709205Y-110736229D01*
X147709186Y-110736231D01*
X147667639Y-110741700D01*
X147614803Y-110766338D01*
X147545726Y-110776830D01*
X147509994Y-110766338D01*
X147457159Y-110741700D01*
X147415599Y-110736229D01*
X147415595Y-110736228D01*
X147411579Y-110735700D01*
X147407526Y-110735700D01*
X147217280Y-110735700D01*
X147217265Y-110735700D01*
X147213222Y-110735701D01*
X147209205Y-110736229D01*
X147209186Y-110736231D01*
X147167639Y-110741700D01*
X147114803Y-110766338D01*
X147045726Y-110776830D01*
X147009994Y-110766338D01*
X146957159Y-110741700D01*
X146915599Y-110736229D01*
X146915595Y-110736228D01*
X146911579Y-110735700D01*
X146907526Y-110735700D01*
X146717280Y-110735700D01*
X146717265Y-110735700D01*
X146713222Y-110735701D01*
X146709205Y-110736229D01*
X146709186Y-110736231D01*
X146667639Y-110741700D01*
X146614803Y-110766338D01*
X146545726Y-110776830D01*
X146509994Y-110766338D01*
X146457159Y-110741700D01*
X146415599Y-110736229D01*
X146415595Y-110736228D01*
X146411579Y-110735700D01*
X146407526Y-110735700D01*
X146217280Y-110735700D01*
X146217265Y-110735700D01*
X146213222Y-110735701D01*
X146209205Y-110736229D01*
X146209186Y-110736231D01*
X146167639Y-110741700D01*
X146114803Y-110766338D01*
X146045726Y-110776830D01*
X146009994Y-110766338D01*
X145957159Y-110741700D01*
X145915599Y-110736229D01*
X145915595Y-110736228D01*
X145911579Y-110735700D01*
X145907526Y-110735700D01*
X145717280Y-110735700D01*
X145717265Y-110735700D01*
X145713222Y-110735701D01*
X145709205Y-110736229D01*
X145709186Y-110736231D01*
X145667639Y-110741700D01*
X145614803Y-110766338D01*
X145545726Y-110776830D01*
X145509994Y-110766338D01*
X145457159Y-110741700D01*
X145415599Y-110736229D01*
X145415595Y-110736228D01*
X145411579Y-110735700D01*
X145407526Y-110735700D01*
X145217280Y-110735700D01*
X145217265Y-110735700D01*
X145213222Y-110735701D01*
X145209205Y-110736229D01*
X145209186Y-110736231D01*
X145167640Y-110741700D01*
X145134689Y-110757065D01*
X145065611Y-110767556D01*
X145001828Y-110739035D01*
X144963589Y-110680558D01*
X144959190Y-110629735D01*
X144964416Y-110586700D01*
X144968760Y-110550920D01*
X144949719Y-110394102D01*
X144893702Y-110246397D01*
X144848312Y-110180638D01*
X144826430Y-110114286D01*
X144843895Y-110046634D01*
X144895163Y-109999164D01*
X144950363Y-109986200D01*
X145010643Y-109986200D01*
X145010652Y-109986199D01*
X145812400Y-109986199D01*
X145812400Y-109486200D01*
X145907109Y-109486200D01*
X145927914Y-109563845D01*
X145984755Y-109620686D01*
X146042654Y-109636200D01*
X146082146Y-109636200D01*
X146140045Y-109620686D01*
X146196886Y-109563846D01*
X146217691Y-109486200D01*
X146196886Y-109408555D01*
X146140045Y-109351714D01*
X146082146Y-109336200D01*
X146042654Y-109336200D01*
X145984755Y-109351714D01*
X145927914Y-109408554D01*
X145907109Y-109486200D01*
X145812400Y-109486200D01*
X145812400Y-108486200D01*
X145907109Y-108486200D01*
X145927914Y-108563845D01*
X145984755Y-108620686D01*
X146042654Y-108636200D01*
X146082146Y-108636200D01*
X146140045Y-108620686D01*
X146196886Y-108563846D01*
X146217691Y-108486200D01*
X146196886Y-108408555D01*
X146140045Y-108351714D01*
X146082146Y-108336200D01*
X146042654Y-108336200D01*
X145984755Y-108351714D01*
X145927914Y-108408554D01*
X145907109Y-108486200D01*
X145812400Y-108486200D01*
X145812400Y-107736200D01*
X146312400Y-107736200D01*
X146312400Y-109986199D01*
X147145386Y-109986199D01*
X147145392Y-109986200D01*
X147323723Y-109986200D01*
X147323731Y-109986199D01*
X148325242Y-109986199D01*
X148325250Y-109986200D01*
X148484287Y-109986200D01*
X148488576Y-109984940D01*
X148510284Y-109980622D01*
X148518207Y-109979771D01*
X148543123Y-109970477D01*
X148543123Y-109970476D01*
X148146528Y-109573880D01*
X148113043Y-109512557D01*
X148114928Y-109486200D01*
X148257109Y-109486200D01*
X148277914Y-109563845D01*
X148334755Y-109620686D01*
X148392654Y-109636200D01*
X148432146Y-109636200D01*
X148490045Y-109620686D01*
X148546886Y-109563846D01*
X148567691Y-109486200D01*
X148546886Y-109408555D01*
X148490045Y-109351714D01*
X148432146Y-109336200D01*
X148392654Y-109336200D01*
X148334755Y-109351714D01*
X148277914Y-109408554D01*
X148257109Y-109486200D01*
X148114928Y-109486200D01*
X148118027Y-109442865D01*
X148146528Y-109398518D01*
X148324718Y-109220328D01*
X148386041Y-109186843D01*
X148455733Y-109191827D01*
X148500080Y-109220328D01*
X148898485Y-109618733D01*
X148898772Y-109618638D01*
X148904706Y-109595396D01*
X148905972Y-109592000D01*
X148912044Y-109535532D01*
X148912577Y-109525576D01*
X148912458Y-109530084D01*
X148913662Y-109513172D01*
X148917541Y-109486197D01*
X148913662Y-109459219D01*
X148912399Y-109441567D01*
X148912399Y-108530832D01*
X148913662Y-108513180D01*
X148917542Y-108486199D01*
X148913662Y-108459217D01*
X148912399Y-108441566D01*
X148912399Y-107736200D01*
X146312400Y-107736200D01*
X145812400Y-107736200D01*
X143212400Y-107736200D01*
X143212400Y-108441565D01*
X143211138Y-108459211D01*
X143207257Y-108486199D01*
X143211138Y-108513188D01*
X143212400Y-108530834D01*
X143212400Y-109441564D01*
X143211138Y-109459209D01*
X143207257Y-109486201D01*
X143211138Y-109513196D01*
X143212341Y-109529931D01*
X143212223Y-109525586D01*
X143212754Y-109535506D01*
X143218828Y-109592006D01*
X143220099Y-109595413D01*
X143226653Y-109621092D01*
X143227720Y-109628517D01*
X143251661Y-109680939D01*
X143255047Y-109689113D01*
X143256632Y-109693362D01*
X143261619Y-109763053D01*
X143228137Y-109824378D01*
X143166815Y-109857865D01*
X143140452Y-109860700D01*
X141091501Y-109860700D01*
X141024462Y-109841015D01*
X141003820Y-109824381D01*
X140977820Y-109798381D01*
X140944335Y-109737058D01*
X140949319Y-109667366D01*
X140991191Y-109611433D01*
X141056655Y-109587016D01*
X141065501Y-109586700D01*
X141363138Y-109586700D01*
X141430177Y-109606385D01*
X141435768Y-109611200D01*
X141705594Y-109611200D01*
X141710693Y-109611367D01*
X141713221Y-109611700D01*
X142536578Y-109611699D01*
X142539104Y-109611366D01*
X142544196Y-109611200D01*
X142808992Y-109611200D01*
X142808992Y-109611198D01*
X142806409Y-109591573D01*
X142781985Y-109539197D01*
X142771493Y-109470120D01*
X142781986Y-109434385D01*
X142782262Y-109433795D01*
X142806899Y-109380960D01*
X142812900Y-109335379D01*
X142812899Y-109137022D01*
X142809531Y-109111433D01*
X142806900Y-109091442D01*
X142799013Y-109074528D01*
X142782260Y-109038603D01*
X142771769Y-108969527D01*
X142782261Y-108933796D01*
X142806899Y-108880960D01*
X142812900Y-108835379D01*
X142812899Y-108637022D01*
X142810749Y-108620686D01*
X142806900Y-108591442D01*
X142794031Y-108563845D01*
X142782260Y-108538603D01*
X142771769Y-108469527D01*
X142782261Y-108433796D01*
X142806899Y-108380960D01*
X142812900Y-108335379D01*
X142812899Y-108137022D01*
X142812368Y-108132986D01*
X142806900Y-108091443D01*
X142806899Y-108091440D01*
X142782260Y-108038602D01*
X142771769Y-107969529D01*
X142782259Y-107933800D01*
X142806899Y-107880960D01*
X142812900Y-107835379D01*
X142812899Y-107637022D01*
X142810749Y-107620686D01*
X142806900Y-107591443D01*
X142806899Y-107591440D01*
X142782260Y-107538602D01*
X142774301Y-107486200D01*
X143557109Y-107486200D01*
X143577914Y-107563845D01*
X143634755Y-107620686D01*
X143692654Y-107636200D01*
X143732146Y-107636200D01*
X143790045Y-107620686D01*
X143846886Y-107563846D01*
X143867691Y-107486200D01*
X144732109Y-107486200D01*
X144752914Y-107563845D01*
X144809755Y-107620686D01*
X144867654Y-107636200D01*
X144907146Y-107636200D01*
X144965045Y-107620686D01*
X145021886Y-107563846D01*
X145042691Y-107486200D01*
X145907109Y-107486200D01*
X145927914Y-107563845D01*
X145984755Y-107620686D01*
X146042654Y-107636200D01*
X146082146Y-107636200D01*
X146140045Y-107620686D01*
X146196886Y-107563846D01*
X146217691Y-107486200D01*
X147082109Y-107486200D01*
X147102914Y-107563845D01*
X147159755Y-107620686D01*
X147217654Y-107636200D01*
X147257146Y-107636200D01*
X147315045Y-107620686D01*
X147371886Y-107563846D01*
X147392691Y-107486200D01*
X148257109Y-107486200D01*
X148277914Y-107563845D01*
X148334755Y-107620686D01*
X148392654Y-107636200D01*
X148432146Y-107636200D01*
X148490045Y-107620686D01*
X148546886Y-107563846D01*
X148567691Y-107486200D01*
X148546886Y-107408555D01*
X148490045Y-107351714D01*
X148432146Y-107336200D01*
X148392654Y-107336200D01*
X148334755Y-107351714D01*
X148277914Y-107408554D01*
X148257109Y-107486200D01*
X147392691Y-107486200D01*
X147371886Y-107408555D01*
X147315045Y-107351714D01*
X147257146Y-107336200D01*
X147217654Y-107336200D01*
X147159755Y-107351714D01*
X147102914Y-107408554D01*
X147082109Y-107486200D01*
X146217691Y-107486200D01*
X146196886Y-107408555D01*
X146140045Y-107351714D01*
X146082146Y-107336200D01*
X146042654Y-107336200D01*
X145984755Y-107351714D01*
X145927914Y-107408554D01*
X145907109Y-107486200D01*
X145042691Y-107486200D01*
X145021886Y-107408555D01*
X144965045Y-107351714D01*
X144907146Y-107336200D01*
X144867654Y-107336200D01*
X144809755Y-107351714D01*
X144752914Y-107408554D01*
X144732109Y-107486200D01*
X143867691Y-107486200D01*
X143846886Y-107408555D01*
X143790045Y-107351714D01*
X143732146Y-107336200D01*
X143692654Y-107336200D01*
X143634755Y-107351714D01*
X143577914Y-107408554D01*
X143557109Y-107486200D01*
X142774301Y-107486200D01*
X142771769Y-107469529D01*
X142782259Y-107433800D01*
X142806899Y-107380960D01*
X142812900Y-107335379D01*
X142812899Y-107137022D01*
X142811788Y-107128581D01*
X142806900Y-107091442D01*
X142799013Y-107074528D01*
X142782260Y-107038603D01*
X142771769Y-106969527D01*
X142782261Y-106933796D01*
X142806899Y-106880960D01*
X142812900Y-106835379D01*
X142812899Y-106637022D01*
X142810749Y-106620686D01*
X142806900Y-106591442D01*
X142793163Y-106561984D01*
X142782260Y-106538603D01*
X142771769Y-106469527D01*
X142782261Y-106433796D01*
X142806899Y-106380960D01*
X142812900Y-106335379D01*
X142812899Y-106137022D01*
X142812368Y-106132986D01*
X142806900Y-106091442D01*
X142782261Y-106038604D01*
X142771769Y-105969527D01*
X142782261Y-105933796D01*
X142806899Y-105880960D01*
X142812900Y-105835379D01*
X142812899Y-105713505D01*
X142832583Y-105646467D01*
X142877881Y-105604451D01*
X142893006Y-105596265D01*
X142893010Y-105596265D01*
X142939084Y-105571330D01*
X142943544Y-105569035D01*
X142990611Y-105546026D01*
X142990612Y-105546024D01*
X142997708Y-105542556D01*
X143012139Y-105531796D01*
X143021437Y-105526766D01*
X143022191Y-105528160D01*
X143057051Y-105507208D01*
X143126889Y-105509305D01*
X143184507Y-105548826D01*
X143211612Y-105613223D01*
X143212400Y-105627180D01*
X143212400Y-106441566D01*
X143211138Y-106459212D01*
X143207257Y-106486199D01*
X143211138Y-106513187D01*
X143212400Y-106530833D01*
X143212400Y-107236200D01*
X145812400Y-107236200D01*
X145812400Y-106486200D01*
X145907109Y-106486200D01*
X145927914Y-106563845D01*
X145984755Y-106620686D01*
X146042654Y-106636200D01*
X146082146Y-106636200D01*
X146140045Y-106620686D01*
X146196886Y-106563846D01*
X146217691Y-106486200D01*
X146196886Y-106408555D01*
X146140045Y-106351714D01*
X146082146Y-106336200D01*
X146042654Y-106336200D01*
X145984755Y-106351714D01*
X145927914Y-106408554D01*
X145907109Y-106486200D01*
X145812400Y-106486200D01*
X145812400Y-105486200D01*
X145907109Y-105486200D01*
X145927914Y-105563845D01*
X145984755Y-105620686D01*
X146042654Y-105636200D01*
X146082146Y-105636200D01*
X146140045Y-105620686D01*
X146196886Y-105563846D01*
X146217691Y-105486200D01*
X146196886Y-105408555D01*
X146140045Y-105351714D01*
X146082146Y-105336200D01*
X146042654Y-105336200D01*
X145984755Y-105351714D01*
X145927914Y-105408554D01*
X145907109Y-105486200D01*
X145812400Y-105486200D01*
X145812400Y-104986200D01*
X144985443Y-104986200D01*
X144918404Y-104966515D01*
X144872649Y-104913711D01*
X144862705Y-104844553D01*
X144874298Y-104814966D01*
X144872281Y-104814201D01*
X144879895Y-104794125D01*
X144933637Y-104652418D01*
X144952678Y-104495600D01*
X144933637Y-104338782D01*
X144933636Y-104338779D01*
X144933257Y-104335658D01*
X144944717Y-104266735D01*
X144991621Y-104214948D01*
X145003960Y-104208323D01*
X145009415Y-104205780D01*
X145078494Y-104195296D01*
X145114212Y-104205786D01*
G37*
%TD.AperFunction*%
%TA.AperFunction,Conductor*%
G36*
X142207134Y-98305959D02*
G01*
X142251481Y-98334460D01*
X142311698Y-98394677D01*
X142427281Y-98451182D01*
X142502215Y-98462100D01*
X142502218Y-98462100D01*
X142697256Y-98462100D01*
X142764295Y-98481785D01*
X142784937Y-98498419D01*
X142799781Y-98513263D01*
X142833266Y-98574586D01*
X142836100Y-98600944D01*
X142836100Y-102615829D01*
X142833461Y-102641275D01*
X142832979Y-102643576D01*
X142831557Y-102650356D01*
X142834970Y-102677733D01*
X142835148Y-102679162D01*
X142836058Y-102693836D01*
X142839265Y-102713054D01*
X142840001Y-102718106D01*
X142840279Y-102720330D01*
X142840471Y-102721868D01*
X142829226Y-102790827D01*
X142782484Y-102842760D01*
X142717990Y-102861047D01*
X142721385Y-102860936D01*
X142717481Y-102861191D01*
X142717452Y-102861200D01*
X142717354Y-102861200D01*
X142709257Y-102861730D01*
X142667769Y-102867191D01*
X142567890Y-102913766D01*
X142489966Y-102991690D01*
X142443390Y-103091571D01*
X142437929Y-103133058D01*
X142437400Y-103141132D01*
X142437400Y-103423700D01*
X142812900Y-103423700D01*
X142879939Y-103443385D01*
X142925694Y-103496189D01*
X142936900Y-103547638D01*
X142936901Y-103549638D01*
X142917250Y-103616687D01*
X142864469Y-103662469D01*
X142812901Y-103673700D01*
X142437400Y-103673700D01*
X142437400Y-103736701D01*
X142417715Y-103803740D01*
X142364910Y-103849495D01*
X142313400Y-103860700D01*
X141745746Y-103860700D01*
X141678707Y-103841015D01*
X141658065Y-103824381D01*
X141578219Y-103744535D01*
X141544734Y-103683212D01*
X141541900Y-103656854D01*
X141541900Y-100715751D01*
X141561585Y-100648712D01*
X141583671Y-100622937D01*
X141681883Y-100535930D01*
X141771620Y-100405923D01*
X141827637Y-100258218D01*
X141846678Y-100101400D01*
X141827637Y-99944582D01*
X141771620Y-99796877D01*
X141681883Y-99666870D01*
X141583672Y-99579863D01*
X141546546Y-99520675D01*
X141541900Y-99487049D01*
X141541900Y-98968125D01*
X141544539Y-98942678D01*
X141546443Y-98933599D01*
X141542852Y-98904790D01*
X141541941Y-98890127D01*
X141541900Y-98889881D01*
X141541900Y-98889874D01*
X141538730Y-98870879D01*
X141537995Y-98865833D01*
X141532910Y-98825040D01*
X141531973Y-98817521D01*
X141531972Y-98817519D01*
X141531048Y-98810105D01*
X141527492Y-98803534D01*
X141527492Y-98803533D01*
X141504325Y-98760725D01*
X141501981Y-98756170D01*
X141477318Y-98705720D01*
X141471819Y-98700657D01*
X141471818Y-98700656D01*
X141446477Y-98677327D01*
X141410488Y-98617444D01*
X141412587Y-98547606D01*
X141452111Y-98489989D01*
X141516510Y-98462887D01*
X141530461Y-98462100D01*
X141825385Y-98462100D01*
X141900318Y-98451182D01*
X142015901Y-98394677D01*
X142076119Y-98334460D01*
X142137442Y-98300975D01*
X142207134Y-98305959D01*
G37*
%TD.AperFunction*%
%TA.AperFunction,Conductor*%
G36*
X139684103Y-98473431D02*
G01*
X139690581Y-98479463D01*
X139974835Y-98763717D01*
X140008320Y-98825040D01*
X140003336Y-98894732D01*
X139989204Y-98921837D01*
X139911180Y-99034874D01*
X139855163Y-99182581D01*
X139836121Y-99339399D01*
X139844342Y-99407100D01*
X139855163Y-99496218D01*
X139911180Y-99643923D01*
X140000917Y-99773930D01*
X140099127Y-99860936D01*
X140136254Y-99920125D01*
X140140900Y-99953751D01*
X140140900Y-100513388D01*
X140138261Y-100538834D01*
X140136357Y-100547913D01*
X140139948Y-100576721D01*
X140140858Y-100591395D01*
X140144065Y-100610613D01*
X140144803Y-100615678D01*
X140151751Y-100671409D01*
X140178481Y-100720802D01*
X140180821Y-100725347D01*
X140202202Y-100769084D01*
X140202203Y-100769085D01*
X140205484Y-100775796D01*
X140210981Y-100780856D01*
X140210982Y-100780858D01*
X140218253Y-100787551D01*
X140246786Y-100813818D01*
X140250484Y-100817366D01*
X140308024Y-100874906D01*
X140354581Y-100921462D01*
X140388066Y-100982785D01*
X140390900Y-101009144D01*
X140390900Y-103531272D01*
X140371215Y-103598311D01*
X140318411Y-103644066D01*
X140249253Y-103654010D01*
X140228583Y-103649203D01*
X140120162Y-103613976D01*
X139996621Y-103613976D01*
X139879129Y-103652150D01*
X139804320Y-103706502D01*
X139690582Y-103820241D01*
X139629259Y-103853726D01*
X139559567Y-103848742D01*
X139503633Y-103806871D01*
X139479216Y-103741407D01*
X139478900Y-103732560D01*
X139478900Y-98567144D01*
X139498585Y-98500105D01*
X139551389Y-98454350D01*
X139620547Y-98444406D01*
X139684103Y-98473431D01*
G37*
%TD.AperFunction*%
%TA.AperFunction,Conductor*%
G36*
X143849865Y-102610054D02*
G01*
X143868560Y-102625410D01*
X143900581Y-102657431D01*
X143934066Y-102718752D01*
X143936900Y-102745112D01*
X143936900Y-103549700D01*
X143917215Y-103616739D01*
X143864411Y-103662494D01*
X143812900Y-103673700D01*
X143811900Y-103673700D01*
X143744861Y-103654015D01*
X143699106Y-103601211D01*
X143687900Y-103549700D01*
X143687899Y-103141081D01*
X143687899Y-103137022D01*
X143687566Y-103134495D01*
X143687400Y-103129404D01*
X143687400Y-102849694D01*
X143671293Y-102824300D01*
X143667428Y-102805409D01*
X143666546Y-102798335D01*
X143663852Y-102776715D01*
X143662941Y-102762054D01*
X143662900Y-102761808D01*
X143662900Y-102761801D01*
X143659730Y-102742807D01*
X143658996Y-102737762D01*
X143657833Y-102728434D01*
X143669072Y-102659475D01*
X143715809Y-102607538D01*
X143783206Y-102589115D01*
X143849865Y-102610054D01*
G37*
%TD.AperFunction*%
%TA.AperFunction,Conductor*%
G36*
X145009345Y-102484965D02*
G01*
X145052797Y-102539680D01*
X145061900Y-102586314D01*
X145061900Y-102642100D01*
X145045287Y-102704100D01*
X145040316Y-102712710D01*
X145034505Y-102721831D01*
X145012231Y-102753641D01*
X145000922Y-102780945D01*
X144990883Y-102798335D01*
X144989856Y-102797742D01*
X144972359Y-102833039D01*
X144963036Y-102842124D01*
X144937400Y-102864605D01*
X144937400Y-103129393D01*
X144937232Y-103134493D01*
X144936900Y-103137021D01*
X144936900Y-103547638D01*
X144936901Y-103549700D01*
X144917217Y-103616739D01*
X144864413Y-103662494D01*
X144812901Y-103673700D01*
X144811900Y-103673700D01*
X144744861Y-103654015D01*
X144699106Y-103601211D01*
X144687900Y-103549700D01*
X144687900Y-102745112D01*
X144707585Y-102678073D01*
X144724214Y-102657435D01*
X144802259Y-102579391D01*
X144822493Y-102539680D01*
X144827415Y-102530020D01*
X144875389Y-102479224D01*
X144943210Y-102462428D01*
X145009345Y-102484965D01*
G37*
%TD.AperFunction*%
%TA.AperFunction,Conductor*%
G36*
X145554939Y-82298685D02*
G01*
X145600694Y-82351489D01*
X145611900Y-82403000D01*
X145611900Y-83213329D01*
X145612400Y-83218402D01*
X145612400Y-83429000D01*
X145637023Y-83429000D01*
X145711926Y-83414100D01*
X145760312Y-83414100D01*
X145764657Y-83414964D01*
X145764660Y-83414966D01*
X145837726Y-83429500D01*
X145837727Y-83429500D01*
X146287073Y-83429500D01*
X146287074Y-83429500D01*
X146360140Y-83414966D01*
X146360141Y-83414964D01*
X146363207Y-83414355D01*
X146411593Y-83414355D01*
X146414658Y-83414964D01*
X146414660Y-83414966D01*
X146487726Y-83429500D01*
X146787900Y-83429500D01*
X146854939Y-83449185D01*
X146900694Y-83501989D01*
X146911900Y-83553500D01*
X146911900Y-84219728D01*
X146898385Y-84276023D01*
X146850182Y-84370626D01*
X146835700Y-84462062D01*
X146835700Y-84803537D01*
X146850182Y-84894974D01*
X146906340Y-85005191D01*
X146926622Y-85025473D01*
X146960107Y-85086796D01*
X146955123Y-85156488D01*
X146926624Y-85200834D01*
X146906750Y-85220707D01*
X146850665Y-85330779D01*
X146848761Y-85342799D01*
X146848761Y-85342800D01*
X147943638Y-85342800D01*
X147980216Y-85299974D01*
X148038724Y-85261782D01*
X148108592Y-85261284D01*
X148167637Y-85298639D01*
X148177517Y-85315156D01*
X148272566Y-85442128D01*
X148272567Y-85442129D01*
X148272569Y-85442131D01*
X148359308Y-85507063D01*
X148401179Y-85562995D01*
X148406163Y-85632686D01*
X148372679Y-85694010D01*
X148359309Y-85705595D01*
X148301540Y-85748841D01*
X148217532Y-85861063D01*
X148168542Y-85992406D01*
X148162653Y-86047183D01*
X148162300Y-86053779D01*
X148162300Y-86084600D01*
X149075800Y-86084600D01*
X149142839Y-86104285D01*
X149188594Y-86157089D01*
X149199800Y-86208600D01*
X149199800Y-86460600D01*
X149180115Y-86527639D01*
X149127311Y-86573394D01*
X149075800Y-86584600D01*
X148162300Y-86584600D01*
X148162300Y-86615420D01*
X148162653Y-86622016D01*
X148168542Y-86676793D01*
X148217532Y-86808136D01*
X148301540Y-86920359D01*
X148428036Y-87015052D01*
X148425879Y-87017933D01*
X148457718Y-87041761D01*
X148482143Y-87107222D01*
X148467300Y-87175497D01*
X148446142Y-87203765D01*
X148384249Y-87265657D01*
X148326653Y-87378697D01*
X148311800Y-87472478D01*
X148311800Y-88560514D01*
X148311801Y-88560518D01*
X148326654Y-88654304D01*
X148326654Y-88654305D01*
X148326655Y-88654306D01*
X148384249Y-88767342D01*
X148473956Y-88857049D01*
X148473958Y-88857050D01*
X148586996Y-88914646D01*
X148680781Y-88929500D01*
X148808648Y-88929499D01*
X148875688Y-88949183D01*
X148896330Y-88965818D01*
X149097330Y-89166819D01*
X149130815Y-89228142D01*
X149125831Y-89297834D01*
X149083959Y-89353767D01*
X149018495Y-89378184D01*
X149009649Y-89378500D01*
X148680785Y-89378500D01*
X148641829Y-89384670D01*
X148586996Y-89393354D01*
X148586994Y-89393354D01*
X148586993Y-89393355D01*
X148473957Y-89450949D01*
X148384250Y-89540656D01*
X148326653Y-89653697D01*
X148311800Y-89747478D01*
X148311800Y-90835514D01*
X148311801Y-90835518D01*
X148326654Y-90929304D01*
X148326654Y-90929305D01*
X148326655Y-90929306D01*
X148384249Y-91042342D01*
X148473956Y-91132049D01*
X148473958Y-91132050D01*
X148586996Y-91189646D01*
X148680781Y-91204500D01*
X149043818Y-91204499D01*
X149137604Y-91189646D01*
X149145158Y-91185796D01*
X149213826Y-91172900D01*
X149278567Y-91199176D01*
X149318824Y-91256282D01*
X149321817Y-91326087D01*
X149311938Y-91352575D01*
X149286764Y-91401980D01*
X149280110Y-91444000D01*
X149552300Y-91444000D01*
X149552300Y-91146561D01*
X149552299Y-91146561D01*
X149540280Y-91148465D01*
X149537249Y-91150010D01*
X149468579Y-91162906D01*
X149403839Y-91136629D01*
X149363582Y-91079523D01*
X149360590Y-91009717D01*
X149370469Y-90983230D01*
X149370690Y-90982796D01*
X149397946Y-90929304D01*
X149412800Y-90835519D01*
X149412799Y-89747482D01*
X149397946Y-89653696D01*
X149362366Y-89583867D01*
X149349471Y-89515201D01*
X149375747Y-89450460D01*
X149432854Y-89410203D01*
X149467727Y-89403681D01*
X149488964Y-89402803D01*
X149493745Y-89402606D01*
X149498865Y-89402500D01*
X149890068Y-89402500D01*
X149957107Y-89422185D01*
X150002862Y-89474989D01*
X150012805Y-89544145D01*
X150010900Y-89557400D01*
X150010900Y-91011200D01*
X150016739Y-91065513D01*
X150017444Y-91068756D01*
X150017445Y-91068759D01*
X150027595Y-91115418D01*
X150027600Y-91115439D01*
X150027945Y-91117024D01*
X150035181Y-91143398D01*
X150036053Y-91144930D01*
X150052300Y-91206290D01*
X150052300Y-92249479D01*
X150078629Y-92289814D01*
X150079126Y-92359682D01*
X150059171Y-92399904D01*
X150029588Y-92439422D01*
X150015715Y-92476618D01*
X149973843Y-92532552D01*
X149908378Y-92556968D01*
X149840106Y-92542116D01*
X149790700Y-92492710D01*
X149783352Y-92476619D01*
X149769567Y-92439663D01*
X149685560Y-92327442D01*
X149640886Y-92293999D01*
X149637139Y-92292752D01*
X149579747Y-92252902D01*
X149553010Y-92188351D01*
X149552300Y-92175098D01*
X149552300Y-91944000D01*
X149280110Y-91944000D01*
X149286764Y-91986017D01*
X149314289Y-92040038D01*
X149327185Y-92108708D01*
X149300908Y-92173448D01*
X149291486Y-92184013D01*
X149287300Y-92188199D01*
X149287300Y-93689562D01*
X149284685Y-93689562D01*
X149281446Y-93734860D01*
X149276665Y-93745986D01*
X149232717Y-93835884D01*
X149221800Y-93910814D01*
X149221800Y-94353985D01*
X149232717Y-94428916D01*
X149256292Y-94477139D01*
X149268052Y-94546012D01*
X149240709Y-94610309D01*
X149182945Y-94649617D01*
X149144892Y-94655600D01*
X149144800Y-94655600D01*
X149144800Y-95355600D01*
X149632300Y-95355600D01*
X149632300Y-95298499D01*
X149651985Y-95231460D01*
X149704789Y-95185705D01*
X149773947Y-95175761D01*
X149837503Y-95204786D01*
X149843981Y-95210818D01*
X149995481Y-95362318D01*
X150028966Y-95423641D01*
X150031800Y-95449999D01*
X150031800Y-96105808D01*
X150031800Y-96105826D01*
X150031801Y-96109120D01*
X150032153Y-96112400D01*
X150032154Y-96112408D01*
X150038129Y-96167994D01*
X150087796Y-96301153D01*
X150172968Y-96414931D01*
X150288255Y-96501233D01*
X150330127Y-96557166D01*
X150335111Y-96626858D01*
X150301627Y-96688181D01*
X150240303Y-96721666D01*
X150213945Y-96724500D01*
X149625725Y-96724500D01*
X149552661Y-96739033D01*
X149469799Y-96794399D01*
X149414433Y-96877261D01*
X149399900Y-96950325D01*
X149399900Y-97693099D01*
X149380215Y-97760138D01*
X149363581Y-97780781D01*
X149297561Y-97846800D01*
X149236237Y-97880284D01*
X149166546Y-97875299D01*
X149122199Y-97846799D01*
X149100400Y-97825000D01*
X147200400Y-97825000D01*
X147200400Y-98199624D01*
X147214904Y-98272543D01*
X147270440Y-98355659D01*
X147291317Y-98422337D01*
X147272832Y-98489717D01*
X147270440Y-98493438D01*
X147214434Y-98577259D01*
X147199900Y-98650325D01*
X147199900Y-99899674D01*
X147200205Y-99901208D01*
X147199900Y-99904616D01*
X147199900Y-99911887D01*
X147199249Y-99911887D01*
X147193978Y-99970800D01*
X147151115Y-100025977D01*
X147085226Y-100049222D01*
X147078590Y-100049400D01*
X147019713Y-100049400D01*
X146928380Y-100063865D01*
X146818305Y-100119952D01*
X146730951Y-100207306D01*
X146674864Y-100317381D01*
X146668210Y-100359400D01*
X147316400Y-100359400D01*
X147383439Y-100379085D01*
X147429194Y-100431889D01*
X147440400Y-100483400D01*
X147440400Y-100735400D01*
X147420715Y-100802439D01*
X147367911Y-100848194D01*
X147316400Y-100859400D01*
X146668210Y-100859400D01*
X146674864Y-100901418D01*
X146730951Y-101011493D01*
X146818305Y-101098847D01*
X146907187Y-101144135D01*
X146957983Y-101192110D01*
X146974778Y-101259931D01*
X146969737Y-101290003D01*
X146955458Y-101337963D01*
X146953895Y-101342840D01*
X146934341Y-101399801D01*
X146934306Y-101400043D01*
X146936794Y-101460200D01*
X146936900Y-101465324D01*
X146936900Y-103549700D01*
X146917215Y-103616739D01*
X146864411Y-103662494D01*
X146812900Y-103673700D01*
X146811900Y-103673700D01*
X146744861Y-103654015D01*
X146699106Y-103601211D01*
X146687900Y-103549700D01*
X146687900Y-103502326D01*
X146687899Y-103502316D01*
X146687899Y-103141081D01*
X146687899Y-103137022D01*
X146687566Y-103134495D01*
X146687400Y-103129404D01*
X146687400Y-102864607D01*
X146687398Y-102864607D01*
X146667771Y-102867190D01*
X146615396Y-102891614D01*
X146546318Y-102902106D01*
X146510586Y-102891614D01*
X146457159Y-102866700D01*
X146415599Y-102861229D01*
X146415595Y-102861228D01*
X146411579Y-102860700D01*
X146407526Y-102860700D01*
X146241370Y-102860700D01*
X146174331Y-102841015D01*
X146136206Y-102797016D01*
X146133920Y-102798337D01*
X146123880Y-102780947D01*
X146112571Y-102753647D01*
X146111954Y-102752766D01*
X146111954Y-102752765D01*
X146090292Y-102721828D01*
X146084480Y-102712706D01*
X146079512Y-102704100D01*
X146062900Y-102642102D01*
X146062900Y-97325000D01*
X147200400Y-97325000D01*
X147900400Y-97325000D01*
X147900400Y-96725000D01*
X147425775Y-96725000D01*
X147352856Y-96739504D01*
X147270160Y-96794760D01*
X147214904Y-96877456D01*
X147200400Y-96950375D01*
X147200400Y-97325000D01*
X146062900Y-97325000D01*
X146062900Y-95855600D01*
X148157300Y-95855600D01*
X148157300Y-96105748D01*
X148157654Y-96112365D01*
X148163623Y-96167883D01*
X148213241Y-96300914D01*
X148298323Y-96414571D01*
X148419670Y-96505409D01*
X148461541Y-96561343D01*
X148466526Y-96631034D01*
X148433042Y-96692358D01*
X148400400Y-96725000D01*
X148400400Y-97325000D01*
X149100399Y-97325000D01*
X149100400Y-96950375D01*
X149085895Y-96877456D01*
X149030639Y-96794759D01*
X149012594Y-96782702D01*
X148967789Y-96729090D01*
X148959082Y-96659765D01*
X148989236Y-96596737D01*
X149048679Y-96560018D01*
X149081485Y-96555600D01*
X149182448Y-96555600D01*
X149189065Y-96555245D01*
X149244583Y-96549276D01*
X149377614Y-96499658D01*
X149491274Y-96414574D01*
X149576358Y-96300914D01*
X149625976Y-96167883D01*
X149631945Y-96112365D01*
X149632300Y-96105748D01*
X149632300Y-95855600D01*
X148157300Y-95855600D01*
X146062900Y-95855600D01*
X146062900Y-95355600D01*
X148157300Y-95355600D01*
X148644800Y-95355600D01*
X148644800Y-94655600D01*
X148607152Y-94655600D01*
X148600534Y-94655954D01*
X148545016Y-94661923D01*
X148411985Y-94711541D01*
X148298325Y-94796625D01*
X148213241Y-94910285D01*
X148163623Y-95043316D01*
X148157654Y-95098834D01*
X148157300Y-95105451D01*
X148157300Y-95355600D01*
X146062900Y-95355600D01*
X146062900Y-93163200D01*
X148249800Y-93163200D01*
X148249800Y-93194020D01*
X148250153Y-93200616D01*
X148256042Y-93255393D01*
X148305032Y-93386736D01*
X148389040Y-93498959D01*
X148501263Y-93582967D01*
X148632606Y-93631957D01*
X148687383Y-93637846D01*
X148693980Y-93638200D01*
X148787300Y-93638200D01*
X148787300Y-93163200D01*
X148249800Y-93163200D01*
X146062900Y-93163200D01*
X146062900Y-92663200D01*
X148249800Y-92663200D01*
X148787300Y-92663200D01*
X148787300Y-92188200D01*
X148693980Y-92188200D01*
X148687383Y-92188553D01*
X148632606Y-92194442D01*
X148501263Y-92243432D01*
X148389040Y-92327440D01*
X148305032Y-92439663D01*
X148256042Y-92571006D01*
X148250153Y-92625783D01*
X148249800Y-92632379D01*
X148249800Y-92663200D01*
X146062900Y-92663200D01*
X146062900Y-86301621D01*
X146062881Y-86301414D01*
X146062881Y-86299017D01*
X146062883Y-86254257D01*
X146040208Y-86081988D01*
X145995241Y-85914153D01*
X145965687Y-85842800D01*
X146848762Y-85842800D01*
X146850664Y-85854817D01*
X146906752Y-85964894D01*
X146994106Y-86052248D01*
X147104181Y-86108335D01*
X147146200Y-86114990D01*
X147146200Y-85842800D01*
X147646200Y-85842800D01*
X147646200Y-86114988D01*
X147688220Y-86108334D01*
X147798292Y-86052249D01*
X147885648Y-85964893D01*
X147941734Y-85854820D01*
X147943638Y-85842800D01*
X147646200Y-85842800D01*
X147146200Y-85842800D01*
X146848762Y-85842800D01*
X145965687Y-85842800D01*
X145928751Y-85753623D01*
X145841877Y-85603145D01*
X145795497Y-85542699D01*
X145738575Y-85468513D01*
X145738572Y-85468510D01*
X145736104Y-85465293D01*
X145705597Y-85434785D01*
X145705589Y-85434775D01*
X145674674Y-85403860D01*
X145627435Y-85356618D01*
X145627421Y-85356607D01*
X145605553Y-85334739D01*
X145572068Y-85273416D01*
X145577052Y-85203724D01*
X145605546Y-85159383D01*
X145619115Y-85145811D01*
X145619117Y-85145811D01*
X145619241Y-85145686D01*
X145619298Y-85145655D01*
X145655579Y-85109364D01*
X145655581Y-85109366D01*
X145705407Y-85059529D01*
X145780382Y-84940179D01*
X145826923Y-84807140D01*
X145842698Y-84667081D01*
X145826915Y-84527022D01*
X145780365Y-84393986D01*
X145705383Y-84274641D01*
X145705382Y-84274640D01*
X145705374Y-84274627D01*
X145672997Y-84242250D01*
X145633129Y-84202379D01*
X145619102Y-84188350D01*
X145619100Y-84188349D01*
X145605720Y-84174968D01*
X145605703Y-84174957D01*
X145486354Y-84099965D01*
X145353310Y-84053411D01*
X145353306Y-84053410D01*
X145353305Y-84053410D01*
X145213242Y-84037628D01*
X145073180Y-84053410D01*
X145073177Y-84053410D01*
X145073176Y-84053411D01*
X144940132Y-84099965D01*
X144940130Y-84099965D01*
X144940130Y-84099966D01*
X144820780Y-84174958D01*
X144791092Y-84204645D01*
X144791085Y-84204653D01*
X144791085Y-84204654D01*
X144791084Y-84204655D01*
X144773149Y-84222590D01*
X144722392Y-84273346D01*
X144661068Y-84306830D01*
X144591377Y-84301844D01*
X144538862Y-84264332D01*
X144504602Y-84222590D01*
X144491096Y-84202379D01*
X144480362Y-84182300D01*
X144476437Y-84174957D01*
X144458757Y-84141883D01*
X144449454Y-84119426D01*
X144434582Y-84070409D01*
X144429537Y-84053781D01*
X144424795Y-84029941D01*
X144417498Y-83955885D01*
X144416900Y-83943726D01*
X144416900Y-83553000D01*
X144436585Y-83485961D01*
X144489389Y-83440206D01*
X144540900Y-83429000D01*
X144562400Y-83429000D01*
X144562400Y-82679000D01*
X144962400Y-82679000D01*
X144962400Y-83429000D01*
X144987023Y-83429000D01*
X145063207Y-83413845D01*
X145111593Y-83413845D01*
X145187777Y-83429000D01*
X145212400Y-83429000D01*
X145212400Y-82679000D01*
X144962400Y-82679000D01*
X144562400Y-82679000D01*
X144562400Y-82403000D01*
X144582085Y-82335961D01*
X144634889Y-82290206D01*
X144686400Y-82279000D01*
X145487900Y-82279000D01*
X145554939Y-82298685D01*
G37*
%TD.AperFunction*%
%TA.AperFunction,Conductor*%
G36*
X143742303Y-101480862D02*
G01*
X143771585Y-101518280D01*
X143822952Y-101619094D01*
X143842822Y-101638964D01*
X143876307Y-101700287D01*
X143871323Y-101769979D01*
X143842824Y-101814325D01*
X143822540Y-101834608D01*
X143771585Y-101934615D01*
X143723610Y-101985411D01*
X143655789Y-102002206D01*
X143589654Y-101979669D01*
X143546203Y-101924953D01*
X143537100Y-101878320D01*
X143537100Y-101574575D01*
X143556785Y-101507536D01*
X143609589Y-101461781D01*
X143678747Y-101451837D01*
X143742303Y-101480862D01*
G37*
%TD.AperFunction*%
%TA.AperFunction,Conductor*%
G36*
X145009346Y-101523863D02*
G01*
X145052797Y-101578578D01*
X145061900Y-101625211D01*
X145061900Y-101827685D01*
X145042215Y-101894724D01*
X144989411Y-101940479D01*
X144920253Y-101950423D01*
X144856697Y-101921398D01*
X144827415Y-101883980D01*
X144802258Y-101834607D01*
X144781977Y-101814326D01*
X144748492Y-101753003D01*
X144753476Y-101683311D01*
X144781978Y-101638962D01*
X144801848Y-101619091D01*
X144827415Y-101568916D01*
X144875390Y-101518120D01*
X144943211Y-101501325D01*
X145009346Y-101523863D01*
G37*
%TD.AperFunction*%
%TA.AperFunction,Conductor*%
G36*
X149871460Y-86705683D02*
G01*
X149920865Y-86755089D01*
X149928213Y-86771177D01*
X149942088Y-86808378D01*
X150026184Y-86920716D01*
X150042476Y-86932912D01*
X150084347Y-86988846D01*
X150089331Y-87058537D01*
X150062300Y-87108040D01*
X150062300Y-88142500D01*
X150042615Y-88209539D01*
X149989811Y-88255294D01*
X149938300Y-88266500D01*
X149686300Y-88266500D01*
X149619261Y-88246815D01*
X149573506Y-88194011D01*
X149562300Y-88142500D01*
X149562300Y-87105896D01*
X149537319Y-87067630D01*
X149536820Y-86997762D01*
X149574174Y-86938715D01*
X149581736Y-86932577D01*
X149598061Y-86920356D01*
X149682066Y-86808138D01*
X149695851Y-86771181D01*
X149737723Y-86715248D01*
X149803187Y-86690831D01*
X149871460Y-86705683D01*
G37*
%TD.AperFunction*%
%TA.AperFunction,Conductor*%
G36*
X155413794Y-77875571D02*
G01*
X155453953Y-77879085D01*
X155575717Y-77891078D01*
X155587732Y-77892860D01*
X155605946Y-77896483D01*
X155613786Y-77898311D01*
X155668751Y-77913038D01*
X155672497Y-77914108D01*
X155765793Y-77942408D01*
X155782173Y-77948677D01*
X155849120Y-77979894D01*
X155855140Y-77982904D01*
X155935923Y-78026084D01*
X155948577Y-78033856D01*
X156010764Y-78077400D01*
X156018299Y-78083118D01*
X156087698Y-78140073D01*
X156096714Y-78148245D01*
X156150752Y-78202283D01*
X156158918Y-78211292D01*
X156215893Y-78280715D01*
X156221603Y-78288241D01*
X156265133Y-78350408D01*
X156272916Y-78363079D01*
X156316094Y-78443860D01*
X156319118Y-78449908D01*
X156350315Y-78516809D01*
X156356594Y-78533219D01*
X156384875Y-78626451D01*
X156385989Y-78630354D01*
X156400676Y-78685169D01*
X156402517Y-78693062D01*
X156406134Y-78711240D01*
X156407921Y-78723285D01*
X156419923Y-78845147D01*
X156423431Y-78885240D01*
X156423900Y-78896003D01*
X156423900Y-131057185D01*
X156423428Y-131067994D01*
X156419923Y-131108050D01*
X156407921Y-131229912D01*
X156406135Y-131241947D01*
X156402516Y-131260137D01*
X156400675Y-131268035D01*
X156385984Y-131322861D01*
X156384870Y-131326761D01*
X156356595Y-131419975D01*
X156350316Y-131436386D01*
X156319118Y-131503290D01*
X156316094Y-131509339D01*
X156272915Y-131590120D01*
X156265133Y-131602788D01*
X156221609Y-131664948D01*
X156215886Y-131672492D01*
X156158920Y-131741904D01*
X156150748Y-131750919D01*
X156096719Y-131804948D01*
X156087704Y-131813120D01*
X156018292Y-131870086D01*
X156010748Y-131875809D01*
X155948588Y-131919333D01*
X155935920Y-131927115D01*
X155855139Y-131970294D01*
X155849090Y-131973318D01*
X155782186Y-132004516D01*
X155765775Y-132010795D01*
X155672561Y-132039070D01*
X155668661Y-132040184D01*
X155613835Y-132054875D01*
X155605936Y-132056717D01*
X155587750Y-132060335D01*
X155575709Y-132062121D01*
X155453850Y-132074123D01*
X155439626Y-132075368D01*
X155413760Y-132077631D01*
X155402995Y-132078100D01*
X136721814Y-132078100D01*
X136711006Y-132077628D01*
X136670947Y-132074123D01*
X136549080Y-132062120D01*
X136537047Y-132060335D01*
X136518866Y-132056718D01*
X136510969Y-132054876D01*
X136456154Y-132040189D01*
X136452251Y-132039075D01*
X136359019Y-132010794D01*
X136342609Y-132004515D01*
X136275708Y-131973318D01*
X136269660Y-131970294D01*
X136188879Y-131927116D01*
X136176208Y-131919333D01*
X136114041Y-131875803D01*
X136106522Y-131870098D01*
X136037091Y-131813117D01*
X136028083Y-131804952D01*
X135974045Y-131750914D01*
X135965873Y-131741898D01*
X135908918Y-131672499D01*
X135903196Y-131664958D01*
X135903189Y-131664948D01*
X135859656Y-131602777D01*
X135851884Y-131590123D01*
X135808704Y-131509339D01*
X135805694Y-131503320D01*
X135774477Y-131436373D01*
X135768208Y-131419993D01*
X135739908Y-131326697D01*
X135738838Y-131322951D01*
X135724111Y-131267986D01*
X135722284Y-131260151D01*
X135718659Y-131241925D01*
X135716879Y-131229925D01*
X135715771Y-131218674D01*
X143211900Y-131218674D01*
X143226433Y-131291738D01*
X143226433Y-131291739D01*
X143226434Y-131291740D01*
X143281799Y-131374601D01*
X143364660Y-131429966D01*
X143396925Y-131436384D01*
X143437725Y-131444500D01*
X143437726Y-131444500D01*
X144537075Y-131444500D01*
X144561429Y-131439655D01*
X144610140Y-131429966D01*
X144693001Y-131374601D01*
X144743108Y-131299609D01*
X144796719Y-131254805D01*
X144846210Y-131244500D01*
X145555292Y-131244500D01*
X145622331Y-131264185D01*
X145657343Y-131298062D01*
X145661115Y-131303528D01*
X145661116Y-131303529D01*
X145661117Y-131303530D01*
X145779360Y-131408283D01*
X145919235Y-131481696D01*
X146072615Y-131519500D01*
X146230585Y-131519500D01*
X146383965Y-131481696D01*
X146523840Y-131408283D01*
X146642083Y-131303530D01*
X146645857Y-131298061D01*
X146700138Y-131254071D01*
X146747908Y-131244500D01*
X147253590Y-131244500D01*
X147320629Y-131264185D01*
X147356691Y-131299608D01*
X147406799Y-131374601D01*
X147489660Y-131429966D01*
X147521925Y-131436384D01*
X147562725Y-131444500D01*
X147562726Y-131444500D01*
X148662075Y-131444500D01*
X148686429Y-131439655D01*
X148735140Y-131429966D01*
X148818001Y-131374601D01*
X148873366Y-131291740D01*
X148887900Y-131218674D01*
X148887900Y-130519326D01*
X148873366Y-130446260D01*
X148818001Y-130363399D01*
X148735140Y-130308034D01*
X148735139Y-130308033D01*
X148735138Y-130308033D01*
X148662075Y-130293500D01*
X148662074Y-130293500D01*
X147562726Y-130293500D01*
X147562725Y-130293500D01*
X147489661Y-130308033D01*
X147406798Y-130363398D01*
X147406799Y-130363399D01*
X147356691Y-130438390D01*
X147303081Y-130483195D01*
X147253590Y-130493500D01*
X146747908Y-130493500D01*
X146680869Y-130473815D01*
X146645857Y-130439938D01*
X146642084Y-130434471D01*
X146642083Y-130434470D01*
X146523840Y-130329717D01*
X146482525Y-130308033D01*
X146383964Y-130256303D01*
X146230585Y-130218500D01*
X146072615Y-130218500D01*
X145919235Y-130256303D01*
X145779361Y-130329716D01*
X145661115Y-130434471D01*
X145657343Y-130439938D01*
X145603062Y-130483929D01*
X145555292Y-130493500D01*
X144846210Y-130493500D01*
X144779171Y-130473815D01*
X144743108Y-130438391D01*
X144693001Y-130363399D01*
X144610140Y-130308034D01*
X144610139Y-130308033D01*
X144610138Y-130308033D01*
X144537075Y-130293500D01*
X144537074Y-130293500D01*
X143437726Y-130293500D01*
X143437725Y-130293500D01*
X143364661Y-130308033D01*
X143281799Y-130363399D01*
X143226433Y-130446261D01*
X143211900Y-130519325D01*
X143211900Y-131218674D01*
X135715771Y-131218674D01*
X135704876Y-131108050D01*
X135701368Y-131067958D01*
X135700900Y-131057199D01*
X135700900Y-129106600D01*
X136067185Y-129106600D01*
X136086002Y-129309683D01*
X136141818Y-129505851D01*
X136232724Y-129688418D01*
X136355636Y-129851180D01*
X136506358Y-129988581D01*
X136679761Y-130095947D01*
X136679763Y-130095948D01*
X136869944Y-130169624D01*
X137070424Y-130207100D01*
X137070426Y-130207100D01*
X137274374Y-130207100D01*
X137274376Y-130207100D01*
X137474856Y-130169624D01*
X137665037Y-130095948D01*
X137838441Y-129988581D01*
X137989164Y-129851179D01*
X138112073Y-129688421D01*
X138112073Y-129688419D01*
X138112075Y-129688418D01*
X138157713Y-129596761D01*
X138202982Y-129505850D01*
X138258797Y-129309683D01*
X138277615Y-129106600D01*
X138264865Y-128969000D01*
X143212400Y-128969000D01*
X143212400Y-129068624D01*
X143226904Y-129141543D01*
X143282160Y-129224239D01*
X143364856Y-129279495D01*
X143437775Y-129294000D01*
X143737400Y-129294000D01*
X143737400Y-128969000D01*
X144237400Y-128969000D01*
X144237400Y-129294000D01*
X144537025Y-129294000D01*
X144609943Y-129279495D01*
X144692639Y-129224239D01*
X144747895Y-129141543D01*
X144762400Y-129068624D01*
X144762400Y-128969000D01*
X147362400Y-128969000D01*
X147362400Y-129068624D01*
X147376904Y-129141543D01*
X147432160Y-129224239D01*
X147514856Y-129279495D01*
X147587775Y-129294000D01*
X147887400Y-129294000D01*
X147887400Y-128969000D01*
X148387400Y-128969000D01*
X148387400Y-129294000D01*
X148687025Y-129294000D01*
X148759943Y-129279495D01*
X148842639Y-129224239D01*
X148897895Y-129141543D01*
X148912400Y-129068624D01*
X148912400Y-128969000D01*
X148387400Y-128969000D01*
X147887400Y-128969000D01*
X147362400Y-128969000D01*
X144762400Y-128969000D01*
X144237400Y-128969000D01*
X143737400Y-128969000D01*
X143212400Y-128969000D01*
X138264865Y-128969000D01*
X138258797Y-128903517D01*
X138202982Y-128707350D01*
X138197657Y-128696657D01*
X138185395Y-128627874D01*
X138212267Y-128563379D01*
X138220966Y-128553714D01*
X138305680Y-128469000D01*
X143212400Y-128469000D01*
X143737400Y-128469000D01*
X143737400Y-128144000D01*
X144237400Y-128144000D01*
X144237400Y-128469000D01*
X144762400Y-128469000D01*
X147362400Y-128469000D01*
X147887400Y-128469000D01*
X147887400Y-128144000D01*
X148387400Y-128144000D01*
X148387400Y-128469000D01*
X148912400Y-128469000D01*
X148912400Y-128369375D01*
X148897895Y-128296456D01*
X148842639Y-128213760D01*
X148759943Y-128158504D01*
X148687025Y-128144000D01*
X148387400Y-128144000D01*
X147887400Y-128144000D01*
X147587775Y-128144000D01*
X147514856Y-128158504D01*
X147432160Y-128213760D01*
X147376904Y-128296456D01*
X147362400Y-128369375D01*
X147362400Y-128469000D01*
X144762400Y-128469000D01*
X144762400Y-128369375D01*
X144747895Y-128296456D01*
X144692639Y-128213760D01*
X144609943Y-128158504D01*
X144537025Y-128144000D01*
X144237400Y-128144000D01*
X143737400Y-128144000D01*
X143437775Y-128144000D01*
X143364856Y-128158504D01*
X143282160Y-128213760D01*
X143226904Y-128296456D01*
X143212400Y-128369375D01*
X143212400Y-128469000D01*
X138305680Y-128469000D01*
X140090846Y-126683834D01*
X140110703Y-126667710D01*
X140118469Y-126662637D01*
X140136296Y-126639731D01*
X140146032Y-126628706D01*
X140146171Y-126628510D01*
X140146175Y-126628507D01*
X140157354Y-126612848D01*
X140160404Y-126608756D01*
X140190317Y-126570326D01*
X140190317Y-126570324D01*
X140194907Y-126564428D01*
X140197039Y-126557267D01*
X140210931Y-126510601D01*
X140212486Y-126505749D01*
X140216270Y-126494728D01*
X140228300Y-126459688D01*
X140228300Y-126459684D01*
X140230725Y-126452621D01*
X140230416Y-126445156D01*
X140230417Y-126445154D01*
X140228405Y-126396531D01*
X140228300Y-126391408D01*
X140228300Y-125370400D01*
X142373252Y-125370400D01*
X142377234Y-125395546D01*
X142434759Y-125508446D01*
X142524353Y-125598040D01*
X142637253Y-125655565D01*
X142730915Y-125670399D01*
X143337399Y-125670399D01*
X143337400Y-125670398D01*
X143337400Y-125370400D01*
X143837400Y-125370400D01*
X143837400Y-125670399D01*
X144443878Y-125670399D01*
X144537549Y-125655563D01*
X144650445Y-125598041D01*
X144740040Y-125508446D01*
X144797565Y-125395546D01*
X144801548Y-125370400D01*
X143837400Y-125370400D01*
X143337400Y-125370400D01*
X142373252Y-125370400D01*
X140228300Y-125370400D01*
X140228300Y-124100400D01*
X142373252Y-124100400D01*
X142377234Y-124125546D01*
X142434759Y-124238446D01*
X142524353Y-124328040D01*
X142616350Y-124374915D01*
X142667146Y-124422890D01*
X142683941Y-124490711D01*
X142661404Y-124556845D01*
X142616350Y-124595885D01*
X142524353Y-124642759D01*
X142434759Y-124732353D01*
X142377234Y-124845253D01*
X142373252Y-124870400D01*
X144801548Y-124870400D01*
X144797565Y-124845253D01*
X144740040Y-124732353D01*
X144650446Y-124642759D01*
X144558449Y-124595884D01*
X144507653Y-124547909D01*
X144490858Y-124480088D01*
X144513396Y-124413953D01*
X144558450Y-124374914D01*
X144650446Y-124328040D01*
X144740040Y-124238446D01*
X144797565Y-124125546D01*
X144801548Y-124100400D01*
X142373252Y-124100400D01*
X140228300Y-124100400D01*
X140228300Y-123789998D01*
X140247985Y-123722959D01*
X140300789Y-123677204D01*
X140369947Y-123667260D01*
X140433503Y-123696285D01*
X140434446Y-123697112D01*
X140470760Y-123729283D01*
X140610635Y-123802696D01*
X140764015Y-123840500D01*
X140921985Y-123840500D01*
X141075365Y-123802696D01*
X141215240Y-123729283D01*
X141333483Y-123624530D01*
X141423220Y-123494523D01*
X141479237Y-123346818D01*
X141498278Y-123190000D01*
X141479237Y-123033182D01*
X141423220Y-122885477D01*
X141385203Y-122830400D01*
X142373252Y-122830400D01*
X142377234Y-122855546D01*
X142434759Y-122968446D01*
X142524353Y-123058040D01*
X142616350Y-123104915D01*
X142667146Y-123152890D01*
X142683941Y-123220711D01*
X142661404Y-123286845D01*
X142616350Y-123325885D01*
X142524353Y-123372759D01*
X142434759Y-123462353D01*
X142377234Y-123575253D01*
X142373252Y-123600400D01*
X144801548Y-123600400D01*
X144797565Y-123575253D01*
X144740040Y-123462353D01*
X144650446Y-123372759D01*
X144558449Y-123325884D01*
X144507653Y-123277909D01*
X144490858Y-123210088D01*
X144513396Y-123143953D01*
X144558450Y-123104914D01*
X144650446Y-123058040D01*
X144740040Y-122968446D01*
X144797565Y-122855546D01*
X144801548Y-122830400D01*
X142373252Y-122830400D01*
X141385203Y-122830400D01*
X141364052Y-122799757D01*
X141342169Y-122733402D01*
X141354701Y-122674858D01*
X141402582Y-122576918D01*
X141410817Y-122520400D01*
X141413500Y-122501985D01*
X141413500Y-122158814D01*
X141402582Y-122083881D01*
X141346077Y-121968298D01*
X141285859Y-121908080D01*
X141252374Y-121846757D01*
X141257358Y-121777065D01*
X141285861Y-121732716D01*
X141296362Y-121722215D01*
X141357688Y-121688733D01*
X141384040Y-121685900D01*
X142370146Y-121685900D01*
X142437185Y-121705585D01*
X142457822Y-121722214D01*
X142524058Y-121788450D01*
X142587583Y-121820818D01*
X142615800Y-121835195D01*
X142666596Y-121883169D01*
X142683391Y-121950990D01*
X142660854Y-122017125D01*
X142615800Y-122056165D01*
X142524353Y-122102759D01*
X142434759Y-122192353D01*
X142377234Y-122305253D01*
X142373252Y-122330400D01*
X144801548Y-122330400D01*
X144797565Y-122305253D01*
X144740040Y-122192353D01*
X144650446Y-122102759D01*
X144558999Y-122056165D01*
X144508203Y-122008191D01*
X144491408Y-121940370D01*
X144513945Y-121874235D01*
X144559000Y-121835195D01*
X144587217Y-121820818D01*
X144650742Y-121788450D01*
X144740450Y-121698742D01*
X144798046Y-121585704D01*
X144812900Y-121491919D01*
X144812899Y-121157697D01*
X144832583Y-121090659D01*
X144885387Y-121044904D01*
X144954546Y-121034960D01*
X145018101Y-121063985D01*
X145024580Y-121070017D01*
X145213581Y-121259018D01*
X145247066Y-121320341D01*
X145249900Y-121346699D01*
X145249900Y-123450196D01*
X145247261Y-123475642D01*
X145245033Y-123486267D01*
X145248948Y-123517676D01*
X145249900Y-123533013D01*
X145249900Y-123533116D01*
X145253318Y-123553602D01*
X145254057Y-123558670D01*
X145261507Y-123618438D01*
X145261585Y-123618682D01*
X145290227Y-123671608D01*
X145292571Y-123676162D01*
X145319034Y-123730292D01*
X145319177Y-123730482D01*
X145324979Y-123735824D01*
X145324981Y-123735826D01*
X145363508Y-123771293D01*
X145367180Y-123774817D01*
X146941650Y-125349287D01*
X146957777Y-125369146D01*
X146963715Y-125378235D01*
X146988694Y-125397677D01*
X147000212Y-125407849D01*
X147000281Y-125407918D01*
X147017189Y-125419990D01*
X147021294Y-125423050D01*
X147057870Y-125451519D01*
X147068844Y-125460060D01*
X147069033Y-125460157D01*
X147076601Y-125462410D01*
X147126759Y-125477343D01*
X147131619Y-125478899D01*
X147181140Y-125495900D01*
X147181142Y-125495900D01*
X147188596Y-125498459D01*
X147188829Y-125498493D01*
X147196708Y-125498167D01*
X147196711Y-125498168D01*
X147248992Y-125496005D01*
X147254115Y-125495900D01*
X147320146Y-125495900D01*
X147387185Y-125515585D01*
X147407822Y-125532214D01*
X147474058Y-125598450D01*
X147587096Y-125656046D01*
X147680881Y-125670900D01*
X149393918Y-125670899D01*
X149487704Y-125656046D01*
X149600742Y-125598450D01*
X149666974Y-125532217D01*
X149728295Y-125498734D01*
X149754654Y-125495900D01*
X149951960Y-125495900D01*
X150018999Y-125515585D01*
X150039642Y-125532219D01*
X150039923Y-125532500D01*
X150039924Y-125532502D01*
X150090764Y-125583342D01*
X150130900Y-125623478D01*
X150246481Y-125679982D01*
X150321415Y-125690900D01*
X150321418Y-125690900D01*
X150664585Y-125690900D01*
X150758692Y-125677189D01*
X150759143Y-125680285D01*
X150796888Y-125673837D01*
X150861188Y-125701172D01*
X150900502Y-125758932D01*
X150902349Y-125828777D01*
X150898433Y-125840967D01*
X150874763Y-125903381D01*
X150855721Y-126060199D01*
X150874763Y-126217018D01*
X150930780Y-126364723D01*
X151020515Y-126494728D01*
X151020516Y-126494729D01*
X151020517Y-126494730D01*
X151138760Y-126599483D01*
X151278635Y-126672896D01*
X151432015Y-126710700D01*
X151589985Y-126710700D01*
X151743365Y-126672896D01*
X151883240Y-126599483D01*
X152001483Y-126494730D01*
X152091220Y-126364723D01*
X152147237Y-126217018D01*
X152166278Y-126060200D01*
X152147237Y-125903382D01*
X152112464Y-125811692D01*
X152091220Y-125755676D01*
X152038972Y-125679982D01*
X152001483Y-125625670D01*
X152001481Y-125625668D01*
X151995310Y-125616728D01*
X151973427Y-125550374D01*
X151985958Y-125491831D01*
X152022582Y-125416918D01*
X152023000Y-125414049D01*
X152033500Y-125341985D01*
X152033500Y-124898814D01*
X152022582Y-124823881D01*
X151966077Y-124708298D01*
X151924819Y-124667040D01*
X151891334Y-124605717D01*
X151888500Y-124579359D01*
X151888500Y-124391440D01*
X151908185Y-124324401D01*
X151924819Y-124303759D01*
X151939142Y-124289435D01*
X151966076Y-124262502D01*
X152022582Y-124146918D01*
X152033500Y-124071982D01*
X152033500Y-123628818D01*
X152033500Y-123628814D01*
X152022582Y-123553881D01*
X151966077Y-123438298D01*
X151875101Y-123347322D01*
X151759518Y-123290817D01*
X151684585Y-123279900D01*
X151684582Y-123279900D01*
X151341418Y-123279900D01*
X151341415Y-123279900D01*
X151266481Y-123290817D01*
X151150898Y-123347322D01*
X151090681Y-123407540D01*
X151029358Y-123441025D01*
X150959666Y-123436041D01*
X150915319Y-123407540D01*
X150855101Y-123347322D01*
X150739518Y-123290817D01*
X150664585Y-123279900D01*
X150664582Y-123279900D01*
X150321418Y-123279900D01*
X150321415Y-123279900D01*
X150246481Y-123290817D01*
X150130900Y-123347321D01*
X150105874Y-123372348D01*
X150039924Y-123438298D01*
X150039923Y-123438299D01*
X150039642Y-123438581D01*
X149978319Y-123472066D01*
X149951960Y-123474900D01*
X149754654Y-123474900D01*
X149687615Y-123455215D01*
X149666977Y-123438585D01*
X149600742Y-123372350D01*
X149600741Y-123372349D01*
X149508999Y-123325604D01*
X149458203Y-123277629D01*
X149441408Y-123209808D01*
X149463946Y-123143673D01*
X149509000Y-123104634D01*
X149600446Y-123058040D01*
X149690040Y-122968446D01*
X149747565Y-122855546D01*
X149751548Y-122830400D01*
X147323252Y-122830400D01*
X147327234Y-122855546D01*
X147384759Y-122968446D01*
X147474354Y-123058041D01*
X147565799Y-123104634D01*
X147616595Y-123152608D01*
X147633391Y-123220429D01*
X147610854Y-123286564D01*
X147565801Y-123325603D01*
X147474060Y-123372348D01*
X147474058Y-123372349D01*
X147474058Y-123372350D01*
X147407825Y-123438582D01*
X147346505Y-123472066D01*
X147320146Y-123474900D01*
X146817095Y-123474900D01*
X146750056Y-123455215D01*
X146729414Y-123438581D01*
X146487219Y-123196385D01*
X146453734Y-123135062D01*
X146450900Y-123108704D01*
X146450900Y-122520400D01*
X150150762Y-122520400D01*
X150152664Y-122532417D01*
X150208752Y-122642494D01*
X150296106Y-122729848D01*
X150406181Y-122785935D01*
X150448200Y-122792590D01*
X150448200Y-122520400D01*
X150948200Y-122520400D01*
X150948200Y-122792588D01*
X150990220Y-122785934D01*
X151100292Y-122729849D01*
X151187648Y-122642493D01*
X151243734Y-122532420D01*
X151245638Y-122520400D01*
X150948200Y-122520400D01*
X150448200Y-122520400D01*
X150150762Y-122520400D01*
X146450900Y-122520400D01*
X146450900Y-119639755D01*
X146470585Y-119572716D01*
X146523389Y-119526961D01*
X146592547Y-119517017D01*
X146656103Y-119546042D01*
X146658401Y-119548085D01*
X146661359Y-119550781D01*
X146661361Y-119550782D01*
X146661362Y-119550783D01*
X146767563Y-119616540D01*
X146834763Y-119658148D01*
X147024944Y-119731824D01*
X147225424Y-119769300D01*
X147225426Y-119769300D01*
X147429374Y-119769300D01*
X147429376Y-119769300D01*
X147629856Y-119731824D01*
X147820037Y-119658148D01*
X147993441Y-119550781D01*
X148144164Y-119413379D01*
X148267073Y-119250621D01*
X148267073Y-119250619D01*
X148267075Y-119250618D01*
X148317334Y-119149683D01*
X148357982Y-119068050D01*
X148413797Y-118871883D01*
X148432615Y-118668800D01*
X148413797Y-118465717D01*
X148357982Y-118269550D01*
X148324356Y-118202019D01*
X148267075Y-118086981D01*
X148144163Y-117924219D01*
X147993443Y-117786820D01*
X147870221Y-117710524D01*
X147823586Y-117658496D01*
X147812482Y-117589514D01*
X147833448Y-117534660D01*
X147874820Y-117474723D01*
X147874820Y-117474722D01*
X147879823Y-117467475D01*
X147934106Y-117423485D01*
X148003555Y-117415826D01*
X148066119Y-117446930D01*
X148069553Y-117450235D01*
X150148875Y-119529557D01*
X150182360Y-119590880D01*
X150177376Y-119660572D01*
X150135504Y-119716505D01*
X150090869Y-119737635D01*
X150008635Y-119757903D01*
X149868761Y-119831316D01*
X149750515Y-119936071D01*
X149660780Y-120066076D01*
X149604763Y-120213781D01*
X149585721Y-120370600D01*
X149604763Y-120527418D01*
X149636233Y-120610398D01*
X149641600Y-120680061D01*
X149608452Y-120741568D01*
X149547314Y-120775389D01*
X149500894Y-120776842D01*
X149393922Y-120759900D01*
X147680885Y-120759900D01*
X147642175Y-120766031D01*
X147587096Y-120774754D01*
X147587094Y-120774754D01*
X147587093Y-120774755D01*
X147474057Y-120832349D01*
X147384350Y-120922056D01*
X147326753Y-121035097D01*
X147311900Y-121128878D01*
X147311900Y-121491914D01*
X147311901Y-121491918D01*
X147326754Y-121585704D01*
X147326754Y-121585705D01*
X147326755Y-121585706D01*
X147384349Y-121698742D01*
X147474056Y-121788449D01*
X147474058Y-121788450D01*
X147537583Y-121820818D01*
X147565800Y-121835195D01*
X147616596Y-121883169D01*
X147633391Y-121950990D01*
X147610854Y-122017125D01*
X147565800Y-122056165D01*
X147474353Y-122102759D01*
X147384759Y-122192353D01*
X147327234Y-122305253D01*
X147323252Y-122330400D01*
X149751548Y-122330400D01*
X149747565Y-122305253D01*
X149690040Y-122192353D01*
X149600446Y-122102759D01*
X149508999Y-122056165D01*
X149458203Y-122008191D01*
X149441408Y-121940370D01*
X149463945Y-121874235D01*
X149509000Y-121835195D01*
X149537217Y-121820818D01*
X149600742Y-121788450D01*
X149666974Y-121722217D01*
X149728295Y-121688734D01*
X149754654Y-121685900D01*
X150121796Y-121685900D01*
X150188835Y-121705585D01*
X150234590Y-121758389D01*
X150244534Y-121827547D01*
X150215509Y-121891103D01*
X150209477Y-121897581D01*
X150208751Y-121898306D01*
X150152665Y-122008379D01*
X150150761Y-122020399D01*
X150150761Y-122020400D01*
X151245638Y-122020400D01*
X151243735Y-122008382D01*
X151187647Y-121898305D01*
X151167777Y-121878435D01*
X151134292Y-121817112D01*
X151139276Y-121747420D01*
X151167776Y-121703073D01*
X151188059Y-121682791D01*
X151244217Y-121572575D01*
X151258700Y-121481135D01*
X151258699Y-121139666D01*
X151258699Y-121139665D01*
X151258699Y-121139662D01*
X151244217Y-121048225D01*
X151188060Y-120938010D01*
X151148630Y-120898580D01*
X151107187Y-120857137D01*
X151073704Y-120795817D01*
X151072566Y-120789896D01*
X151070273Y-120776156D01*
X151069545Y-120771160D01*
X151068521Y-120762949D01*
X151079762Y-120693993D01*
X151126500Y-120642057D01*
X151193897Y-120623635D01*
X151260555Y-120644575D01*
X151279250Y-120659932D01*
X151860781Y-121241462D01*
X151894266Y-121302785D01*
X151897100Y-121329143D01*
X151897100Y-122403960D01*
X151894461Y-122429406D01*
X151892557Y-122438485D01*
X151896148Y-122467293D01*
X151897058Y-122481967D01*
X151900265Y-122501185D01*
X151901003Y-122506250D01*
X151907951Y-122561981D01*
X151934681Y-122611374D01*
X151937021Y-122615919D01*
X151958402Y-122659656D01*
X151958403Y-122659657D01*
X151961684Y-122666368D01*
X151967181Y-122671428D01*
X151967182Y-122671430D01*
X151970904Y-122674856D01*
X152002999Y-122704402D01*
X152006697Y-122707951D01*
X152908581Y-123609835D01*
X152942066Y-123671158D01*
X152944900Y-123697516D01*
X152944900Y-125426073D01*
X152942261Y-125451519D01*
X152940358Y-125460594D01*
X152943948Y-125489397D01*
X152944859Y-125504081D01*
X152948067Y-125523308D01*
X152948805Y-125528374D01*
X152955750Y-125584091D01*
X152959307Y-125590665D01*
X152959308Y-125590666D01*
X152974355Y-125618472D01*
X152989300Y-125677487D01*
X152989300Y-127444788D01*
X152986661Y-127470234D01*
X152984757Y-127479313D01*
X152988348Y-127508121D01*
X152989258Y-127522795D01*
X152992465Y-127542013D01*
X152993203Y-127547078D01*
X153000151Y-127602809D01*
X153026881Y-127652202D01*
X153029221Y-127656747D01*
X153050602Y-127700484D01*
X153050603Y-127700485D01*
X153053884Y-127707196D01*
X153059381Y-127712256D01*
X153059382Y-127712258D01*
X153095199Y-127745230D01*
X153098897Y-127748779D01*
X153903822Y-128553704D01*
X153937307Y-128615027D01*
X153932323Y-128684719D01*
X153927144Y-128696651D01*
X153921818Y-128707347D01*
X153866002Y-128903516D01*
X153847185Y-129106600D01*
X153866002Y-129309683D01*
X153921818Y-129505851D01*
X154012724Y-129688418D01*
X154135636Y-129851180D01*
X154286358Y-129988581D01*
X154459761Y-130095947D01*
X154459763Y-130095948D01*
X154649944Y-130169624D01*
X154850424Y-130207100D01*
X154850426Y-130207100D01*
X155054374Y-130207100D01*
X155054376Y-130207100D01*
X155254856Y-130169624D01*
X155445037Y-130095948D01*
X155618441Y-129988581D01*
X155769164Y-129851179D01*
X155892073Y-129688421D01*
X155892073Y-129688419D01*
X155892075Y-129688418D01*
X155937713Y-129596761D01*
X155982982Y-129505850D01*
X156038797Y-129309683D01*
X156057615Y-129106600D01*
X156038797Y-128903517D01*
X155982982Y-128707350D01*
X155937890Y-128616792D01*
X155892075Y-128524781D01*
X155769163Y-128362019D01*
X155618441Y-128224618D01*
X155445038Y-128117252D01*
X155254857Y-128043576D01*
X155188029Y-128031083D01*
X155054376Y-128006100D01*
X154850424Y-128006100D01*
X154649944Y-128043576D01*
X154607921Y-128059855D01*
X154534362Y-128088352D01*
X154464739Y-128094213D01*
X154402999Y-128061503D01*
X154401888Y-128060406D01*
X153726619Y-127385137D01*
X153693134Y-127323814D01*
X153690300Y-127297456D01*
X153690300Y-127028115D01*
X153709985Y-126961076D01*
X153762789Y-126915321D01*
X153831947Y-126905377D01*
X153895503Y-126934402D01*
X153925300Y-126972844D01*
X154012724Y-127148418D01*
X154135636Y-127311180D01*
X154286358Y-127448581D01*
X154437257Y-127542013D01*
X154459763Y-127555948D01*
X154649944Y-127629624D01*
X154850424Y-127667100D01*
X154850426Y-127667100D01*
X155054374Y-127667100D01*
X155054376Y-127667100D01*
X155254856Y-127629624D01*
X155445037Y-127555948D01*
X155618441Y-127448581D01*
X155769164Y-127311179D01*
X155892073Y-127148421D01*
X155892073Y-127148419D01*
X155892075Y-127148418D01*
X155979499Y-126972844D01*
X155982982Y-126965850D01*
X156038797Y-126769683D01*
X156057615Y-126566600D01*
X156038797Y-126363517D01*
X155982982Y-126167350D01*
X155977657Y-126156656D01*
X155892075Y-125984781D01*
X155769163Y-125822019D01*
X155618441Y-125684618D01*
X155445038Y-125577252D01*
X155254857Y-125503576D01*
X155188029Y-125491083D01*
X155054376Y-125466100D01*
X154850424Y-125466100D01*
X154649944Y-125503576D01*
X154648011Y-125504325D01*
X154534362Y-125548352D01*
X154464739Y-125554213D01*
X154402999Y-125521503D01*
X154401888Y-125520406D01*
X154082219Y-125200737D01*
X154048734Y-125139414D01*
X154045900Y-125113056D01*
X154045900Y-124970207D01*
X154065585Y-124903168D01*
X154118389Y-124857413D01*
X154187547Y-124847469D01*
X154251103Y-124876494D01*
X154253438Y-124878570D01*
X154286358Y-124908581D01*
X154459761Y-125015947D01*
X154459763Y-125015948D01*
X154649944Y-125089624D01*
X154850424Y-125127100D01*
X154850426Y-125127100D01*
X155054374Y-125127100D01*
X155054376Y-125127100D01*
X155254856Y-125089624D01*
X155445037Y-125015948D01*
X155618441Y-124908581D01*
X155708205Y-124826750D01*
X155769163Y-124771180D01*
X155840443Y-124676790D01*
X155892073Y-124608421D01*
X155892073Y-124608419D01*
X155892075Y-124608418D01*
X155951707Y-124488659D01*
X155982982Y-124425850D01*
X156038797Y-124229683D01*
X156057615Y-124026600D01*
X156038797Y-123823517D01*
X156024940Y-123774817D01*
X155996220Y-123673877D01*
X155982982Y-123627350D01*
X155977659Y-123616660D01*
X155892075Y-123444781D01*
X155769163Y-123282019D01*
X155618441Y-123144618D01*
X155445038Y-123037252D01*
X155254857Y-122963576D01*
X155151529Y-122944261D01*
X155054376Y-122926100D01*
X154850424Y-122926100D01*
X154649944Y-122963576D01*
X154637373Y-122968446D01*
X154534362Y-123008352D01*
X154464739Y-123014213D01*
X154402999Y-122981503D01*
X154401888Y-122980406D01*
X153927732Y-122506250D01*
X153434419Y-122012936D01*
X153400934Y-121951613D01*
X153398100Y-121925255D01*
X153398100Y-121381086D01*
X153417785Y-121314047D01*
X153470589Y-121268292D01*
X153539747Y-121258348D01*
X153603303Y-121287373D01*
X153609774Y-121293398D01*
X153820041Y-121503666D01*
X153853525Y-121564987D01*
X153855830Y-121579904D01*
X153866002Y-121689683D01*
X153921818Y-121885851D01*
X154012724Y-122068418D01*
X154135636Y-122231180D01*
X154286358Y-122368581D01*
X154459761Y-122475947D01*
X154459763Y-122475948D01*
X154649944Y-122549624D01*
X154850424Y-122587100D01*
X154850426Y-122587100D01*
X155054374Y-122587100D01*
X155054376Y-122587100D01*
X155254856Y-122549624D01*
X155445037Y-122475948D01*
X155618441Y-122368581D01*
X155769164Y-122231179D01*
X155892073Y-122068421D01*
X155892073Y-122068419D01*
X155892075Y-122068418D01*
X155955834Y-121940370D01*
X155982982Y-121885850D01*
X156038797Y-121689683D01*
X156057615Y-121486600D01*
X156038797Y-121283517D01*
X156031826Y-121259018D01*
X155994799Y-121128882D01*
X155982982Y-121087350D01*
X155961847Y-121044904D01*
X155892075Y-120904781D01*
X155769163Y-120742019D01*
X155618441Y-120604618D01*
X155445038Y-120497252D01*
X155254857Y-120423576D01*
X155184509Y-120410426D01*
X155054376Y-120386100D01*
X154850424Y-120386100D01*
X154750183Y-120404838D01*
X154649942Y-120423576D01*
X154459761Y-120497252D01*
X154286361Y-120604617D01*
X154178210Y-120703209D01*
X154115405Y-120733825D01*
X154046018Y-120725627D01*
X154006991Y-120699252D01*
X152816520Y-119508781D01*
X152783035Y-119447458D01*
X152788019Y-119377766D01*
X152829891Y-119321833D01*
X152895355Y-119297416D01*
X152904201Y-119297100D01*
X153820766Y-119297100D01*
X153887805Y-119316785D01*
X153931765Y-119365827D01*
X153979100Y-119460890D01*
X154012727Y-119528422D01*
X154135636Y-119691180D01*
X154286358Y-119828581D01*
X154459761Y-119935947D01*
X154459763Y-119935948D01*
X154649944Y-120009624D01*
X154850424Y-120047100D01*
X154850426Y-120047100D01*
X155054374Y-120047100D01*
X155054376Y-120047100D01*
X155254856Y-120009624D01*
X155445037Y-119935948D01*
X155618441Y-119828581D01*
X155769164Y-119691179D01*
X155892073Y-119528421D01*
X155892073Y-119528419D01*
X155892075Y-119528418D01*
X155949357Y-119413379D01*
X155982982Y-119345850D01*
X156038797Y-119149683D01*
X156057615Y-118946600D01*
X156038797Y-118743517D01*
X155982982Y-118547350D01*
X155942334Y-118465717D01*
X155892075Y-118364781D01*
X155769163Y-118202019D01*
X155618441Y-118064618D01*
X155445038Y-117957252D01*
X155254857Y-117883576D01*
X155182129Y-117869981D01*
X155054376Y-117846100D01*
X154850424Y-117846100D01*
X154750183Y-117864838D01*
X154649942Y-117883576D01*
X154459761Y-117957252D01*
X154286358Y-118064618D01*
X154135636Y-118202019D01*
X154012727Y-118364777D01*
X153965210Y-118460205D01*
X153931765Y-118527372D01*
X153884264Y-118578608D01*
X153820766Y-118596100D01*
X152520887Y-118596100D01*
X152453848Y-118576415D01*
X152433206Y-118559781D01*
X148699219Y-114825793D01*
X148665734Y-114764470D01*
X148662900Y-114738112D01*
X148662900Y-114392976D01*
X148682585Y-114325937D01*
X148706369Y-114298685D01*
X148721000Y-114286189D01*
X148721000Y-113638000D01*
X148740685Y-113570961D01*
X148793489Y-113525206D01*
X148845000Y-113514000D01*
X149097000Y-113514000D01*
X149164039Y-113533685D01*
X149209794Y-113586489D01*
X149221000Y-113638000D01*
X149221000Y-114286188D01*
X149263020Y-114279534D01*
X149373091Y-114223450D01*
X149399899Y-114196642D01*
X149461221Y-114163156D01*
X149530913Y-114168140D01*
X149575262Y-114196641D01*
X149625698Y-114247077D01*
X149741281Y-114303582D01*
X149816215Y-114314500D01*
X149816218Y-114314500D01*
X149959527Y-114314500D01*
X150026566Y-114334185D01*
X150072321Y-114386989D01*
X150082622Y-114453445D01*
X150077723Y-114493798D01*
X150077723Y-114493799D01*
X150096764Y-114650617D01*
X150152781Y-114798322D01*
X150242516Y-114928327D01*
X150242517Y-114928328D01*
X150242518Y-114928329D01*
X150360761Y-115033082D01*
X150500636Y-115106495D01*
X150654016Y-115144299D01*
X150811986Y-115144299D01*
X150965366Y-115106495D01*
X151105241Y-115033082D01*
X151223484Y-114928329D01*
X151313221Y-114798322D01*
X151313220Y-114798322D01*
X151317669Y-114791878D01*
X151371952Y-114747888D01*
X151441400Y-114740228D01*
X151503965Y-114771331D01*
X151507400Y-114774637D01*
X153368250Y-116635487D01*
X153384377Y-116655346D01*
X153390315Y-116664435D01*
X153415294Y-116683877D01*
X153426812Y-116694049D01*
X153426881Y-116694118D01*
X153443789Y-116706190D01*
X153447894Y-116709250D01*
X153489211Y-116741409D01*
X153489212Y-116741409D01*
X153495443Y-116746259D01*
X153495634Y-116746357D01*
X153503200Y-116748609D01*
X153503201Y-116748610D01*
X153553355Y-116763541D01*
X153558192Y-116765090D01*
X153607740Y-116782100D01*
X153615197Y-116784660D01*
X153615430Y-116784693D01*
X153623309Y-116784367D01*
X153623312Y-116784368D01*
X153675593Y-116782205D01*
X153680716Y-116782100D01*
X153833214Y-116782100D01*
X153900253Y-116801785D01*
X153944214Y-116850829D01*
X154012724Y-116988418D01*
X154135636Y-117151180D01*
X154286358Y-117288581D01*
X154459761Y-117395947D01*
X154459763Y-117395948D01*
X154649944Y-117469624D01*
X154850424Y-117507100D01*
X154850426Y-117507100D01*
X155054374Y-117507100D01*
X155054376Y-117507100D01*
X155254856Y-117469624D01*
X155445037Y-117395948D01*
X155618441Y-117288581D01*
X155769164Y-117151179D01*
X155892073Y-116988421D01*
X155892073Y-116988419D01*
X155892075Y-116988418D01*
X155951148Y-116869781D01*
X155982982Y-116805850D01*
X156038797Y-116609683D01*
X156057615Y-116406600D01*
X156038797Y-116203517D01*
X155982982Y-116007350D01*
X155945931Y-115932941D01*
X155892075Y-115824781D01*
X155769163Y-115662019D01*
X155618441Y-115524618D01*
X155445038Y-115417252D01*
X155254857Y-115343576D01*
X155188029Y-115331083D01*
X155054376Y-115306100D01*
X154850424Y-115306100D01*
X154750183Y-115324838D01*
X154649942Y-115343576D01*
X154459761Y-115417252D01*
X154286358Y-115524618D01*
X154135636Y-115662019D01*
X154012726Y-115824779D01*
X153958868Y-115932941D01*
X153911365Y-115984178D01*
X153843702Y-116001599D01*
X153777362Y-115979673D01*
X153760187Y-115965350D01*
X150644619Y-112849781D01*
X150611134Y-112788458D01*
X150608300Y-112762100D01*
X150608300Y-112602414D01*
X150597382Y-112527481D01*
X150591476Y-112515400D01*
X150887362Y-112515400D01*
X150889264Y-112527417D01*
X150945352Y-112637494D01*
X151032706Y-112724848D01*
X151142781Y-112780935D01*
X151184800Y-112787590D01*
X151184800Y-112515400D01*
X150887362Y-112515400D01*
X150591476Y-112515400D01*
X150540877Y-112411898D01*
X150449901Y-112320922D01*
X150334318Y-112264417D01*
X150259385Y-112253500D01*
X150259382Y-112253500D01*
X149816218Y-112253500D01*
X149811900Y-112253500D01*
X149744861Y-112233815D01*
X149699106Y-112181011D01*
X149687900Y-112129500D01*
X149687900Y-112126375D01*
X149690494Y-112108566D01*
X149690168Y-112100690D01*
X149690169Y-112100688D01*
X149688006Y-112048392D01*
X149687900Y-112043268D01*
X149687900Y-111377326D01*
X149687899Y-111377316D01*
X149687899Y-111235699D01*
X149707584Y-111168660D01*
X149760388Y-111122905D01*
X149811899Y-111111699D01*
X149922798Y-111111699D01*
X149922806Y-111111700D01*
X149937240Y-111111700D01*
X150658701Y-111111700D01*
X150725740Y-111131385D01*
X150746382Y-111148019D01*
X150837981Y-111239618D01*
X150871466Y-111300941D01*
X150874300Y-111327298D01*
X150874300Y-111476137D01*
X150888782Y-111567574D01*
X150944940Y-111677791D01*
X150965222Y-111698073D01*
X150998707Y-111759396D01*
X150993723Y-111829088D01*
X150965224Y-111873434D01*
X150945350Y-111893307D01*
X150889265Y-112003379D01*
X150887361Y-112015399D01*
X150887361Y-112015400D01*
X151560800Y-112015400D01*
X151627839Y-112035085D01*
X151673594Y-112087889D01*
X151684800Y-112139400D01*
X151684800Y-112787588D01*
X151741286Y-112778643D01*
X151810580Y-112787600D01*
X151864031Y-112832597D01*
X151884669Y-112899349D01*
X151876624Y-112945087D01*
X151865363Y-112974779D01*
X151846321Y-113131600D01*
X151865363Y-113288418D01*
X151921380Y-113436123D01*
X152011115Y-113566128D01*
X152011116Y-113566129D01*
X152011117Y-113566130D01*
X152129360Y-113670883D01*
X152269235Y-113744296D01*
X152422615Y-113782100D01*
X152580585Y-113782100D01*
X152733965Y-113744296D01*
X152873840Y-113670883D01*
X152992083Y-113566130D01*
X153081820Y-113436123D01*
X153137837Y-113288418D01*
X153156878Y-113131600D01*
X153137837Y-112974782D01*
X153081820Y-112827077D01*
X153081818Y-112827075D01*
X153081758Y-112826915D01*
X153076391Y-112757252D01*
X153109538Y-112695746D01*
X153170677Y-112661924D01*
X153240395Y-112666526D01*
X153285381Y-112695263D01*
X153903822Y-113313704D01*
X153937307Y-113375027D01*
X153932323Y-113444719D01*
X153927144Y-113456651D01*
X153921818Y-113467347D01*
X153866002Y-113663516D01*
X153847185Y-113866599D01*
X153866002Y-114069683D01*
X153921818Y-114265851D01*
X154012724Y-114448418D01*
X154135636Y-114611180D01*
X154286358Y-114748581D01*
X154459761Y-114855947D01*
X154459763Y-114855948D01*
X154649944Y-114929624D01*
X154850424Y-114967100D01*
X154850426Y-114967100D01*
X155054374Y-114967100D01*
X155054376Y-114967100D01*
X155254856Y-114929624D01*
X155445037Y-114855948D01*
X155618441Y-114748581D01*
X155769164Y-114611179D01*
X155892073Y-114448421D01*
X155892073Y-114448419D01*
X155892075Y-114448418D01*
X155975102Y-114281675D01*
X155982982Y-114265850D01*
X156038797Y-114069683D01*
X156057615Y-113866600D01*
X156038797Y-113663517D01*
X155982982Y-113467350D01*
X155965329Y-113431898D01*
X155892075Y-113284781D01*
X155769163Y-113122019D01*
X155618441Y-112984618D01*
X155445038Y-112877252D01*
X155254857Y-112803576D01*
X155169327Y-112787588D01*
X155054376Y-112766100D01*
X154850424Y-112766100D01*
X154649944Y-112803576D01*
X154624425Y-112813462D01*
X154534362Y-112848352D01*
X154464739Y-112854213D01*
X154402999Y-112821503D01*
X154401888Y-112820406D01*
X153548819Y-111967336D01*
X153515334Y-111906013D01*
X153512500Y-111879655D01*
X153512500Y-111049828D01*
X153515139Y-111024381D01*
X153517043Y-111015302D01*
X153513452Y-110986493D01*
X153512541Y-110971830D01*
X153512500Y-110971584D01*
X153512500Y-110971577D01*
X153509330Y-110952582D01*
X153508595Y-110947536D01*
X153506079Y-110927350D01*
X153502573Y-110899224D01*
X153502572Y-110899222D01*
X153501648Y-110891808D01*
X153498092Y-110885237D01*
X153498092Y-110885236D01*
X153474913Y-110842405D01*
X153472579Y-110837870D01*
X153447915Y-110787418D01*
X153406588Y-110749374D01*
X153402890Y-110745826D01*
X152455446Y-109798381D01*
X152421961Y-109737058D01*
X152426945Y-109667366D01*
X152468817Y-109611433D01*
X152534281Y-109587016D01*
X152543127Y-109586700D01*
X152665456Y-109586700D01*
X152732495Y-109606385D01*
X152753137Y-109623019D01*
X153903822Y-110773704D01*
X153937307Y-110835027D01*
X153932323Y-110904719D01*
X153927144Y-110916651D01*
X153921818Y-110927347D01*
X153866002Y-111123516D01*
X153847185Y-111326599D01*
X153866002Y-111529683D01*
X153921818Y-111725851D01*
X154012724Y-111908418D01*
X154135636Y-112071180D01*
X154286358Y-112208581D01*
X154438258Y-112302633D01*
X154459763Y-112315948D01*
X154649944Y-112389624D01*
X154850424Y-112427100D01*
X154850426Y-112427100D01*
X155054374Y-112427100D01*
X155054376Y-112427100D01*
X155254856Y-112389624D01*
X155445037Y-112315948D01*
X155618441Y-112208581D01*
X155717262Y-112118494D01*
X155769163Y-112071180D01*
X155769164Y-112071179D01*
X155892073Y-111908421D01*
X155892073Y-111908419D01*
X155892075Y-111908418D01*
X155949864Y-111792360D01*
X155982982Y-111725850D01*
X156038797Y-111529683D01*
X156057615Y-111326600D01*
X156038948Y-111125142D01*
X156038797Y-111123516D01*
X156008007Y-111015302D01*
X155982982Y-110927350D01*
X155959817Y-110880828D01*
X155892075Y-110744781D01*
X155769163Y-110582019D01*
X155618441Y-110444618D01*
X155445038Y-110337252D01*
X155254857Y-110263576D01*
X155188029Y-110251083D01*
X155054376Y-110226100D01*
X154850424Y-110226100D01*
X154649944Y-110263576D01*
X154616232Y-110276636D01*
X154534362Y-110308352D01*
X154464739Y-110314213D01*
X154402999Y-110281503D01*
X154401888Y-110280406D01*
X153419863Y-109298381D01*
X153386378Y-109237058D01*
X153391362Y-109167366D01*
X153433234Y-109111433D01*
X153498698Y-109087016D01*
X153507544Y-109086700D01*
X153799967Y-109086700D01*
X153867006Y-109106385D01*
X153912761Y-109159189D01*
X153919234Y-109176767D01*
X153921819Y-109185854D01*
X154012724Y-109368418D01*
X154135636Y-109531180D01*
X154286358Y-109668581D01*
X154459761Y-109775947D01*
X154459763Y-109775948D01*
X154649944Y-109849624D01*
X154850424Y-109887100D01*
X154850426Y-109887100D01*
X155054374Y-109887100D01*
X155054376Y-109887100D01*
X155254856Y-109849624D01*
X155445037Y-109775948D01*
X155618441Y-109668581D01*
X155702440Y-109592006D01*
X155769163Y-109531180D01*
X155770106Y-109529931D01*
X155892073Y-109368421D01*
X155892073Y-109368419D01*
X155892075Y-109368418D01*
X155937713Y-109276761D01*
X155982982Y-109185850D01*
X156038797Y-108989683D01*
X156057615Y-108786600D01*
X156038797Y-108583517D01*
X155982982Y-108387350D01*
X155979799Y-108380958D01*
X155892075Y-108204781D01*
X155769163Y-108042019D01*
X155618441Y-107904618D01*
X155445038Y-107797252D01*
X155254857Y-107723576D01*
X155188029Y-107711083D01*
X155054376Y-107686100D01*
X154850424Y-107686100D01*
X154750183Y-107704838D01*
X154649942Y-107723576D01*
X154459761Y-107797252D01*
X154286358Y-107904618D01*
X154135636Y-108042019D01*
X154012728Y-108204777D01*
X153956863Y-108316971D01*
X153909360Y-108368208D01*
X153845862Y-108385700D01*
X153608344Y-108385700D01*
X153541305Y-108366015D01*
X153495550Y-108313211D01*
X153485606Y-108244053D01*
X153514631Y-108180497D01*
X153520663Y-108174019D01*
X153725153Y-107969529D01*
X154401889Y-107292791D01*
X154463210Y-107259308D01*
X154532901Y-107264292D01*
X154534330Y-107264835D01*
X154649944Y-107309624D01*
X154850424Y-107347100D01*
X154850426Y-107347100D01*
X155054374Y-107347100D01*
X155054376Y-107347100D01*
X155254856Y-107309624D01*
X155445037Y-107235948D01*
X155618441Y-107128581D01*
X155756336Y-107002873D01*
X155769163Y-106991180D01*
X155772924Y-106986200D01*
X155892073Y-106828421D01*
X155892073Y-106828419D01*
X155892075Y-106828418D01*
X155937890Y-106736407D01*
X155982982Y-106645850D01*
X156038797Y-106449683D01*
X156057615Y-106246600D01*
X156038797Y-106043517D01*
X155982982Y-105847350D01*
X155959642Y-105800476D01*
X155892075Y-105664781D01*
X155769163Y-105502019D01*
X155618441Y-105364618D01*
X155445038Y-105257252D01*
X155254857Y-105183576D01*
X155186136Y-105170730D01*
X155054376Y-105146100D01*
X154850424Y-105146100D01*
X154750183Y-105164838D01*
X154649942Y-105183576D01*
X154459761Y-105257252D01*
X154285977Y-105364855D01*
X154218617Y-105383410D01*
X154151917Y-105362602D01*
X154107056Y-105309037D01*
X154096700Y-105259428D01*
X154096700Y-105109343D01*
X154116385Y-105042304D01*
X154133015Y-105021666D01*
X154401889Y-104752791D01*
X154463210Y-104719308D01*
X154532901Y-104724292D01*
X154534330Y-104724835D01*
X154649944Y-104769624D01*
X154850424Y-104807100D01*
X154850426Y-104807100D01*
X155054374Y-104807100D01*
X155054376Y-104807100D01*
X155254856Y-104769624D01*
X155445037Y-104695948D01*
X155618441Y-104588581D01*
X155769164Y-104451179D01*
X155892073Y-104288421D01*
X155892073Y-104288419D01*
X155892075Y-104288418D01*
X155958420Y-104155177D01*
X155982982Y-104105850D01*
X156038797Y-103909683D01*
X156057615Y-103706600D01*
X156038797Y-103503517D01*
X156038455Y-103502316D01*
X155982981Y-103307348D01*
X155892075Y-103124781D01*
X155769163Y-102962019D01*
X155618441Y-102824618D01*
X155445038Y-102717252D01*
X155254857Y-102643576D01*
X155175222Y-102628690D01*
X155054376Y-102606100D01*
X154850424Y-102606100D01*
X154750183Y-102624838D01*
X154649942Y-102643576D01*
X154459761Y-102717252D01*
X154311377Y-102809128D01*
X154244017Y-102827683D01*
X154177317Y-102806875D01*
X154132456Y-102753310D01*
X154122100Y-102703701D01*
X154122100Y-102543943D01*
X154141785Y-102476904D01*
X154158415Y-102456266D01*
X154401889Y-102212791D01*
X154463210Y-102179308D01*
X154532901Y-102184292D01*
X154534330Y-102184835D01*
X154649944Y-102229624D01*
X154850424Y-102267100D01*
X154850426Y-102267100D01*
X155054374Y-102267100D01*
X155054376Y-102267100D01*
X155254856Y-102229624D01*
X155445037Y-102155948D01*
X155618441Y-102048581D01*
X155769164Y-101911179D01*
X155892073Y-101748421D01*
X155892073Y-101748419D01*
X155892075Y-101748418D01*
X155981455Y-101568916D01*
X155982982Y-101565850D01*
X156038797Y-101369683D01*
X156057615Y-101166600D01*
X156038797Y-100963517D01*
X155982982Y-100767350D01*
X155961799Y-100724809D01*
X155892075Y-100584781D01*
X155769163Y-100422019D01*
X155618441Y-100284618D01*
X155445038Y-100177252D01*
X155254857Y-100103576D01*
X155188029Y-100091083D01*
X155054376Y-100066100D01*
X154850424Y-100066100D01*
X154750183Y-100084838D01*
X154649942Y-100103576D01*
X154459761Y-100177252D01*
X154286358Y-100284618D01*
X154135636Y-100422019D01*
X154012724Y-100584781D01*
X153950700Y-100709345D01*
X153903197Y-100760583D01*
X153835535Y-100778004D01*
X153769194Y-100756079D01*
X153725239Y-100701767D01*
X153715700Y-100654074D01*
X153715700Y-100410343D01*
X153735385Y-100343304D01*
X153752019Y-100322662D01*
X154065281Y-100009400D01*
X154401889Y-99672791D01*
X154463210Y-99639308D01*
X154532901Y-99644292D01*
X154534330Y-99644835D01*
X154649944Y-99689624D01*
X154850424Y-99727100D01*
X154850426Y-99727100D01*
X155054374Y-99727100D01*
X155054376Y-99727100D01*
X155254856Y-99689624D01*
X155445037Y-99615948D01*
X155618441Y-99508581D01*
X155696900Y-99437056D01*
X155769163Y-99371180D01*
X155793163Y-99339399D01*
X155892073Y-99208421D01*
X155892073Y-99208419D01*
X155892075Y-99208418D01*
X155955042Y-99081961D01*
X155982982Y-99025850D01*
X156038797Y-98829683D01*
X156057615Y-98626600D01*
X156038797Y-98423517D01*
X156038461Y-98422337D01*
X156004706Y-98303702D01*
X155982982Y-98227350D01*
X155962463Y-98186142D01*
X155892075Y-98044781D01*
X155769163Y-97882019D01*
X155618441Y-97744618D01*
X155445038Y-97637252D01*
X155254857Y-97563576D01*
X155134619Y-97541100D01*
X155054376Y-97526100D01*
X154850424Y-97526100D01*
X154770181Y-97541100D01*
X154649942Y-97563576D01*
X154459761Y-97637252D01*
X154286358Y-97744618D01*
X154135636Y-97882019D01*
X154012724Y-98044781D01*
X153921818Y-98227348D01*
X153866002Y-98423516D01*
X153847185Y-98626600D01*
X153866002Y-98829683D01*
X153921817Y-99025850D01*
X153927142Y-99036543D01*
X153939402Y-99105328D01*
X153912528Y-99169823D01*
X153903822Y-99179494D01*
X153527381Y-99555936D01*
X153466058Y-99589421D01*
X153396367Y-99584437D01*
X153340433Y-99542566D01*
X153316016Y-99477101D01*
X153315700Y-99468255D01*
X153315700Y-98270343D01*
X153335385Y-98203304D01*
X153352014Y-98182666D01*
X154401889Y-97132791D01*
X154463210Y-97099308D01*
X154532902Y-97104292D01*
X154534329Y-97104835D01*
X154649944Y-97149624D01*
X154850424Y-97187100D01*
X154850426Y-97187100D01*
X155054374Y-97187100D01*
X155054376Y-97187100D01*
X155254856Y-97149624D01*
X155445037Y-97075948D01*
X155618441Y-96968581D01*
X155644547Y-96944782D01*
X155769163Y-96831180D01*
X155805772Y-96782702D01*
X155892073Y-96668421D01*
X155892073Y-96668419D01*
X155892075Y-96668418D01*
X155948251Y-96555600D01*
X155982982Y-96485850D01*
X156038797Y-96289683D01*
X156057615Y-96086600D01*
X156038797Y-95883517D01*
X156035230Y-95870982D01*
X156002744Y-95756807D01*
X155982982Y-95687350D01*
X155982609Y-95686601D01*
X155892075Y-95504781D01*
X155769163Y-95342019D01*
X155618441Y-95204618D01*
X155445038Y-95097252D01*
X155254857Y-95023576D01*
X155188029Y-95011083D01*
X155054376Y-94986100D01*
X154850424Y-94986100D01*
X154750183Y-95004838D01*
X154649942Y-95023576D01*
X154459761Y-95097252D01*
X154286358Y-95204618D01*
X154135636Y-95342019D01*
X154012724Y-95504781D01*
X153921818Y-95687348D01*
X153866002Y-95883516D01*
X153847185Y-96086600D01*
X153866002Y-96289683D01*
X153921817Y-96485850D01*
X153927142Y-96496543D01*
X153939402Y-96565328D01*
X153912528Y-96629823D01*
X153903822Y-96639494D01*
X152885981Y-97657335D01*
X152824658Y-97690820D01*
X152754966Y-97685836D01*
X152699033Y-97643964D01*
X152674616Y-97578500D01*
X152674300Y-97569654D01*
X152674300Y-96371742D01*
X152693985Y-96304703D01*
X152710614Y-96284066D01*
X154401889Y-94592791D01*
X154463210Y-94559308D01*
X154532902Y-94564292D01*
X154534329Y-94564835D01*
X154649944Y-94609624D01*
X154850424Y-94647100D01*
X154850426Y-94647100D01*
X155054374Y-94647100D01*
X155054376Y-94647100D01*
X155254856Y-94609624D01*
X155445037Y-94535948D01*
X155618441Y-94428581D01*
X155769164Y-94291179D01*
X155892073Y-94128421D01*
X155892073Y-94128419D01*
X155892075Y-94128418D01*
X155951074Y-94009931D01*
X155982982Y-93945850D01*
X156038797Y-93749683D01*
X156057615Y-93546600D01*
X156038797Y-93343517D01*
X155982982Y-93147350D01*
X155982609Y-93146601D01*
X155892075Y-92964781D01*
X155769163Y-92802019D01*
X155618441Y-92664618D01*
X155445038Y-92557252D01*
X155254857Y-92483576D01*
X155188029Y-92471083D01*
X155054376Y-92446100D01*
X154850424Y-92446100D01*
X154750183Y-92464838D01*
X154649942Y-92483576D01*
X154459761Y-92557252D01*
X154286358Y-92664618D01*
X154135636Y-92802019D01*
X154012724Y-92964781D01*
X153921818Y-93147348D01*
X153866002Y-93343516D01*
X153847185Y-93546599D01*
X153866002Y-93749683D01*
X153921817Y-93945850D01*
X153927142Y-93956543D01*
X153939402Y-94025328D01*
X153912528Y-94089823D01*
X153903822Y-94099494D01*
X152110755Y-95892561D01*
X152090904Y-95908683D01*
X152083132Y-95913761D01*
X152065300Y-95936671D01*
X152055565Y-95947696D01*
X152044241Y-95963557D01*
X152041192Y-95967645D01*
X152030818Y-95980975D01*
X152006691Y-96011973D01*
X151990671Y-96065782D01*
X151989109Y-96070658D01*
X151970874Y-96123777D01*
X151973194Y-96179868D01*
X151973300Y-96184992D01*
X151973300Y-99208604D01*
X151953615Y-99275643D01*
X151925497Y-99300662D01*
X151926329Y-99301494D01*
X151911699Y-99316123D01*
X151911698Y-99316124D01*
X151888423Y-99339399D01*
X151820721Y-99407100D01*
X151764217Y-99522681D01*
X151753300Y-99597614D01*
X151753300Y-99940785D01*
X151764217Y-100015718D01*
X151820721Y-100131299D01*
X151820723Y-100131301D01*
X151820724Y-100131302D01*
X151880941Y-100191519D01*
X151914425Y-100252840D01*
X151909441Y-100322532D01*
X151880941Y-100366880D01*
X151820722Y-100427099D01*
X151764217Y-100542681D01*
X151753300Y-100617614D01*
X151753300Y-100960785D01*
X151764217Y-101035715D01*
X151790530Y-101089540D01*
X151802289Y-101158413D01*
X151774945Y-101222710D01*
X151717181Y-101262017D01*
X151685858Y-101266941D01*
X151684800Y-101267999D01*
X151684800Y-102094000D01*
X151665115Y-102161039D01*
X151612311Y-102206794D01*
X151560800Y-102218000D01*
X150709801Y-102218000D01*
X150709801Y-102235124D01*
X150710154Y-102241725D01*
X150715882Y-102295006D01*
X150763616Y-102422986D01*
X150845469Y-102532330D01*
X150954813Y-102614183D01*
X150987972Y-102626551D01*
X151043905Y-102668423D01*
X151068322Y-102733887D01*
X151053470Y-102802160D01*
X151004065Y-102851565D01*
X150987973Y-102858914D01*
X150954573Y-102871371D01*
X150845112Y-102953312D01*
X150763172Y-103062773D01*
X150715388Y-103190883D01*
X150715388Y-103190886D01*
X150709300Y-103247515D01*
X150709300Y-103250824D01*
X150709300Y-103250825D01*
X150709301Y-103788484D01*
X150709176Y-103783811D01*
X150693128Y-103851626D01*
X150642832Y-103900125D01*
X150574300Y-103913733D01*
X150532989Y-103902612D01*
X150457028Y-103867190D01*
X150415541Y-103861729D01*
X150407468Y-103861200D01*
X150124900Y-103861200D01*
X150124900Y-104236700D01*
X150105215Y-104303739D01*
X150052411Y-104349494D01*
X150000900Y-104360700D01*
X149998900Y-104360700D01*
X149931861Y-104341015D01*
X149886106Y-104288211D01*
X149874900Y-104236700D01*
X149874900Y-103861200D01*
X149811900Y-103861200D01*
X149744861Y-103841515D01*
X149699106Y-103788711D01*
X149687900Y-103737200D01*
X149687900Y-103024204D01*
X149707585Y-102957165D01*
X149724219Y-102936523D01*
X149737804Y-102922937D01*
X149871121Y-102789619D01*
X149890973Y-102773498D01*
X149900068Y-102767557D01*
X149919509Y-102742577D01*
X149929681Y-102731060D01*
X149929752Y-102730990D01*
X149941846Y-102714049D01*
X149944880Y-102709981D01*
X149977041Y-102668662D01*
X149977041Y-102668660D01*
X149981898Y-102662421D01*
X149981985Y-102662252D01*
X149984242Y-102654672D01*
X149999186Y-102604474D01*
X150000723Y-102599675D01*
X150017732Y-102550133D01*
X150017732Y-102550129D01*
X150020292Y-102542672D01*
X150020326Y-102542439D01*
X150020000Y-102534563D01*
X150020001Y-102534561D01*
X150017838Y-102482265D01*
X150017732Y-102477141D01*
X150017732Y-102311755D01*
X150037417Y-102244716D01*
X150059501Y-102218943D01*
X150132715Y-102154083D01*
X150222452Y-102024076D01*
X150278469Y-101876371D01*
X150297510Y-101719553D01*
X150297321Y-101718000D01*
X150709800Y-101718000D01*
X151184800Y-101718000D01*
X151184800Y-101268000D01*
X151142675Y-101268000D01*
X151136073Y-101268354D01*
X151082793Y-101274082D01*
X150954813Y-101321816D01*
X150845469Y-101403669D01*
X150763616Y-101513013D01*
X150715882Y-101640992D01*
X150710154Y-101694269D01*
X150709800Y-101700886D01*
X150709800Y-101718000D01*
X150297321Y-101718000D01*
X150278469Y-101562735D01*
X150222452Y-101415030D01*
X150132715Y-101285023D01*
X150014472Y-101180270D01*
X150014470Y-101180269D01*
X150003203Y-101170287D01*
X150006239Y-101166859D01*
X149976542Y-101138108D01*
X149960400Y-101076930D01*
X149960400Y-100859400D01*
X150460400Y-100859400D01*
X150460400Y-101156837D01*
X150472417Y-101154935D01*
X150582494Y-101098847D01*
X150669848Y-101011493D01*
X150725935Y-100901418D01*
X150732590Y-100859400D01*
X150460400Y-100859400D01*
X149960400Y-100859400D01*
X149960400Y-100359400D01*
X150460400Y-100359400D01*
X150732590Y-100359400D01*
X150725935Y-100317383D01*
X150719777Y-100305297D01*
X150706880Y-100236628D01*
X150733155Y-100171887D01*
X150790261Y-100131629D01*
X150830261Y-100125000D01*
X151075025Y-100125000D01*
X151147943Y-100110495D01*
X151230639Y-100055239D01*
X151285895Y-99972543D01*
X151300400Y-99899624D01*
X151300400Y-99525000D01*
X150600400Y-99525000D01*
X150600400Y-100041000D01*
X150580715Y-100108039D01*
X150527911Y-100153794D01*
X150476400Y-100165000D01*
X150460400Y-100165000D01*
X150460400Y-100359400D01*
X149960400Y-100359400D01*
X149960400Y-100133400D01*
X149980085Y-100066361D01*
X150032889Y-100020606D01*
X150084400Y-100009400D01*
X150100400Y-100009400D01*
X150100400Y-99149000D01*
X150120085Y-99081961D01*
X150172889Y-99036206D01*
X150224400Y-99025000D01*
X151300400Y-99025000D01*
X151300400Y-98650375D01*
X151285895Y-98577456D01*
X151230359Y-98494340D01*
X151209482Y-98427663D01*
X151227967Y-98360283D01*
X151230359Y-98356560D01*
X151230998Y-98355602D01*
X151231001Y-98355601D01*
X151286366Y-98272740D01*
X151300900Y-98199674D01*
X151300900Y-96950326D01*
X151286366Y-96877260D01*
X151231001Y-96794399D01*
X151157626Y-96745372D01*
X151112821Y-96691761D01*
X151104114Y-96622436D01*
X151134268Y-96559408D01*
X151183180Y-96526090D01*
X151252854Y-96500103D01*
X151366631Y-96414931D01*
X151451803Y-96301154D01*
X151501471Y-96167991D01*
X151507800Y-96109121D01*
X151507799Y-95102080D01*
X151501471Y-95043209D01*
X151496639Y-95030255D01*
X151451803Y-94910046D01*
X151366631Y-94796268D01*
X151247965Y-94707437D01*
X151206093Y-94651504D01*
X151201109Y-94581812D01*
X151210875Y-94553709D01*
X151236378Y-94501542D01*
X151271882Y-94428918D01*
X151276249Y-94398943D01*
X151282800Y-94353985D01*
X151282800Y-93910814D01*
X151271882Y-93835883D01*
X151270151Y-93832343D01*
X151236249Y-93762994D01*
X151231668Y-93753623D01*
X151219908Y-93684750D01*
X151247251Y-93620452D01*
X151287177Y-93591945D01*
X151298573Y-93583413D01*
X151298578Y-93583412D01*
X151410916Y-93499316D01*
X151495012Y-93386978D01*
X151544051Y-93255499D01*
X151550300Y-93197374D01*
X151550300Y-92629026D01*
X151544051Y-92570901D01*
X151495012Y-92439422D01*
X151410916Y-92327084D01*
X151410917Y-92327084D01*
X151410915Y-92327082D01*
X151362488Y-92290830D01*
X151320618Y-92234896D01*
X151312800Y-92191564D01*
X151312800Y-91514700D01*
X151332485Y-91447661D01*
X151385289Y-91401906D01*
X151436800Y-91390700D01*
X152120290Y-91390700D01*
X152123600Y-91390700D01*
X152177913Y-91384861D01*
X152229424Y-91373655D01*
X152255798Y-91366419D01*
X152326625Y-91326087D01*
X152342425Y-91317090D01*
X152342425Y-91317089D01*
X152342428Y-91317088D01*
X152395232Y-91271333D01*
X152426857Y-91238559D01*
X152473065Y-91150224D01*
X152492750Y-91083185D01*
X152503100Y-91011200D01*
X152503100Y-91006600D01*
X153847185Y-91006600D01*
X153847437Y-91009322D01*
X153866002Y-91209683D01*
X153921818Y-91405851D01*
X154012724Y-91588418D01*
X154135636Y-91751180D01*
X154286358Y-91888581D01*
X154459761Y-91995947D01*
X154459763Y-91995948D01*
X154649944Y-92069624D01*
X154850424Y-92107100D01*
X154850426Y-92107100D01*
X155054374Y-92107100D01*
X155054376Y-92107100D01*
X155254856Y-92069624D01*
X155445037Y-91995948D01*
X155618441Y-91888581D01*
X155769164Y-91751179D01*
X155892073Y-91588421D01*
X155892073Y-91588419D01*
X155892075Y-91588418D01*
X155949837Y-91472414D01*
X155982982Y-91405850D01*
X156038797Y-91209683D01*
X156057615Y-91006600D01*
X156038797Y-90803517D01*
X155982982Y-90607350D01*
X155953564Y-90548270D01*
X155892075Y-90424781D01*
X155769163Y-90262019D01*
X155618441Y-90124618D01*
X155445038Y-90017252D01*
X155254857Y-89943576D01*
X155188029Y-89931083D01*
X155054376Y-89906100D01*
X154850424Y-89906100D01*
X154750183Y-89924838D01*
X154649942Y-89943576D01*
X154459761Y-90017252D01*
X154286358Y-90124618D01*
X154135636Y-90262019D01*
X154012724Y-90424781D01*
X153921818Y-90607348D01*
X153866002Y-90803516D01*
X153848339Y-90994141D01*
X153847185Y-91006600D01*
X152503100Y-91006600D01*
X152503100Y-89557400D01*
X152497261Y-89503087D01*
X152486055Y-89451576D01*
X152478819Y-89425202D01*
X152460683Y-89393354D01*
X152429490Y-89338574D01*
X152385545Y-89287859D01*
X152385543Y-89287857D01*
X152383733Y-89285768D01*
X152350959Y-89254143D01*
X152262624Y-89207935D01*
X152195584Y-89188249D01*
X152123600Y-89177900D01*
X150815550Y-89177900D01*
X150748511Y-89158215D01*
X150702756Y-89105411D01*
X150692812Y-89036253D01*
X150721837Y-88972697D01*
X150727869Y-88966219D01*
X150728270Y-88965818D01*
X150789593Y-88932333D01*
X150815951Y-88929499D01*
X150943814Y-88929499D01*
X150943818Y-88929499D01*
X151037604Y-88914646D01*
X151150642Y-88857050D01*
X151240350Y-88767342D01*
X151297946Y-88654304D01*
X151312800Y-88560519D01*
X151312800Y-88466600D01*
X153847185Y-88466600D01*
X153866002Y-88669683D01*
X153921818Y-88865851D01*
X154012724Y-89048418D01*
X154135636Y-89211180D01*
X154286358Y-89348581D01*
X154459761Y-89455947D01*
X154459763Y-89455948D01*
X154649944Y-89529624D01*
X154850424Y-89567100D01*
X154850426Y-89567100D01*
X155054374Y-89567100D01*
X155054376Y-89567100D01*
X155254856Y-89529624D01*
X155445037Y-89455948D01*
X155618441Y-89348581D01*
X155722036Y-89254142D01*
X155769163Y-89211180D01*
X155802663Y-89166819D01*
X155892073Y-89048421D01*
X155892073Y-89048419D01*
X155892075Y-89048418D01*
X155941487Y-88949183D01*
X155982982Y-88865850D01*
X156038797Y-88669683D01*
X156057615Y-88466600D01*
X156038797Y-88263517D01*
X156036457Y-88255294D01*
X155982981Y-88067348D01*
X155892075Y-87884781D01*
X155769163Y-87722019D01*
X155618441Y-87584618D01*
X155445038Y-87477252D01*
X155254857Y-87403576D01*
X155188029Y-87391083D01*
X155054376Y-87366100D01*
X154850424Y-87366100D01*
X154783036Y-87378697D01*
X154649942Y-87403576D01*
X154459761Y-87477252D01*
X154286358Y-87584618D01*
X154135636Y-87722019D01*
X154012724Y-87884781D01*
X153921818Y-88067348D01*
X153866002Y-88263516D01*
X153847185Y-88466600D01*
X151312800Y-88466600D01*
X151312800Y-88020384D01*
X151312800Y-86976167D01*
X151332485Y-86909129D01*
X151337522Y-86901871D01*
X151407512Y-86808378D01*
X151456551Y-86676899D01*
X151462800Y-86618774D01*
X151462800Y-86050426D01*
X151456551Y-85992301D01*
X151432045Y-85926599D01*
X153847185Y-85926599D01*
X153866002Y-86129683D01*
X153921818Y-86325851D01*
X154012724Y-86508418D01*
X154135636Y-86671180D01*
X154286358Y-86808581D01*
X154459761Y-86915947D01*
X154459763Y-86915948D01*
X154649944Y-86989624D01*
X154850424Y-87027100D01*
X154850426Y-87027100D01*
X155054374Y-87027100D01*
X155054376Y-87027100D01*
X155254856Y-86989624D01*
X155445037Y-86915948D01*
X155618441Y-86808581D01*
X155747607Y-86690831D01*
X155769163Y-86671180D01*
X155769164Y-86671179D01*
X155892073Y-86508421D01*
X155892073Y-86508419D01*
X155892075Y-86508418D01*
X155941543Y-86409072D01*
X155982982Y-86325850D01*
X156038797Y-86129683D01*
X156057615Y-85926600D01*
X156038797Y-85723517D01*
X156030401Y-85694010D01*
X156008020Y-85615349D01*
X155982982Y-85527350D01*
X155953685Y-85468513D01*
X155892075Y-85344781D01*
X155769163Y-85182019D01*
X155618441Y-85044618D01*
X155445038Y-84937252D01*
X155254857Y-84863576D01*
X155188029Y-84851083D01*
X155054376Y-84826100D01*
X154850424Y-84826100D01*
X154750183Y-84844838D01*
X154649942Y-84863576D01*
X154459761Y-84937252D01*
X154286358Y-85044618D01*
X154135636Y-85182019D01*
X154012724Y-85344781D01*
X153921818Y-85527348D01*
X153866002Y-85723516D01*
X153847185Y-85926599D01*
X151432045Y-85926599D01*
X151407512Y-85860822D01*
X151323416Y-85748484D01*
X151323414Y-85748483D01*
X151323414Y-85748482D01*
X151260309Y-85701242D01*
X151218437Y-85645309D01*
X151213453Y-85575617D01*
X151246938Y-85514294D01*
X151260299Y-85502715D01*
X151341231Y-85442131D01*
X151426403Y-85328354D01*
X151476071Y-85195191D01*
X151482400Y-85136321D01*
X151482399Y-84129280D01*
X151476071Y-84070409D01*
X151465511Y-84042098D01*
X151426402Y-83937244D01*
X151424231Y-83934343D01*
X151399816Y-83868878D01*
X151399500Y-83860036D01*
X151399500Y-83308052D01*
X151400404Y-83293105D01*
X151404278Y-83261199D01*
X151400404Y-83229294D01*
X151399500Y-83214347D01*
X151399500Y-83136599D01*
X153879871Y-83136599D01*
X153879872Y-83136600D01*
X154518714Y-83136600D01*
X154492907Y-83176756D01*
X154452400Y-83314711D01*
X154452400Y-83458489D01*
X154492907Y-83596444D01*
X154518714Y-83636600D01*
X153879872Y-83636600D01*
X153922286Y-83785669D01*
X154013151Y-83968153D01*
X154136007Y-84130841D01*
X154286659Y-84268178D01*
X154459988Y-84375499D01*
X154650079Y-84449139D01*
X154702400Y-84458920D01*
X154702400Y-83822101D01*
X154810085Y-83871280D01*
X154916637Y-83886600D01*
X154988163Y-83886600D01*
X155094715Y-83871280D01*
X155202400Y-83822101D01*
X155202400Y-84458920D01*
X155254720Y-84449139D01*
X155444811Y-84375499D01*
X155618140Y-84268178D01*
X155768792Y-84130841D01*
X155891648Y-83968153D01*
X155982513Y-83785669D01*
X156024928Y-83636600D01*
X155386086Y-83636600D01*
X155411893Y-83596444D01*
X155452400Y-83458489D01*
X155452400Y-83314711D01*
X155411893Y-83176756D01*
X155386086Y-83136600D01*
X156024928Y-83136600D01*
X156024928Y-83136599D01*
X155982513Y-82987530D01*
X155891648Y-82805046D01*
X155768792Y-82642358D01*
X155618140Y-82505021D01*
X155444811Y-82397700D01*
X155254717Y-82324058D01*
X155202401Y-82314278D01*
X155202400Y-82314279D01*
X155202400Y-82951098D01*
X155094715Y-82901920D01*
X154988163Y-82886600D01*
X154916637Y-82886600D01*
X154810085Y-82901920D01*
X154702400Y-82951098D01*
X154702400Y-82314279D01*
X154702398Y-82314278D01*
X154650082Y-82324058D01*
X154459988Y-82397700D01*
X154286659Y-82505021D01*
X154136007Y-82642358D01*
X154013151Y-82805046D01*
X153922286Y-82987530D01*
X153879871Y-83136599D01*
X151399500Y-83136599D01*
X151399500Y-82718407D01*
X151419185Y-82651368D01*
X151435819Y-82630726D01*
X152533127Y-81533419D01*
X152594450Y-81499934D01*
X152620808Y-81497100D01*
X153727900Y-81497100D01*
X153794939Y-81516785D01*
X153840694Y-81569589D01*
X153851900Y-81621100D01*
X153851900Y-81721274D01*
X153866433Y-81794338D01*
X153866433Y-81794339D01*
X153866434Y-81794340D01*
X153921799Y-81877201D01*
X154004660Y-81932566D01*
X154041192Y-81939832D01*
X154077725Y-81947100D01*
X154077726Y-81947100D01*
X155827075Y-81947100D01*
X155851429Y-81942255D01*
X155900140Y-81932566D01*
X155983001Y-81877201D01*
X156038366Y-81794340D01*
X156052900Y-81721274D01*
X156052900Y-79971926D01*
X156038366Y-79898860D01*
X155983001Y-79815999D01*
X155900140Y-79760634D01*
X155900139Y-79760633D01*
X155900138Y-79760633D01*
X155827075Y-79746100D01*
X155827074Y-79746100D01*
X154077726Y-79746100D01*
X154077725Y-79746100D01*
X154004661Y-79760633D01*
X153921799Y-79815999D01*
X153866433Y-79898861D01*
X153851900Y-79971925D01*
X153851900Y-80072100D01*
X153832215Y-80139139D01*
X153779411Y-80184894D01*
X153727900Y-80196100D01*
X152385504Y-80196100D01*
X152364294Y-80193758D01*
X152291737Y-80196039D01*
X152287842Y-80196100D01*
X152259075Y-80196100D01*
X152255213Y-80196587D01*
X152255192Y-80196589D01*
X152254681Y-80196654D01*
X152243059Y-80197568D01*
X152197430Y-80199002D01*
X152177051Y-80204923D01*
X152158007Y-80208867D01*
X152143639Y-80210682D01*
X152136941Y-80211529D01*
X152094490Y-80228336D01*
X152083443Y-80232118D01*
X152039598Y-80244856D01*
X152021330Y-80255660D01*
X152003864Y-80264217D01*
X151984129Y-80272031D01*
X151947202Y-80298860D01*
X151937442Y-80305271D01*
X151898136Y-80328517D01*
X151883125Y-80343528D01*
X151868336Y-80356158D01*
X151851164Y-80368634D01*
X151822057Y-80403818D01*
X151814196Y-80412456D01*
X151378894Y-80847758D01*
X151317571Y-80881243D01*
X151259021Y-80877055D01*
X151266510Y-80923265D01*
X151238625Y-80987329D01*
X151231158Y-80995494D01*
X150349484Y-81877168D01*
X150332832Y-81890509D01*
X150299166Y-81926359D01*
X150291006Y-81934286D01*
X150258515Y-81963070D01*
X150246666Y-81980238D01*
X150235011Y-81994679D01*
X150218550Y-82012208D01*
X150208322Y-82030812D01*
X150197645Y-82047067D01*
X150184635Y-82063839D01*
X150182201Y-82069465D01*
X150170455Y-82090648D01*
X150168781Y-82093072D01*
X150160046Y-82116104D01*
X150152769Y-82131863D01*
X150139373Y-82156232D01*
X150134091Y-82176800D01*
X150127791Y-82195198D01*
X150119364Y-82214671D01*
X150118996Y-82216999D01*
X150112835Y-82240177D01*
X150109340Y-82268960D01*
X150106350Y-82284841D01*
X150098500Y-82315419D01*
X150098500Y-82336645D01*
X150096973Y-82356043D01*
X150093486Y-82378057D01*
X150093275Y-82393921D01*
X150097596Y-82429504D01*
X150098500Y-82444451D01*
X150098500Y-83214347D01*
X150097596Y-83229294D01*
X150093721Y-83261199D01*
X150097596Y-83293105D01*
X150098500Y-83308052D01*
X150098500Y-83847746D01*
X150078815Y-83914785D01*
X150073769Y-83922054D01*
X150062396Y-83937245D01*
X150012729Y-84070406D01*
X150011169Y-84084922D01*
X150006400Y-84129279D01*
X150006400Y-84132587D01*
X150006400Y-84132588D01*
X150006400Y-85133008D01*
X150006400Y-85133026D01*
X150006401Y-85136320D01*
X150006753Y-85139600D01*
X150006754Y-85139608D01*
X150012729Y-85195194D01*
X150062396Y-85328353D01*
X150147566Y-85442128D01*
X150147567Y-85442129D01*
X150147569Y-85442131D01*
X150160932Y-85452134D01*
X150202802Y-85508067D01*
X150207787Y-85577758D01*
X150174303Y-85639082D01*
X150152391Y-85653165D01*
X150152795Y-85653704D01*
X150138523Y-85664387D01*
X150138522Y-85664388D01*
X150026184Y-85748484D01*
X149942088Y-85860822D01*
X149929320Y-85895056D01*
X149928215Y-85898018D01*
X149886343Y-85953952D01*
X149820878Y-85978368D01*
X149752606Y-85963516D01*
X149703200Y-85914110D01*
X149695852Y-85898019D01*
X149682067Y-85861063D01*
X149598059Y-85748840D01*
X149471564Y-85654148D01*
X149471766Y-85653877D01*
X149431023Y-85623376D01*
X149406609Y-85557911D01*
X149421463Y-85489639D01*
X149455986Y-85449800D01*
X149466231Y-85442131D01*
X149551403Y-85328354D01*
X149601071Y-85195191D01*
X149607400Y-85136321D01*
X149607399Y-84129280D01*
X149601071Y-84070409D01*
X149590511Y-84042098D01*
X149551403Y-83937246D01*
X149466231Y-83823468D01*
X149352454Y-83738297D01*
X149219293Y-83688629D01*
X149163707Y-83682653D01*
X149163701Y-83682652D01*
X149160421Y-83682300D01*
X149157111Y-83682300D01*
X148581691Y-83682300D01*
X148581672Y-83682300D01*
X148578380Y-83682301D01*
X148575100Y-83682653D01*
X148575091Y-83682654D01*
X148519505Y-83688629D01*
X148386346Y-83738296D01*
X148272568Y-83823468D01*
X148187397Y-83937245D01*
X148137729Y-84070406D01*
X148137606Y-84071554D01*
X148134544Y-84078944D01*
X148132285Y-84085003D01*
X148132068Y-84084922D01*
X148110868Y-84136105D01*
X148053476Y-84175954D01*
X148014316Y-84182300D01*
X147936900Y-84182300D01*
X147869861Y-84162615D01*
X147824106Y-84109811D01*
X147812900Y-84058300D01*
X147812900Y-81754325D01*
X147798366Y-81681261D01*
X147798366Y-81681260D01*
X147743001Y-81598399D01*
X147660140Y-81543034D01*
X147660139Y-81543033D01*
X147660138Y-81543033D01*
X147587075Y-81528500D01*
X147587074Y-81528500D01*
X147137726Y-81528500D01*
X147137724Y-81528500D01*
X147061590Y-81543644D01*
X147013206Y-81543644D01*
X146965893Y-81534232D01*
X146903982Y-81501846D01*
X146869409Y-81441129D01*
X146867612Y-81432007D01*
X146867567Y-81431726D01*
X146827417Y-81308145D01*
X146768433Y-81192373D01*
X146692060Y-81087249D01*
X146678663Y-81073851D01*
X146672480Y-81067667D01*
X146672473Y-81067659D01*
X146666251Y-81061437D01*
X146645494Y-81040680D01*
X146612010Y-80979360D01*
X146616993Y-80909669D01*
X146658864Y-80853734D01*
X146724328Y-80829316D01*
X146733176Y-80829000D01*
X146962400Y-80829000D01*
X146962400Y-79879000D01*
X147462400Y-79879000D01*
X147462400Y-80829000D01*
X148137025Y-80829000D01*
X148209943Y-80814495D01*
X148313149Y-80745536D01*
X148314039Y-80746868D01*
X148337905Y-80726921D01*
X148407230Y-80718211D01*
X148470259Y-80748363D01*
X148476278Y-80755309D01*
X148564856Y-80814495D01*
X148637775Y-80829000D01*
X149562400Y-80829000D01*
X149562400Y-79879000D01*
X150062400Y-79879000D01*
X150062400Y-80829000D01*
X150987025Y-80829000D01*
X151059941Y-80814495D01*
X151074585Y-80804711D01*
X151141262Y-80783833D01*
X151176717Y-80793559D01*
X151167529Y-80768923D01*
X151182381Y-80700650D01*
X151188111Y-80691185D01*
X151197895Y-80676541D01*
X151212400Y-80603624D01*
X151212400Y-79879000D01*
X150062400Y-79879000D01*
X149562400Y-79879000D01*
X147462400Y-79879000D01*
X146962400Y-79879000D01*
X142562400Y-79879000D01*
X142562400Y-80829000D01*
X143487025Y-80829000D01*
X143559943Y-80814495D01*
X143663149Y-80745536D01*
X143664039Y-80746868D01*
X143687905Y-80726921D01*
X143757230Y-80718211D01*
X143820259Y-80748363D01*
X143840505Y-80771728D01*
X143845866Y-80779752D01*
X143842475Y-80782017D01*
X143857154Y-80799555D01*
X143865912Y-80868873D01*
X143835803Y-80931923D01*
X143831175Y-80936810D01*
X143700364Y-81067620D01*
X143700360Y-81067623D01*
X143693994Y-81073988D01*
X143693956Y-81074008D01*
X143611727Y-81156241D01*
X143535355Y-81261364D01*
X143476367Y-81377143D01*
X143436219Y-81500721D01*
X143415896Y-81629061D01*
X143415900Y-81687099D01*
X143415900Y-84050697D01*
X143415917Y-84050903D01*
X143415917Y-84070405D01*
X143415917Y-84098543D01*
X143416445Y-84102559D01*
X143416446Y-84102564D01*
X143436491Y-84254850D01*
X143438592Y-84270812D01*
X143439638Y-84274716D01*
X143439640Y-84274726D01*
X143482507Y-84434723D01*
X143482510Y-84434732D01*
X143483559Y-84438647D01*
X143485114Y-84442402D01*
X143485115Y-84442404D01*
X143548495Y-84595427D01*
X143548499Y-84595436D01*
X143550049Y-84599177D01*
X143552075Y-84602686D01*
X143634893Y-84746140D01*
X143634898Y-84746147D01*
X143636923Y-84749655D01*
X143639396Y-84752878D01*
X143639398Y-84752881D01*
X143740224Y-84884286D01*
X143740228Y-84884290D01*
X143742696Y-84887507D01*
X143775314Y-84920126D01*
X143775326Y-84920140D01*
X143804126Y-84948940D01*
X143849253Y-84994070D01*
X143849265Y-84994080D01*
X144877792Y-86022607D01*
X144877795Y-86022611D01*
X144905299Y-86050115D01*
X144908920Y-86053735D01*
X144918631Y-86063446D01*
X144926794Y-86072452D01*
X144934621Y-86081988D01*
X144974198Y-86130210D01*
X144987703Y-86150421D01*
X145020042Y-86210918D01*
X145029345Y-86233374D01*
X145049261Y-86299017D01*
X145054004Y-86322857D01*
X145061302Y-86396911D01*
X145061900Y-86409072D01*
X145061900Y-100868789D01*
X145042215Y-100935828D01*
X144989411Y-100981583D01*
X144920253Y-100991527D01*
X144856697Y-100962502D01*
X144827415Y-100925084D01*
X144801847Y-100874905D01*
X144714494Y-100787552D01*
X144604418Y-100731465D01*
X144562400Y-100724809D01*
X144562400Y-101373000D01*
X144542715Y-101440039D01*
X144489911Y-101485794D01*
X144438400Y-101497000D01*
X144186400Y-101497000D01*
X144119361Y-101477315D01*
X144073606Y-101424511D01*
X144062400Y-101373000D01*
X144062400Y-100724809D01*
X144020381Y-100731464D01*
X143910306Y-100787551D01*
X143822951Y-100874906D01*
X143771584Y-100975719D01*
X143723610Y-101026514D01*
X143655789Y-101043309D01*
X143589654Y-101020771D01*
X143546203Y-100966056D01*
X143537100Y-100919423D01*
X143537100Y-98453611D01*
X143539739Y-98428164D01*
X143539844Y-98427663D01*
X143541643Y-98419085D01*
X143538052Y-98390276D01*
X143537141Y-98375613D01*
X143537100Y-98375367D01*
X143537100Y-98375360D01*
X143533930Y-98356365D01*
X143533195Y-98351319D01*
X143527173Y-98303007D01*
X143527172Y-98303005D01*
X143526248Y-98295591D01*
X143522692Y-98289020D01*
X143522692Y-98289019D01*
X143499513Y-98246188D01*
X143497179Y-98241653D01*
X143495952Y-98239144D01*
X143476657Y-98199674D01*
X143472515Y-98191201D01*
X143431189Y-98153158D01*
X143427491Y-98149610D01*
X143230619Y-97952737D01*
X143197134Y-97891414D01*
X143194300Y-97865056D01*
X143194300Y-97670014D01*
X143183382Y-97595081D01*
X143126877Y-97479498D01*
X143045160Y-97397781D01*
X143011675Y-97336458D01*
X143016659Y-97266766D01*
X143045160Y-97222419D01*
X143132277Y-97135301D01*
X143188782Y-97019718D01*
X143199700Y-96944785D01*
X143199700Y-96785099D01*
X143219385Y-96718060D01*
X143236014Y-96697422D01*
X143355591Y-96577844D01*
X143375444Y-96561723D01*
X143384536Y-96555784D01*
X143403977Y-96530804D01*
X143414149Y-96519287D01*
X143414220Y-96519217D01*
X143426314Y-96502276D01*
X143429348Y-96498208D01*
X143461509Y-96456889D01*
X143461509Y-96456887D01*
X143466366Y-96450648D01*
X143466453Y-96450479D01*
X143468710Y-96442899D01*
X143483654Y-96392701D01*
X143485191Y-96387902D01*
X143502200Y-96338360D01*
X143502200Y-96338356D01*
X143504760Y-96330899D01*
X143504794Y-96330667D01*
X143504468Y-96322790D01*
X143504469Y-96322788D01*
X143502523Y-96275754D01*
X143519420Y-96207962D01*
X143570287Y-96160063D01*
X143583076Y-96154453D01*
X143609754Y-96144503D01*
X143723531Y-96059331D01*
X143808703Y-95945554D01*
X143858371Y-95812391D01*
X143864700Y-95753521D01*
X143864699Y-94746480D01*
X143858371Y-94687609D01*
X143855014Y-94678609D01*
X143808703Y-94554446D01*
X143723531Y-94440668D01*
X143609754Y-94355497D01*
X143572175Y-94341480D01*
X143516242Y-94299607D01*
X143491827Y-94234143D01*
X143506680Y-94165870D01*
X143556086Y-94116466D01*
X143572167Y-94109122D01*
X143609754Y-94095103D01*
X143723531Y-94009931D01*
X143808703Y-93896154D01*
X143858371Y-93762991D01*
X143864700Y-93704121D01*
X143864699Y-92697080D01*
X143858371Y-92638209D01*
X143856196Y-92632379D01*
X143808703Y-92505046D01*
X143723531Y-92391268D01*
X143609754Y-92306097D01*
X143585473Y-92297040D01*
X143529540Y-92255167D01*
X143505125Y-92189702D01*
X143507233Y-92158571D01*
X143507066Y-92157234D01*
X143507067Y-92157232D01*
X143503152Y-92125822D01*
X143502200Y-92110485D01*
X143502200Y-92110388D01*
X143501920Y-92108708D01*
X143498774Y-92089857D01*
X143498042Y-92084834D01*
X143491566Y-92032875D01*
X143491564Y-92032871D01*
X143490589Y-92025047D01*
X143490519Y-92024827D01*
X143474890Y-91995948D01*
X143461859Y-91971869D01*
X143459522Y-91967329D01*
X143433060Y-91913200D01*
X143432925Y-91913019D01*
X143427119Y-91907674D01*
X143388592Y-91872207D01*
X143384942Y-91868705D01*
X143236017Y-91719779D01*
X143202534Y-91658458D01*
X143199700Y-91632100D01*
X143199700Y-91472414D01*
X143188782Y-91397481D01*
X143132277Y-91281898D01*
X143041301Y-91190922D01*
X142925718Y-91134417D01*
X142850785Y-91123500D01*
X142850782Y-91123500D01*
X142507618Y-91123500D01*
X142499677Y-91124656D01*
X142450672Y-91131796D01*
X142381495Y-91121981D01*
X142328606Y-91076325D01*
X142308796Y-91009322D01*
X142309699Y-90994156D01*
X142311078Y-90982800D01*
X142292037Y-90825982D01*
X142236020Y-90678277D01*
X142236020Y-90678276D01*
X142229237Y-90668450D01*
X142207354Y-90602096D01*
X142224819Y-90534444D01*
X142276087Y-90486974D01*
X142308493Y-90476124D01*
X142471656Y-90445624D01*
X142661837Y-90371948D01*
X142835241Y-90264581D01*
X142985964Y-90127179D01*
X143108873Y-89964421D01*
X143108873Y-89964419D01*
X143108875Y-89964418D01*
X143195803Y-89789840D01*
X143199782Y-89781850D01*
X143255597Y-89585683D01*
X143274415Y-89382600D01*
X143255597Y-89179517D01*
X143199782Y-88983350D01*
X143199409Y-88982601D01*
X143108875Y-88800781D01*
X142985963Y-88638019D01*
X142835241Y-88500618D01*
X142661838Y-88393252D01*
X142471657Y-88319576D01*
X142404829Y-88307083D01*
X142271176Y-88282100D01*
X142067224Y-88282100D01*
X141966983Y-88300838D01*
X141866742Y-88319576D01*
X141676561Y-88393252D01*
X141503158Y-88500618D01*
X141352436Y-88638019D01*
X141229524Y-88800781D01*
X141138618Y-88983348D01*
X141082802Y-89179516D01*
X141063985Y-89382600D01*
X141082803Y-89585685D01*
X141140890Y-89789840D01*
X141140303Y-89859707D01*
X141109305Y-89911455D01*
X140701908Y-90318852D01*
X140682054Y-90334976D01*
X140672965Y-90340914D01*
X140653522Y-90365894D01*
X140643363Y-90377398D01*
X140643284Y-90377476D01*
X140643279Y-90377482D01*
X140643280Y-90377482D01*
X140631190Y-90394414D01*
X140628141Y-90398504D01*
X140591154Y-90446024D01*
X140591037Y-90446253D01*
X140573857Y-90503955D01*
X140572295Y-90508831D01*
X140552741Y-90565792D01*
X140552706Y-90566034D01*
X140555194Y-90626191D01*
X140555300Y-90631315D01*
X140555300Y-91054456D01*
X140535615Y-91121495D01*
X140482811Y-91167250D01*
X140413653Y-91177194D01*
X140350097Y-91148169D01*
X140343619Y-91142137D01*
X138220977Y-89019495D01*
X138187492Y-88958172D01*
X138192476Y-88888480D01*
X138197659Y-88876539D01*
X138202982Y-88865850D01*
X138202982Y-88865847D01*
X138202984Y-88865845D01*
X138258796Y-88669685D01*
X138258797Y-88669683D01*
X138277615Y-88466600D01*
X138258797Y-88263517D01*
X138256457Y-88255294D01*
X138202981Y-88067348D01*
X138112075Y-87884781D01*
X137989163Y-87722019D01*
X137983903Y-87717224D01*
X141069200Y-87717224D01*
X141083704Y-87790143D01*
X141138960Y-87872839D01*
X141221656Y-87928095D01*
X141294575Y-87942600D01*
X141919200Y-87942600D01*
X141919200Y-87278101D01*
X142026885Y-87327280D01*
X142133437Y-87342600D01*
X142204963Y-87342600D01*
X142311515Y-87327280D01*
X142419200Y-87278101D01*
X142419200Y-87942600D01*
X143043825Y-87942600D01*
X143116743Y-87928095D01*
X143199439Y-87872839D01*
X143254695Y-87790143D01*
X143269200Y-87717224D01*
X143269200Y-87092600D01*
X142602886Y-87092600D01*
X142628693Y-87052444D01*
X142669200Y-86914489D01*
X142669200Y-86770711D01*
X142628693Y-86632756D01*
X142602886Y-86592600D01*
X143269200Y-86592600D01*
X143269200Y-85967975D01*
X143254695Y-85895056D01*
X143199439Y-85812360D01*
X143116743Y-85757104D01*
X143043825Y-85742600D01*
X142419200Y-85742600D01*
X142419200Y-86407098D01*
X142311515Y-86357920D01*
X142204963Y-86342600D01*
X142133437Y-86342600D01*
X142026885Y-86357920D01*
X141919200Y-86407098D01*
X141919200Y-85742600D01*
X141294575Y-85742600D01*
X141221656Y-85757104D01*
X141138960Y-85812360D01*
X141083704Y-85895056D01*
X141069200Y-85967975D01*
X141069200Y-86592600D01*
X141735514Y-86592600D01*
X141709707Y-86632756D01*
X141669200Y-86770711D01*
X141669200Y-86914489D01*
X141709707Y-87052444D01*
X141735514Y-87092600D01*
X141069200Y-87092600D01*
X141069200Y-87717224D01*
X137983903Y-87717224D01*
X137838441Y-87584618D01*
X137665038Y-87477252D01*
X137474857Y-87403576D01*
X137408029Y-87391083D01*
X137274376Y-87366100D01*
X137070424Y-87366100D01*
X137003036Y-87378697D01*
X136869942Y-87403576D01*
X136679761Y-87477252D01*
X136506358Y-87584618D01*
X136355636Y-87722019D01*
X136232724Y-87884781D01*
X136141818Y-88067348D01*
X136086002Y-88263516D01*
X136067185Y-88466600D01*
X136086002Y-88669683D01*
X136141818Y-88865851D01*
X136232724Y-89048418D01*
X136355636Y-89211180D01*
X136506358Y-89348581D01*
X136679761Y-89455947D01*
X136679763Y-89455948D01*
X136869944Y-89529624D01*
X137070424Y-89567100D01*
X137070426Y-89567100D01*
X137274374Y-89567100D01*
X137274376Y-89567100D01*
X137474856Y-89529624D01*
X137590440Y-89484846D01*
X137660059Y-89478985D01*
X137721799Y-89511695D01*
X137722911Y-89512793D01*
X139871981Y-91661862D01*
X139905466Y-91723185D01*
X139908300Y-91749543D01*
X139908300Y-92947456D01*
X139888615Y-93014495D01*
X139835811Y-93060250D01*
X139766653Y-93070194D01*
X139703097Y-93041169D01*
X139696619Y-93035137D01*
X138220977Y-91559495D01*
X138187492Y-91498172D01*
X138192476Y-91428480D01*
X138197659Y-91416539D01*
X138202982Y-91405850D01*
X138202982Y-91405847D01*
X138202984Y-91405845D01*
X138250581Y-91238559D01*
X138258797Y-91209683D01*
X138277615Y-91006600D01*
X138258797Y-90803517D01*
X138202982Y-90607350D01*
X138173564Y-90548270D01*
X138112075Y-90424781D01*
X137989163Y-90262019D01*
X137838441Y-90124618D01*
X137665038Y-90017252D01*
X137474857Y-89943576D01*
X137408029Y-89931083D01*
X137274376Y-89906100D01*
X137070424Y-89906100D01*
X136970183Y-89924838D01*
X136869942Y-89943576D01*
X136679761Y-90017252D01*
X136506358Y-90124618D01*
X136355636Y-90262019D01*
X136232724Y-90424781D01*
X136141818Y-90607348D01*
X136086002Y-90803516D01*
X136067185Y-91006600D01*
X136086002Y-91209683D01*
X136141818Y-91405851D01*
X136232724Y-91588418D01*
X136355636Y-91751180D01*
X136506358Y-91888581D01*
X136679761Y-91995947D01*
X136679763Y-91995948D01*
X136869944Y-92069624D01*
X137070424Y-92107100D01*
X137070426Y-92107100D01*
X137274374Y-92107100D01*
X137274376Y-92107100D01*
X137474856Y-92069624D01*
X137590440Y-92024846D01*
X137660059Y-92018985D01*
X137721799Y-92051695D01*
X137722910Y-92052792D01*
X139414782Y-93744664D01*
X139448266Y-93805985D01*
X139451100Y-93832343D01*
X139451100Y-95030255D01*
X139431415Y-95097294D01*
X139378611Y-95143049D01*
X139309453Y-95152993D01*
X139245897Y-95123968D01*
X139239419Y-95117936D01*
X138220977Y-94099495D01*
X138187492Y-94038172D01*
X138192476Y-93968480D01*
X138197659Y-93956539D01*
X138201385Y-93949057D01*
X138202982Y-93945850D01*
X138202982Y-93945847D01*
X138202984Y-93945845D01*
X138235278Y-93832343D01*
X138258797Y-93749683D01*
X138277615Y-93546600D01*
X138258797Y-93343517D01*
X138202982Y-93147350D01*
X138202609Y-93146601D01*
X138112075Y-92964781D01*
X137989163Y-92802019D01*
X137838441Y-92664618D01*
X137665038Y-92557252D01*
X137474857Y-92483576D01*
X137408029Y-92471083D01*
X137274376Y-92446100D01*
X137070424Y-92446100D01*
X136970183Y-92464838D01*
X136869942Y-92483576D01*
X136679761Y-92557252D01*
X136506358Y-92664618D01*
X136355636Y-92802019D01*
X136232724Y-92964781D01*
X136141818Y-93147348D01*
X136086002Y-93343516D01*
X136067185Y-93546599D01*
X136086002Y-93749683D01*
X136141818Y-93945851D01*
X136232724Y-94128418D01*
X136355636Y-94291180D01*
X136506358Y-94428581D01*
X136679761Y-94535947D01*
X136679763Y-94535948D01*
X136869944Y-94609624D01*
X137070424Y-94647100D01*
X137070426Y-94647100D01*
X137274374Y-94647100D01*
X137274376Y-94647100D01*
X137474856Y-94609624D01*
X137590440Y-94564846D01*
X137660059Y-94558985D01*
X137721799Y-94591695D01*
X137722911Y-94592793D01*
X138964782Y-95834664D01*
X138998266Y-95895985D01*
X139001100Y-95922343D01*
X139001100Y-97120256D01*
X138981415Y-97187295D01*
X138928611Y-97233050D01*
X138859453Y-97242994D01*
X138795897Y-97213969D01*
X138789419Y-97207937D01*
X138220976Y-96639495D01*
X138187491Y-96578172D01*
X138192475Y-96508481D01*
X138197649Y-96496559D01*
X138202982Y-96485850D01*
X138258797Y-96289683D01*
X138277615Y-96086600D01*
X138258797Y-95883517D01*
X138255230Y-95870982D01*
X138222744Y-95756807D01*
X138202982Y-95687350D01*
X138202609Y-95686601D01*
X138112075Y-95504781D01*
X137989163Y-95342019D01*
X137838441Y-95204618D01*
X137665038Y-95097252D01*
X137474857Y-95023576D01*
X137408029Y-95011083D01*
X137274376Y-94986100D01*
X137070424Y-94986100D01*
X136970183Y-95004838D01*
X136869942Y-95023576D01*
X136679761Y-95097252D01*
X136506358Y-95204618D01*
X136355636Y-95342019D01*
X136232724Y-95504781D01*
X136141818Y-95687348D01*
X136086002Y-95883516D01*
X136067185Y-96086600D01*
X136086002Y-96289683D01*
X136141818Y-96485851D01*
X136232724Y-96668418D01*
X136355636Y-96831180D01*
X136506358Y-96968581D01*
X136679761Y-97075947D01*
X136679763Y-97075948D01*
X136869944Y-97149624D01*
X137070424Y-97187100D01*
X137070426Y-97187100D01*
X137274374Y-97187100D01*
X137274376Y-97187100D01*
X137474856Y-97149624D01*
X137590440Y-97104846D01*
X137660059Y-97098985D01*
X137721799Y-97131695D01*
X137722911Y-97132793D01*
X138741581Y-98151463D01*
X138775066Y-98212786D01*
X138777900Y-98239144D01*
X138777900Y-99437056D01*
X138758215Y-99504095D01*
X138705411Y-99549850D01*
X138636253Y-99559794D01*
X138572697Y-99530769D01*
X138566219Y-99524737D01*
X138220977Y-99179495D01*
X138187492Y-99118172D01*
X138192476Y-99048480D01*
X138197659Y-99036539D01*
X138198488Y-99034874D01*
X138202982Y-99025850D01*
X138202982Y-99025847D01*
X138202984Y-99025845D01*
X138247068Y-98870905D01*
X138258797Y-98829683D01*
X138277615Y-98626600D01*
X138258797Y-98423517D01*
X138258461Y-98422337D01*
X138224706Y-98303702D01*
X138202982Y-98227350D01*
X138182463Y-98186142D01*
X138112075Y-98044781D01*
X137989163Y-97882019D01*
X137838441Y-97744618D01*
X137665038Y-97637252D01*
X137474857Y-97563576D01*
X137354619Y-97541100D01*
X137274376Y-97526100D01*
X137070424Y-97526100D01*
X136990181Y-97541100D01*
X136869942Y-97563576D01*
X136679761Y-97637252D01*
X136506358Y-97744618D01*
X136355636Y-97882019D01*
X136232724Y-98044781D01*
X136141818Y-98227348D01*
X136086002Y-98423516D01*
X136067185Y-98626599D01*
X136086002Y-98829683D01*
X136141818Y-99025851D01*
X136232724Y-99208418D01*
X136355636Y-99371180D01*
X136506358Y-99508581D01*
X136679761Y-99615947D01*
X136679763Y-99615948D01*
X136869944Y-99689624D01*
X137070424Y-99727100D01*
X137070426Y-99727100D01*
X137274374Y-99727100D01*
X137274376Y-99727100D01*
X137474856Y-99689624D01*
X137590440Y-99644846D01*
X137660059Y-99638985D01*
X137721799Y-99671695D01*
X137722911Y-99672793D01*
X138341581Y-100291462D01*
X138375066Y-100352785D01*
X138377900Y-100379143D01*
X138377900Y-100591415D01*
X138358215Y-100658454D01*
X138305411Y-100704209D01*
X138236253Y-100714153D01*
X138172697Y-100685128D01*
X138142900Y-100646687D01*
X138112073Y-100584779D01*
X137989163Y-100422019D01*
X137838441Y-100284618D01*
X137665038Y-100177252D01*
X137474857Y-100103576D01*
X137408029Y-100091083D01*
X137274376Y-100066100D01*
X137070424Y-100066100D01*
X136970183Y-100084838D01*
X136869942Y-100103576D01*
X136679761Y-100177252D01*
X136506358Y-100284618D01*
X136355636Y-100422019D01*
X136232724Y-100584781D01*
X136141818Y-100767348D01*
X136086002Y-100963516D01*
X136067185Y-101166599D01*
X136086002Y-101369683D01*
X136141818Y-101565851D01*
X136232724Y-101748418D01*
X136355636Y-101911180D01*
X136506358Y-102048581D01*
X136679761Y-102155947D01*
X136679763Y-102155948D01*
X136869944Y-102229624D01*
X137070424Y-102267100D01*
X137070426Y-102267100D01*
X137274374Y-102267100D01*
X137274376Y-102267100D01*
X137474856Y-102229624D01*
X137590440Y-102184846D01*
X137660059Y-102178985D01*
X137721799Y-102211695D01*
X137722911Y-102212793D01*
X137941581Y-102431462D01*
X137975066Y-102492785D01*
X137977900Y-102519143D01*
X137977900Y-102688345D01*
X137958215Y-102755384D01*
X137905411Y-102801139D01*
X137836253Y-102811083D01*
X137788623Y-102793772D01*
X137665038Y-102717252D01*
X137474857Y-102643576D01*
X137395222Y-102628690D01*
X137274376Y-102606100D01*
X137070424Y-102606100D01*
X136970183Y-102624838D01*
X136869942Y-102643576D01*
X136679761Y-102717252D01*
X136506358Y-102824618D01*
X136355636Y-102962019D01*
X136232724Y-103124781D01*
X136141818Y-103307348D01*
X136086002Y-103503516D01*
X136067185Y-103706600D01*
X136086002Y-103909683D01*
X136141818Y-104105851D01*
X136232724Y-104288418D01*
X136355636Y-104451180D01*
X136506358Y-104588581D01*
X136679761Y-104695947D01*
X136679763Y-104695948D01*
X136869944Y-104769624D01*
X137070424Y-104807100D01*
X137070426Y-104807100D01*
X137274377Y-104807100D01*
X137296646Y-104802937D01*
X137343784Y-104794125D01*
X137413298Y-104801155D01*
X137454250Y-104828332D01*
X137605463Y-104979545D01*
X137638948Y-105040868D01*
X137633964Y-105110560D01*
X137592092Y-105166493D01*
X137526628Y-105190910D01*
X137486305Y-105184853D01*
X137486150Y-105185688D01*
X137474859Y-105183577D01*
X137474856Y-105183576D01*
X137274376Y-105146100D01*
X137070424Y-105146100D01*
X136970183Y-105164838D01*
X136869942Y-105183576D01*
X136679761Y-105257252D01*
X136506358Y-105364618D01*
X136355636Y-105502019D01*
X136232724Y-105664781D01*
X136141818Y-105847348D01*
X136086002Y-106043516D01*
X136067185Y-106246599D01*
X136086002Y-106449683D01*
X136141818Y-106645851D01*
X136232724Y-106828418D01*
X136355636Y-106991180D01*
X136506358Y-107128581D01*
X136679761Y-107235947D01*
X136679763Y-107235948D01*
X136869944Y-107309624D01*
X137070424Y-107347100D01*
X137070426Y-107347100D01*
X137274374Y-107347100D01*
X137274376Y-107347100D01*
X137474856Y-107309624D01*
X137590440Y-107264846D01*
X137660059Y-107258985D01*
X137721799Y-107291695D01*
X137722911Y-107292793D01*
X138104137Y-107674019D01*
X138137622Y-107735342D01*
X138132638Y-107805034D01*
X138090766Y-107860967D01*
X138025302Y-107885384D01*
X138016456Y-107885700D01*
X137843167Y-107885700D01*
X137777890Y-107867127D01*
X137665038Y-107797252D01*
X137474857Y-107723576D01*
X137408029Y-107711083D01*
X137274376Y-107686100D01*
X137070424Y-107686100D01*
X136970183Y-107704838D01*
X136869942Y-107723576D01*
X136679761Y-107797252D01*
X136506358Y-107904618D01*
X136355636Y-108042019D01*
X136232724Y-108204781D01*
X136141818Y-108387348D01*
X136086002Y-108583516D01*
X136067185Y-108786600D01*
X136086002Y-108989683D01*
X136141818Y-109185851D01*
X136232724Y-109368418D01*
X136355636Y-109531180D01*
X136506358Y-109668581D01*
X136679761Y-109775947D01*
X136679763Y-109775948D01*
X136869944Y-109849624D01*
X137070424Y-109887100D01*
X137070426Y-109887100D01*
X137274374Y-109887100D01*
X137274376Y-109887100D01*
X137474856Y-109849624D01*
X137665037Y-109775948D01*
X137838441Y-109668581D01*
X137922440Y-109592006D01*
X137989163Y-109531180D01*
X137990106Y-109529931D01*
X138112073Y-109368421D01*
X138112073Y-109368419D01*
X138112075Y-109368418D01*
X138157713Y-109276761D01*
X138202982Y-109185850D01*
X138258797Y-108989683D01*
X138277615Y-108786600D01*
X138271642Y-108722140D01*
X138285057Y-108653571D01*
X138333414Y-108603140D01*
X138395113Y-108586700D01*
X139117256Y-108586700D01*
X139184295Y-108606385D01*
X139230050Y-108659189D01*
X139239994Y-108728347D01*
X139210969Y-108791903D01*
X139204937Y-108798381D01*
X137722910Y-110280406D01*
X137661587Y-110313891D01*
X137591895Y-110308907D01*
X137590540Y-110308392D01*
X137474856Y-110263576D01*
X137274376Y-110226100D01*
X137070424Y-110226100D01*
X136970183Y-110244838D01*
X136869942Y-110263576D01*
X136679761Y-110337252D01*
X136506358Y-110444618D01*
X136355636Y-110582019D01*
X136232724Y-110744781D01*
X136141818Y-110927348D01*
X136086002Y-111123516D01*
X136067185Y-111326600D01*
X136086002Y-111529683D01*
X136141818Y-111725851D01*
X136232724Y-111908418D01*
X136355636Y-112071180D01*
X136506358Y-112208581D01*
X136658258Y-112302633D01*
X136679763Y-112315948D01*
X136869944Y-112389624D01*
X137070424Y-112427100D01*
X137070426Y-112427100D01*
X137274374Y-112427100D01*
X137274376Y-112427100D01*
X137474856Y-112389624D01*
X137665037Y-112315948D01*
X137814023Y-112223699D01*
X137881383Y-112205144D01*
X137948082Y-112225952D01*
X137992944Y-112279518D01*
X138003300Y-112329127D01*
X138003300Y-112488654D01*
X137983615Y-112555693D01*
X137966981Y-112576335D01*
X137722910Y-112820406D01*
X137661587Y-112853891D01*
X137591895Y-112848907D01*
X137590540Y-112848392D01*
X137474856Y-112803576D01*
X137274376Y-112766100D01*
X137070424Y-112766100D01*
X136970183Y-112784838D01*
X136869942Y-112803576D01*
X136679761Y-112877252D01*
X136506358Y-112984618D01*
X136355636Y-113122019D01*
X136232724Y-113284781D01*
X136141818Y-113467348D01*
X136086002Y-113663516D01*
X136067185Y-113866599D01*
X136086002Y-114069683D01*
X136141818Y-114265851D01*
X136232724Y-114448418D01*
X136355636Y-114611180D01*
X136506358Y-114748581D01*
X136679761Y-114855947D01*
X136679763Y-114855948D01*
X136869944Y-114929624D01*
X137070424Y-114967100D01*
X137070426Y-114967100D01*
X137274374Y-114967100D01*
X137274376Y-114967100D01*
X137474856Y-114929624D01*
X137665037Y-114855948D01*
X137838441Y-114748581D01*
X137989164Y-114611179D01*
X138112073Y-114448421D01*
X138112073Y-114448419D01*
X138112075Y-114448418D01*
X138195102Y-114281675D01*
X138202982Y-114265850D01*
X138258797Y-114069683D01*
X138277615Y-113866600D01*
X138258797Y-113663517D01*
X138202982Y-113467350D01*
X138197656Y-113456655D01*
X138185395Y-113387871D01*
X138212268Y-113323376D01*
X138220966Y-113313713D01*
X138566843Y-112967836D01*
X138586695Y-112951715D01*
X138594469Y-112946637D01*
X138612300Y-112923726D01*
X138622027Y-112912713D01*
X138633350Y-112896853D01*
X138636404Y-112892755D01*
X138666317Y-112854326D01*
X138666317Y-112854323D01*
X138670908Y-112848426D01*
X138675621Y-112832597D01*
X138686929Y-112794612D01*
X138688479Y-112789769D01*
X138704300Y-112743688D01*
X138704300Y-112743684D01*
X138706725Y-112736621D01*
X138706416Y-112729156D01*
X138706417Y-112729154D01*
X138704405Y-112680530D01*
X138704300Y-112675407D01*
X138704300Y-111460842D01*
X139793910Y-111460842D01*
X139828329Y-111485849D01*
X139945820Y-111524024D01*
X140069362Y-111524024D01*
X140186852Y-111485849D01*
X140196698Y-111478695D01*
X140196699Y-111478695D01*
X139986379Y-111268375D01*
X139986378Y-111268375D01*
X139793910Y-111460841D01*
X139793910Y-111460842D01*
X138704300Y-111460842D01*
X138704300Y-110955380D01*
X139377176Y-110955380D01*
X139415349Y-111072870D01*
X139440355Y-111107289D01*
X139632825Y-110914821D01*
X139422504Y-110704501D01*
X139415350Y-110714347D01*
X139377176Y-110831838D01*
X139377176Y-110955380D01*
X138704300Y-110955380D01*
X138704300Y-110907429D01*
X138723985Y-110840390D01*
X138740614Y-110819753D01*
X139937349Y-109623018D01*
X139998672Y-109589534D01*
X140025030Y-109586700D01*
X140222472Y-109586700D01*
X140289511Y-109606385D01*
X140335266Y-109659189D01*
X140345210Y-109728347D01*
X140316185Y-109791903D01*
X140310163Y-109798371D01*
X140267520Y-109841015D01*
X140148139Y-109960396D01*
X140093721Y-110035293D01*
X140055497Y-110152937D01*
X140055497Y-110181620D01*
X140035812Y-110248659D01*
X139983008Y-110294414D01*
X139931497Y-110305620D01*
X139903395Y-110305620D01*
X139785903Y-110343794D01*
X139776055Y-110350947D01*
X139986378Y-110561269D01*
X140550251Y-111125142D01*
X140550251Y-111125141D01*
X140557405Y-111115297D01*
X140595580Y-110997805D01*
X140595580Y-110969703D01*
X140615265Y-110902664D01*
X140663116Y-110861201D01*
X141440807Y-110861201D01*
X141443390Y-110880828D01*
X141489966Y-110980709D01*
X141567890Y-111058633D01*
X141667771Y-111105209D01*
X141709258Y-111110670D01*
X141717332Y-111111199D01*
X141999899Y-111111199D01*
X141999900Y-111111198D01*
X141999900Y-110861200D01*
X141440808Y-110861200D01*
X141440807Y-110861201D01*
X140663116Y-110861201D01*
X140668069Y-110856909D01*
X140719580Y-110845703D01*
X140748263Y-110845703D01*
X140807084Y-110826590D01*
X140865907Y-110807478D01*
X140940805Y-110753061D01*
X141045846Y-110648018D01*
X141107169Y-110614534D01*
X141133528Y-110611700D01*
X141713221Y-110611700D01*
X142062240Y-110611700D01*
X142125900Y-110611700D01*
X142192939Y-110631385D01*
X142238694Y-110684189D01*
X142249900Y-110735700D01*
X142249900Y-111111199D01*
X142312900Y-111111199D01*
X142379939Y-111130884D01*
X142425694Y-111183688D01*
X142436900Y-111235199D01*
X142436900Y-111831318D01*
X142436900Y-111831333D01*
X142436901Y-111835378D01*
X142437429Y-111839395D01*
X142437431Y-111839413D01*
X142442899Y-111880958D01*
X142450281Y-111896787D01*
X142461900Y-111949193D01*
X142461900Y-112051411D01*
X142450464Y-112090357D01*
X142455000Y-112091915D01*
X142451735Y-112101422D01*
X142443922Y-112116600D01*
X142427671Y-112171184D01*
X142426109Y-112176060D01*
X142407874Y-112229179D01*
X142410194Y-112285270D01*
X142410300Y-112290394D01*
X142410300Y-112595970D01*
X142390615Y-112663009D01*
X142373981Y-112683651D01*
X139037851Y-116019781D01*
X138976528Y-116053266D01*
X138950170Y-116056100D01*
X138304034Y-116056100D01*
X138236995Y-116036415D01*
X138193034Y-115987372D01*
X138112073Y-115824779D01*
X138112072Y-115824778D01*
X138112072Y-115824777D01*
X137989163Y-115662019D01*
X137838441Y-115524618D01*
X137665038Y-115417252D01*
X137474857Y-115343576D01*
X137408029Y-115331083D01*
X137274376Y-115306100D01*
X137070424Y-115306100D01*
X136970183Y-115324838D01*
X136869942Y-115343576D01*
X136679761Y-115417252D01*
X136506358Y-115524618D01*
X136355636Y-115662019D01*
X136232724Y-115824781D01*
X136141818Y-116007348D01*
X136086002Y-116203516D01*
X136067185Y-116406600D01*
X136086002Y-116609683D01*
X136141818Y-116805851D01*
X136232724Y-116988418D01*
X136355636Y-117151180D01*
X136506358Y-117288581D01*
X136679761Y-117395947D01*
X136679763Y-117395948D01*
X136869944Y-117469624D01*
X137070424Y-117507100D01*
X137070426Y-117507100D01*
X137274374Y-117507100D01*
X137274376Y-117507100D01*
X137474856Y-117469624D01*
X137665037Y-117395948D01*
X137838441Y-117288581D01*
X137989164Y-117151179D01*
X138112073Y-116988421D01*
X138193034Y-116825827D01*
X138240536Y-116774592D01*
X138304034Y-116757100D01*
X138566856Y-116757100D01*
X138633895Y-116776785D01*
X138679650Y-116829589D01*
X138689594Y-116898747D01*
X138660569Y-116962303D01*
X138654537Y-116968781D01*
X137722910Y-117900406D01*
X137661587Y-117933891D01*
X137591895Y-117928907D01*
X137590540Y-117928392D01*
X137474856Y-117883576D01*
X137274376Y-117846100D01*
X137070424Y-117846100D01*
X136970183Y-117864838D01*
X136869942Y-117883576D01*
X136679761Y-117957252D01*
X136506358Y-118064618D01*
X136355636Y-118202019D01*
X136232724Y-118364781D01*
X136141818Y-118547348D01*
X136086002Y-118743516D01*
X136067185Y-118946599D01*
X136086002Y-119149683D01*
X136141818Y-119345851D01*
X136232724Y-119528418D01*
X136355636Y-119691180D01*
X136506358Y-119828581D01*
X136679761Y-119935947D01*
X136679763Y-119935948D01*
X136869944Y-120009624D01*
X137070424Y-120047100D01*
X137070426Y-120047100D01*
X137274374Y-120047100D01*
X137274376Y-120047100D01*
X137474856Y-120009624D01*
X137665037Y-119935948D01*
X137838441Y-119828581D01*
X137846562Y-119821177D01*
X137909365Y-119790561D01*
X137978752Y-119798758D01*
X138032693Y-119843168D01*
X138054061Y-119909690D01*
X138054100Y-119912815D01*
X138054100Y-120057854D01*
X138034415Y-120124893D01*
X138017781Y-120145535D01*
X137722910Y-120440406D01*
X137661587Y-120473891D01*
X137591895Y-120468907D01*
X137590540Y-120468392D01*
X137474856Y-120423576D01*
X137274376Y-120386100D01*
X137070424Y-120386100D01*
X136970183Y-120404838D01*
X136869942Y-120423576D01*
X136679761Y-120497252D01*
X136506358Y-120604618D01*
X136355636Y-120742019D01*
X136232724Y-120904781D01*
X136141818Y-121087348D01*
X136086002Y-121283516D01*
X136067185Y-121486599D01*
X136086002Y-121689683D01*
X136141818Y-121885851D01*
X136232724Y-122068418D01*
X136355636Y-122231180D01*
X136506358Y-122368581D01*
X136679761Y-122475947D01*
X136679763Y-122475948D01*
X136869944Y-122549624D01*
X137070424Y-122587100D01*
X137070426Y-122587100D01*
X137274374Y-122587100D01*
X137274376Y-122587100D01*
X137474856Y-122549624D01*
X137665037Y-122475948D01*
X137838441Y-122368581D01*
X137989164Y-122231179D01*
X138112073Y-122068421D01*
X138112073Y-122068419D01*
X138112075Y-122068418D01*
X138175834Y-121940370D01*
X138202982Y-121885850D01*
X138258797Y-121689683D01*
X138277615Y-121486600D01*
X138258797Y-121283517D01*
X138251826Y-121259018D01*
X138214798Y-121128878D01*
X138202982Y-121087350D01*
X138197657Y-121076657D01*
X138185395Y-121007874D01*
X138212267Y-120943379D01*
X138220966Y-120933714D01*
X138355166Y-120799514D01*
X138416487Y-120766031D01*
X138486179Y-120771015D01*
X138542112Y-120812887D01*
X138566529Y-120878351D01*
X138560128Y-120927454D01*
X138559674Y-120928776D01*
X138561994Y-120984868D01*
X138562100Y-120989992D01*
X138562100Y-122089854D01*
X138542415Y-122156893D01*
X138525781Y-122177535D01*
X137722910Y-122980406D01*
X137661587Y-123013891D01*
X137591895Y-123008907D01*
X137590540Y-123008392D01*
X137474856Y-122963576D01*
X137274376Y-122926100D01*
X137070424Y-122926100D01*
X136973271Y-122944261D01*
X136869942Y-122963576D01*
X136679761Y-123037252D01*
X136506358Y-123144618D01*
X136355636Y-123282019D01*
X136232724Y-123444781D01*
X136141818Y-123627348D01*
X136086002Y-123823516D01*
X136067185Y-124026600D01*
X136086002Y-124229683D01*
X136141818Y-124425851D01*
X136232724Y-124608418D01*
X136355636Y-124771180D01*
X136506358Y-124908581D01*
X136679761Y-125015947D01*
X136679763Y-125015948D01*
X136869944Y-125089624D01*
X137070424Y-125127100D01*
X137070426Y-125127100D01*
X137274374Y-125127100D01*
X137274376Y-125127100D01*
X137474856Y-125089624D01*
X137665037Y-125015948D01*
X137838441Y-124908581D01*
X137928205Y-124826750D01*
X137989163Y-124771180D01*
X138060443Y-124676790D01*
X138112073Y-124608421D01*
X138112073Y-124608419D01*
X138112075Y-124608418D01*
X138171707Y-124488659D01*
X138202982Y-124425850D01*
X138258797Y-124229683D01*
X138277615Y-124026600D01*
X138258797Y-123823517D01*
X138244940Y-123774817D01*
X138215447Y-123671158D01*
X138202982Y-123627350D01*
X138197657Y-123616657D01*
X138185395Y-123547874D01*
X138212267Y-123483379D01*
X138220966Y-123473714D01*
X138750421Y-122944259D01*
X138811742Y-122910776D01*
X138881434Y-122915760D01*
X138937367Y-122957632D01*
X138961784Y-123023096D01*
X138962100Y-123031942D01*
X138962100Y-124229855D01*
X138942415Y-124296894D01*
X138925781Y-124317536D01*
X137722910Y-125520406D01*
X137661587Y-125553891D01*
X137591895Y-125548907D01*
X137590540Y-125548392D01*
X137474856Y-125503576D01*
X137274376Y-125466100D01*
X137070424Y-125466100D01*
X136970183Y-125484838D01*
X136869942Y-125503576D01*
X136679761Y-125577252D01*
X136506358Y-125684618D01*
X136355636Y-125822019D01*
X136232724Y-125984781D01*
X136141818Y-126167348D01*
X136086002Y-126363516D01*
X136067185Y-126566599D01*
X136086002Y-126769683D01*
X136141818Y-126965851D01*
X136232724Y-127148418D01*
X136355636Y-127311180D01*
X136506358Y-127448581D01*
X136657257Y-127542013D01*
X136679763Y-127555948D01*
X136869944Y-127629624D01*
X137070424Y-127667100D01*
X137070426Y-127667100D01*
X137274374Y-127667100D01*
X137274376Y-127667100D01*
X137474856Y-127629624D01*
X137665037Y-127555948D01*
X137838441Y-127448581D01*
X137989164Y-127311179D01*
X138112073Y-127148421D01*
X138112073Y-127148419D01*
X138112075Y-127148418D01*
X138199499Y-126972844D01*
X138202982Y-126965850D01*
X138258797Y-126769683D01*
X138277615Y-126566600D01*
X138258797Y-126363517D01*
X138202982Y-126167350D01*
X138197656Y-126156655D01*
X138185395Y-126087871D01*
X138212268Y-126023376D01*
X138220966Y-126013713D01*
X139315620Y-124919059D01*
X139376942Y-124885576D01*
X139446634Y-124890560D01*
X139502567Y-124932432D01*
X139526984Y-124997896D01*
X139527300Y-125006742D01*
X139527300Y-126204655D01*
X139507615Y-126271694D01*
X139490981Y-126292336D01*
X137722910Y-128060406D01*
X137661587Y-128093891D01*
X137591895Y-128088907D01*
X137590540Y-128088392D01*
X137474856Y-128043576D01*
X137274376Y-128006100D01*
X137070424Y-128006100D01*
X136970183Y-128024837D01*
X136869942Y-128043576D01*
X136679761Y-128117252D01*
X136506358Y-128224618D01*
X136355636Y-128362019D01*
X136232724Y-128524781D01*
X136141818Y-128707348D01*
X136086002Y-128903516D01*
X136067185Y-129106600D01*
X135700900Y-129106600D01*
X135700900Y-85926599D01*
X136067185Y-85926599D01*
X136086002Y-86129683D01*
X136141818Y-86325851D01*
X136232724Y-86508418D01*
X136355636Y-86671180D01*
X136506358Y-86808581D01*
X136679761Y-86915947D01*
X136679763Y-86915948D01*
X136869944Y-86989624D01*
X137070424Y-87027100D01*
X137070426Y-87027100D01*
X137274374Y-87027100D01*
X137274376Y-87027100D01*
X137474856Y-86989624D01*
X137665037Y-86915948D01*
X137838441Y-86808581D01*
X137967607Y-86690831D01*
X137989163Y-86671180D01*
X137989164Y-86671179D01*
X138112073Y-86508421D01*
X138112073Y-86508419D01*
X138112075Y-86508418D01*
X138161543Y-86409072D01*
X138202982Y-86325850D01*
X138258797Y-86129683D01*
X138277615Y-85926600D01*
X138258797Y-85723517D01*
X138250401Y-85694010D01*
X138228020Y-85615349D01*
X138202982Y-85527350D01*
X138173685Y-85468513D01*
X138112075Y-85344781D01*
X137989163Y-85182019D01*
X137838441Y-85044618D01*
X137665038Y-84937252D01*
X137474857Y-84863576D01*
X137408029Y-84851083D01*
X137274376Y-84826100D01*
X137070424Y-84826100D01*
X136970183Y-84844838D01*
X136869942Y-84863576D01*
X136679761Y-84937252D01*
X136506358Y-85044618D01*
X136355636Y-85182019D01*
X136232724Y-85344781D01*
X136141818Y-85527348D01*
X136086002Y-85723516D01*
X136067185Y-85926599D01*
X135700900Y-85926599D01*
X135700900Y-83136599D01*
X136099871Y-83136599D01*
X136099872Y-83136600D01*
X136738714Y-83136600D01*
X136712907Y-83176756D01*
X136672400Y-83314711D01*
X136672400Y-83458489D01*
X136712907Y-83596444D01*
X136738714Y-83636600D01*
X136099872Y-83636600D01*
X136142286Y-83785669D01*
X136233151Y-83968153D01*
X136356007Y-84130841D01*
X136506659Y-84268178D01*
X136679988Y-84375499D01*
X136870079Y-84449139D01*
X136922400Y-84458920D01*
X136922400Y-83822101D01*
X137030085Y-83871280D01*
X137136637Y-83886600D01*
X137208163Y-83886600D01*
X137314715Y-83871280D01*
X137422400Y-83822101D01*
X137422400Y-84458920D01*
X137474720Y-84449139D01*
X137664811Y-84375499D01*
X137838140Y-84268178D01*
X137988792Y-84130841D01*
X138111648Y-83968153D01*
X138202513Y-83785669D01*
X138244928Y-83636600D01*
X137606086Y-83636600D01*
X137631893Y-83596444D01*
X137672400Y-83458489D01*
X137672400Y-83314711D01*
X137631893Y-83176756D01*
X137606086Y-83136600D01*
X138244928Y-83136600D01*
X138244928Y-83136599D01*
X138202513Y-82987530D01*
X138111648Y-82805046D01*
X137988792Y-82642358D01*
X137838140Y-82505021D01*
X137664811Y-82397700D01*
X137474717Y-82324058D01*
X137422401Y-82314278D01*
X137422400Y-82314279D01*
X137422400Y-82951098D01*
X137314715Y-82901920D01*
X137208163Y-82886600D01*
X137136637Y-82886600D01*
X137030085Y-82901920D01*
X136922400Y-82951098D01*
X136922400Y-82314279D01*
X136922398Y-82314278D01*
X136870082Y-82324058D01*
X136679988Y-82397700D01*
X136506659Y-82505021D01*
X136356007Y-82642358D01*
X136233151Y-82805046D01*
X136142286Y-82987530D01*
X136099871Y-83136599D01*
X135700900Y-83136599D01*
X135700900Y-81721274D01*
X136071900Y-81721274D01*
X136086433Y-81794338D01*
X136086433Y-81794339D01*
X136086434Y-81794340D01*
X136141799Y-81877201D01*
X136224660Y-81932566D01*
X136261192Y-81939832D01*
X136297725Y-81947100D01*
X136297726Y-81947100D01*
X138047075Y-81947100D01*
X138071429Y-81942255D01*
X138120140Y-81932566D01*
X138203001Y-81877201D01*
X138258366Y-81794340D01*
X138272900Y-81721274D01*
X138272900Y-79971926D01*
X138258366Y-79898860D01*
X138245096Y-79879000D01*
X140912400Y-79879000D01*
X140912400Y-80603624D01*
X140926904Y-80676543D01*
X140982160Y-80759239D01*
X141064856Y-80814495D01*
X141137775Y-80829000D01*
X142062400Y-80829000D01*
X142062400Y-79879000D01*
X140912400Y-79879000D01*
X138245096Y-79879000D01*
X138203001Y-79815999D01*
X138120140Y-79760634D01*
X138120139Y-79760633D01*
X138120138Y-79760633D01*
X138047075Y-79746100D01*
X138047074Y-79746100D01*
X136297726Y-79746100D01*
X136297725Y-79746100D01*
X136224661Y-79760633D01*
X136141799Y-79815999D01*
X136086433Y-79898861D01*
X136071900Y-79971925D01*
X136071900Y-81721274D01*
X135700900Y-81721274D01*
X135700900Y-79379000D01*
X140912400Y-79379000D01*
X142062400Y-79379000D01*
X142062400Y-78429000D01*
X142562400Y-78429000D01*
X142562400Y-79379000D01*
X144662400Y-79379000D01*
X144662400Y-78429000D01*
X145162400Y-78429000D01*
X145162400Y-79379000D01*
X146962400Y-79379000D01*
X146962400Y-78429000D01*
X147462400Y-78429000D01*
X147462400Y-79379000D01*
X149562400Y-79379000D01*
X149562400Y-78429000D01*
X150062400Y-78429000D01*
X150062400Y-79379000D01*
X151212400Y-79379000D01*
X151212400Y-78654375D01*
X151197895Y-78581456D01*
X151142639Y-78498760D01*
X151059943Y-78443504D01*
X150987025Y-78429000D01*
X150062400Y-78429000D01*
X149562400Y-78429000D01*
X148637775Y-78429000D01*
X148564856Y-78443504D01*
X148461651Y-78512464D01*
X148460760Y-78511131D01*
X148436888Y-78531081D01*
X148367563Y-78539787D01*
X148304536Y-78509631D01*
X148298521Y-78502690D01*
X148209943Y-78443504D01*
X148137025Y-78429000D01*
X147462400Y-78429000D01*
X146962400Y-78429000D01*
X146287775Y-78429000D01*
X146214856Y-78443504D01*
X146131290Y-78499341D01*
X146064612Y-78520218D01*
X145997232Y-78501733D01*
X145993510Y-78499341D01*
X145909943Y-78443504D01*
X145837025Y-78429000D01*
X145162400Y-78429000D01*
X144662400Y-78429000D01*
X143987775Y-78429000D01*
X143914856Y-78443504D01*
X143811651Y-78512464D01*
X143810760Y-78511131D01*
X143786888Y-78531081D01*
X143717563Y-78539787D01*
X143654536Y-78509631D01*
X143648521Y-78502690D01*
X143559943Y-78443504D01*
X143487025Y-78429000D01*
X142562400Y-78429000D01*
X142062400Y-78429000D01*
X141137775Y-78429000D01*
X141064856Y-78443504D01*
X140982160Y-78498760D01*
X140926904Y-78581456D01*
X140912400Y-78654375D01*
X140912400Y-79379000D01*
X135700900Y-79379000D01*
X135700900Y-78896009D01*
X135701372Y-78885204D01*
X135704882Y-78845084D01*
X135716878Y-78723279D01*
X135718661Y-78711258D01*
X135722281Y-78693062D01*
X135724112Y-78685208D01*
X135738832Y-78630272D01*
X135739931Y-78626424D01*
X135753572Y-78581456D01*
X135768209Y-78533205D01*
X135774470Y-78516840D01*
X135805715Y-78449835D01*
X135808711Y-78443845D01*
X135808894Y-78443504D01*
X135851882Y-78363077D01*
X135859651Y-78350430D01*
X135903215Y-78288215D01*
X135908913Y-78280705D01*
X135965872Y-78211301D01*
X135974024Y-78202306D01*
X136028106Y-78148224D01*
X136037101Y-78140072D01*
X136106505Y-78083113D01*
X136114015Y-78077415D01*
X136176230Y-78033851D01*
X136188880Y-78026081D01*
X136269645Y-77982911D01*
X136275635Y-77979915D01*
X136342640Y-77948670D01*
X136359016Y-77942405D01*
X136452224Y-77914131D01*
X136456072Y-77913032D01*
X136511008Y-77898312D01*
X136518876Y-77896478D01*
X136537047Y-77892863D01*
X136549082Y-77891078D01*
X136618546Y-77884236D01*
X136670826Y-77879087D01*
X136711042Y-77875568D01*
X136721799Y-77875100D01*
X155402989Y-77875100D01*
X155413794Y-77875571D01*
G37*
%TD.AperFunction*%
%TD*%
M02*
